<svg width="90" height="90" viewBox="0 0 90 90" fill="none" xmlns="http://www.w3.org/2000/svg">
<g filter="url(#filter0_dd_145_5776)">
<ellipse cx="45.2921" cy="39.1173" rx="30.4674" ry="30.4246" fill="#007ED9"/>
<rect width="34.8199" height="34.771" transform="translate(27.8823 21.7318)" fill="#007ED9"/>
<path d="M51.7001 26.0782H38.8845C38.4171 26.0782 38.0382 26.4566 38.0382 26.9233C38.0382 29.2571 36.1436 31.149 33.8066 31.149H33.2021C32.6679 31.149 32.2349 31.5814 32.2349 32.1148V33.3588C32.2349 41.384 36.5919 48.7784 43.6171 52.6758L44.1658 52.9803C44.8664 53.3689 45.7182 53.3689 46.4188 52.9803L46.9675 52.6758C53.9927 48.7784 58.3498 41.384 58.3498 33.3588V32.1148C58.3498 31.5814 57.9167 31.149 57.3825 31.149H56.778C54.441 31.149 52.5465 29.2571 52.5465 26.9233C52.5465 26.4566 52.1675 26.0782 51.7001 26.0782Z" fill="white" fill-opacity="0.8" stroke="white" stroke-opacity="0.8" stroke-width="2"/>
<path d="M38.8333 35.8111C39.0482 35.8558 39.2209 35.9607 39.3512 36.1258C39.4816 36.2875 39.5467 36.4732 39.5467 36.683C39.5467 36.9857 39.4375 37.2265 39.2191 37.4054C39.0042 37.5808 38.703 37.6685 38.3154 37.6685H36.5874V34.0465H38.2573C38.6343 34.0465 38.9284 34.1308 39.1398 34.2994C39.3547 34.4679 39.4622 34.6966 39.4622 34.9856C39.4622 35.1988 39.4041 35.376 39.2878 35.517C39.1751 35.658 39.0236 35.7561 38.8333 35.8111ZM37.4911 35.5118H38.0829C38.2309 35.5118 38.3436 35.4809 38.4211 35.419C38.5022 35.3536 38.5427 35.259 38.5427 35.1352C38.5427 35.0114 38.5022 34.9168 38.4211 34.8514C38.3436 34.7861 38.2309 34.7534 38.0829 34.7534H37.4911V35.5118ZM38.1569 36.9565C38.3084 36.9565 38.4247 36.9238 38.5057 36.8585C38.5902 36.7897 38.6325 36.6916 38.6325 36.5644C38.6325 36.4371 38.5885 36.3374 38.5004 36.2651C38.4158 36.1929 38.2978 36.1568 38.1463 36.1568H37.4911V36.9565H38.1569Z" fill="white"/>
<path d="M41.9627 37.6685L41.1912 36.3012H40.9745V37.6685H40.0709V34.0465H41.5875C41.8799 34.0465 42.1283 34.0964 42.3326 34.1962C42.5405 34.2959 42.6955 34.4335 42.7977 34.6089C42.8998 34.7809 42.9509 34.9735 42.9509 35.1868C42.9509 35.4276 42.8805 35.6425 42.7395 35.8317C42.6021 36.0209 42.3978 36.1551 42.1265 36.2342L42.9826 37.6685H41.9627ZM40.9745 35.6769H41.5347C41.7003 35.6769 41.8236 35.6374 41.9046 35.5583C41.9891 35.4792 42.0314 35.3674 42.0314 35.2229C42.0314 35.0853 41.9891 34.977 41.9046 34.8979C41.8236 34.8187 41.7003 34.7792 41.5347 34.7792H40.9745V35.6769Z" fill="white"/>
<path d="M45.8275 37.0287H44.443L44.221 37.6685H43.2751L44.6174 34.0465H45.6637L47.006 37.6685H46.0495L45.8275 37.0287ZM45.595 36.3477L45.1353 35.0217L44.6808 36.3477H45.595Z" fill="white"/>
<path d="M50.7332 37.6685H49.8295L48.3181 35.4344V37.6685H47.4145V34.0465H48.3181L49.8295 36.2909V34.0465H50.7332V37.6685Z" fill="white"/>
<path d="M52.778 34.0465C53.1691 34.0465 53.5108 34.1222 53.8032 34.2736C54.0956 34.4249 54.3211 34.6382 54.4797 34.9133C54.6417 35.1851 54.7227 35.4998 54.7227 35.8575C54.7227 36.2118 54.6417 36.5265 54.4797 36.8017C54.3211 37.0769 54.0939 37.2901 53.798 37.4415C53.5055 37.5928 53.1656 37.6685 52.778 37.6685H51.3882V34.0465H52.778ZM52.7199 36.9049C53.0616 36.9049 53.3276 36.8138 53.5179 36.6315C53.7081 36.4491 53.8032 36.1912 53.8032 35.8575C53.8032 35.5239 53.7081 35.2642 53.5179 35.0784C53.3276 34.8927 53.0616 34.7998 52.7199 34.7998H52.2919V36.9049H52.7199Z" fill="white"/>
</g>
<defs>
<filter id="filter0_dd_145_5776" x="0.824707" y="0.692749" width="88.9346" height="88.8492" filterUnits="userSpaceOnUse" color-interpolation-filters="sRGB">
<feFlood flood-opacity="0" result="BackgroundImageFix"/>
<feColorMatrix in="SourceAlpha" type="matrix" values="0 0 0 0 0 0 0 0 0 0 0 0 0 0 0 0 0 0 127 0" result="hardAlpha"/>
<feOffset dy="2"/>
<feGaussianBlur stdDeviation="1.5"/>
<feColorMatrix type="matrix" values="0 0 0 0 0 0 0 0 0 0 0 0 0 0 0 0 0 0 0.3 0"/>
<feBlend mode="normal" in2="BackgroundImageFix" result="effect1_dropShadow_145_5776"/>
<feColorMatrix in="SourceAlpha" type="matrix" values="0 0 0 0 0 0 0 0 0 0 0 0 0 0 0 0 0 0 127 0" result="hardAlpha"/>
<feMorphology radius="4" operator="dilate" in="SourceAlpha" result="effect2_dropShadow_145_5776"/>
<feOffset dy="6"/>
<feGaussianBlur stdDeviation="5"/>
<feColorMatrix type="matrix" values="0 0 0 0 0 0 0 0 0 0 0 0 0 0 0 0 0 0 0.15 0"/>
<feBlend mode="normal" in2="effect1_dropShadow_145_5776" result="effect2_dropShadow_145_5776"/>
<feBlend mode="normal" in="SourceGraphic" in2="effect2_dropShadow_145_5776" result="shape"/>
</filter>
</defs>
</svg>
