<svg width="62" height="62" viewBox="0 0 62 62" fill="none" xmlns="http://www.w3.org/2000/svg">
<g filter="url(#filter0_b_145_5738)">
<ellipse cx="31.2921" cy="31.1173" rx="30.4674" ry="30.4246" fill="url(#paint0_linear_145_5738)" fill-opacity="0.8"/>
<path d="M61.2595 31.1173C61.2595 47.6436 47.8433 61.0419 31.2921 61.0419C14.7409 61.0419 1.32471 47.6436 1.32471 31.1173C1.32471 14.5911 14.7409 1.19275 31.2921 1.19275C47.8433 1.19275 61.2595 14.5911 61.2595 31.1173Z" stroke="#7D7D7D" stroke-opacity="0.4"/>
</g>
<path d="M37.7001 18.0782H24.8845C24.4171 18.0782 24.0382 18.4566 24.0382 18.9233C24.0382 21.2571 22.1436 23.149 19.8066 23.149H19.2021C18.6679 23.149 18.2349 23.5814 18.2349 24.1148V25.3588C18.2349 33.384 22.5919 40.7784 29.6171 44.6758L30.1658 44.9803C30.8664 45.3689 31.7182 45.3689 32.4188 44.9803L32.9675 44.6758C39.9927 40.7784 44.3498 33.384 44.3498 25.3588V24.1148C44.3498 23.5814 43.9167 23.149 43.3825 23.149H42.778C40.441 23.149 38.5464 21.2571 38.5464 18.9233C38.5464 18.4566 38.1675 18.0782 37.7001 18.0782Z" stroke="#007ED9" stroke-width="2"/>
<path d="M24.8333 27.8111C25.0482 27.8558 25.2209 27.9607 25.3512 28.1258C25.4816 28.2875 25.5467 28.4732 25.5467 28.683C25.5467 28.9857 25.4375 29.2265 25.2191 29.4054C25.0042 29.5808 24.703 29.6685 24.3154 29.6685H22.5874V26.0465H24.2573C24.6343 26.0465 24.9284 26.1308 25.1398 26.2994C25.3547 26.4679 25.4622 26.6966 25.4622 26.9856C25.4622 27.1988 25.4041 27.376 25.2878 27.517C25.1751 27.658 25.0236 27.7561 24.8333 27.8111ZM23.4911 27.5118H24.0829C24.2309 27.5118 24.3436 27.4809 24.4211 27.419C24.5022 27.3536 24.5427 27.259 24.5427 27.1352C24.5427 27.0114 24.5022 26.9168 24.4211 26.8514C24.3436 26.7861 24.2309 26.7534 24.0829 26.7534H23.4911V27.5118ZM24.1569 28.9565C24.3084 28.9565 24.4247 28.9238 24.5057 28.8585C24.5902 28.7897 24.6325 28.6916 24.6325 28.5644C24.6325 28.4371 24.5885 28.3374 24.5004 28.2651C24.4158 28.1929 24.2978 28.1568 24.1463 28.1568H23.4911V28.9565H24.1569Z" fill="#007ED9"/>
<path d="M27.9627 29.6685L27.1912 28.3012H26.9745V29.6685H26.0709V26.0465H27.5875C27.8799 26.0465 28.1283 26.0964 28.3326 26.1962C28.5405 26.2959 28.6955 26.4335 28.7977 26.6089C28.8998 26.7809 28.9509 26.9735 28.9509 27.1868C28.9509 27.4276 28.8805 27.6425 28.7395 27.8317C28.6021 28.0209 28.3978 28.1551 28.1265 28.2342L28.9826 29.6685H27.9627ZM26.9745 27.6769H27.5347C27.7003 27.6769 27.8236 27.6374 27.9046 27.5583C27.9891 27.4792 28.0314 27.3674 28.0314 27.2229C28.0314 27.0853 27.9891 26.977 27.9046 26.8979C27.8236 26.8187 27.7003 26.7792 27.5347 26.7792H26.9745V27.6769Z" fill="#007ED9"/>
<path d="M31.8275 29.0287H30.443L30.221 29.6685H29.2751L30.6174 26.0465H31.6637L33.006 29.6685H32.0495L31.8275 29.0287ZM31.595 28.3477L31.1352 27.0217L30.6808 28.3477H31.595Z" fill="#007ED9"/>
<path d="M36.7332 29.6685H35.8295L34.3181 27.4344V29.6685H33.4145V26.0465H34.3181L35.8295 28.2909V26.0465H36.7332V29.6685Z" fill="#007ED9"/>
<path d="M38.778 26.0465C39.1691 26.0465 39.5108 26.1222 39.8032 26.2736C40.0956 26.4249 40.3211 26.6382 40.4797 26.9133C40.6417 27.1851 40.7227 27.4998 40.7227 27.8575C40.7227 28.2118 40.6417 28.5265 40.4797 28.8017C40.3211 29.0769 40.0939 29.2901 39.798 29.4415C39.5055 29.5928 39.1656 29.6685 38.778 29.6685H37.3882V26.0465H38.778ZM38.7199 28.9049C39.0616 28.9049 39.3276 28.8138 39.5179 28.6315C39.7081 28.4491 39.8032 28.1912 39.8032 27.8575C39.8032 27.5239 39.7081 27.2642 39.5179 27.0784C39.3276 26.8927 39.0616 26.7998 38.7199 26.7998H38.2919V28.9049H38.7199Z" fill="#007ED9"/>
<defs>
<filter id="filter0_b_145_5738" x="-49.1753" y="-49.3073" width="160.935" height="160.849" filterUnits="userSpaceOnUse" color-interpolation-filters="sRGB">
<feFlood flood-opacity="0" result="BackgroundImageFix"/>
<feGaussianBlur in="BackgroundImageFix" stdDeviation="25"/>
<feComposite in2="SourceAlpha" operator="in" result="effect1_backgroundBlur_145_5738"/>
<feBlend mode="normal" in="SourceGraphic" in2="effect1_backgroundBlur_145_5738" result="shape"/>
</filter>
<linearGradient id="paint0_linear_145_5738" x1="31.2921" y1="0.692749" x2="31.2921" y2="61.5419" gradientUnits="userSpaceOnUse">
<stop stop-color="white"/>
<stop offset="0.545" stop-color="white" stop-opacity="0.455"/>
<stop offset="1" stop-color="white" stop-opacity="0"/>
</linearGradient>
</defs>
</svg>
