<svg width="124" height="129" viewBox="0 0 124 129" fill="none" xmlns="http://www.w3.org/2000/svg">
<g clip-path="url(#clip0_156_1094)">
<path d="M62.0729 109.463C32.3172 109.463 8.10909 85.0093 8.10909 54.9581C8.10909 24.907 32.3172 0.466309 62.0729 0.466309C91.8287 0.466309 116.037 24.9203 116.037 54.9581C116.037 84.996 91.8287 109.463 62.0729 109.463Z" fill="white"/>
<path d="M62.0729 0C32.0119 0 7.63129 24.6139 7.63129 54.9716C7.63129 85.3292 31.9986 109.943 62.0729 109.943C92.1472 109.943 116.515 85.3292 116.515 54.9716C116.515 24.6139 92.1339 0 62.0729 0ZM62.0729 0.946178C91.5765 0.946178 115.572 25.187 115.572 54.9716C115.572 84.7562 91.5765 108.997 62.0729 108.997C47.779 108.997 34.3478 103.373 24.2478 93.1785C14.1478 82.9705 8.5736 69.4041 8.5736 54.9716C8.5736 25.1737 32.5693 0.946178 62.0729 0.946178Z" fill="#2075BC"/>
<mask id="mask0_156_1094" style="mask-type:luminance" maskUnits="userSpaceOnUse" x="20" y="27" width="83" height="83">
<path d="M20.8634 68.7113C20.8634 91.4862 39.1389 109.943 61.688 109.943C84.2371 109.943 102.513 91.4862 102.513 68.7113C102.513 45.9364 84.2371 27.4792 61.688 27.4792C39.1389 27.4792 20.8634 45.9364 20.8634 68.7113Z" fill="white"/>
</mask>
<g mask="url(#mask0_156_1094)">
<path d="M102.513 27.4792H20.8634V109.943H102.513V27.4792Z" fill="url(#paint0_linear_156_1094)"/>
</g>
<path d="M38.7939 68.5512L37.2145 73.9085H41.9526L40.3998 68.5779C39.776 66.4323 39.6433 65.2463 39.6433 65.2463H39.5902C39.5636 65.3262 39.4044 66.5123 38.7939 68.5512ZM43.2002 77.9064H35.9537L34.7326 81.7044H29.53L36.75 60.6753H42.8551L50.1547 81.7044H44.4079L43.2134 77.9064H43.2002Z" fill="white"/>
<path d="M48.509 60.6619H54.2557L57.9586 73.3087C58.5558 75.2943 58.5824 76.3871 58.5824 76.3871H58.6355C58.6355 76.3871 58.7416 75.281 59.2858 73.3353L63.0683 60.6619H68.2975L61.5686 81.7043H55.2777L48.4957 60.6619H48.509Z" fill="white"/>
<path d="M79.7512 66.4057C79.6981 65.3662 78.9018 64.3134 77.2693 64.3134C75.8227 64.3134 74.814 65.0331 74.814 66.2324C74.814 67.3652 75.4112 68.0182 77.1897 68.3513L80.4546 68.951C83.9716 69.6173 85.9492 71.6163 85.9492 74.7747C85.9492 79.6388 82.6577 82.1176 77.1499 82.1176C71.642 82.1176 68.762 80.1053 68.5496 75.6009H74.2964C74.4556 77.2001 75.5439 78.1596 77.2958 78.1596C79.1407 78.1596 80.2024 77.2001 80.2024 75.9607C80.2024 74.7214 79.5255 74.1217 77.5613 73.7619L74.3495 73.1355C71.6287 72.5891 69.0938 70.7368 69.0938 67.0853C69.0938 63.2073 71.9207 60.3555 77.2958 60.3555C83.1222 60.3555 85.2723 62.9941 85.3785 66.4057H79.7379H79.7512Z" fill="white"/>
<path d="M93.8858 60.6619H88.3514V81.7043H93.8858V60.6619Z" fill="white"/>
<path d="M2.78702 122.883C3.68952 122.883 4.20712 122.417 4.20712 121.457C4.20712 120.458 3.68952 120.058 2.81357 120.058H1.73854V122.883H2.78702ZM1.73854 124.176V126.974H-9.15527e-05V118.792H2.81357C4.57874 118.792 5.90593 119.538 5.90593 121.431C5.90593 123.416 4.47256 124.176 2.66757 124.176H1.73854Z" fill="#2075BC"/>
<path d="M10.3388 123.47C10.2857 122.657 9.96716 122.177 9.3301 122.177C8.63996 122.177 8.28162 122.67 8.20199 123.55H10.3388V123.47ZM9.31683 127.134C7.4853 127.134 6.50317 125.948 6.50317 124.109C6.50317 122.27 7.53839 121.111 9.3301 121.111C11.2413 121.111 12.0509 122.39 12.0509 124.069V124.522H8.18871C8.26835 125.549 8.63996 126.002 9.35665 126.002C10.0202 126.002 10.2326 125.668 10.3388 125.322H11.9978C11.8252 126.428 10.8431 127.134 9.30356 127.134" fill="#2075BC"/>
<path d="M14.6123 124.123C14.6123 125.229 14.9309 125.988 15.7537 125.988C16.5766 125.988 16.8819 125.175 16.8819 124.123C16.8819 123.07 16.5899 122.257 15.7537 122.257C14.9176 122.257 14.6123 123.057 14.6123 124.123ZM12.8737 124.123C12.8737 122.244 13.9753 121.111 15.7537 121.111C17.5322 121.111 18.6205 122.217 18.6205 124.123C18.6205 126.028 17.4393 127.134 15.7405 127.134C13.9487 127.134 12.8737 125.988 12.8737 124.123Z" fill="#2075BC"/>
<path d="M22.5224 125.988C23.2657 125.988 23.6904 125.349 23.6904 124.123C23.6904 122.897 23.3188 122.297 22.5092 122.297C21.8456 122.297 21.3545 122.87 21.3545 123.816V124.442C21.3545 125.349 21.7394 126.002 22.5224 126.002M19.6955 121.257H21.3147V122.19H21.3412C21.6067 121.684 22.2039 121.137 23.133 121.137C24.4469 121.137 25.4157 121.99 25.4157 124.109C25.4157 126.028 24.4469 127.134 22.9737 127.134C22.1641 127.134 21.6465 126.721 21.4209 126.281H21.3943V129.013H19.7088V121.271L19.6955 121.257Z" fill="#2075BC"/>
<path d="M28.1763 118.552H26.4908V126.988H28.1763V118.552Z" fill="#2075BC"/>
<path d="M33.0869 123.47C33.0338 122.657 32.7153 122.177 32.0783 122.177C31.3881 122.177 31.0298 122.67 30.9501 123.55H33.0869V123.47ZM32.065 127.134C30.2335 127.134 29.2513 125.948 29.2513 124.109C29.2513 122.27 30.2865 121.111 32.0783 121.111C33.9894 121.111 34.799 122.39 34.799 124.069V124.522H30.9369C31.0165 125.549 31.3881 126.002 32.1048 126.002C32.7684 126.002 32.9807 125.668 33.0869 125.322H34.7459C34.5734 126.428 33.5913 127.134 32.0517 127.134" fill="#2075BC"/>
<path d="M40.2936 126.988H38.6479V122.43H37.8383V121.257H38.6479V120.511C38.6479 118.992 39.4575 118.499 40.6918 118.499C41.1297 118.499 41.4615 118.552 41.5146 118.565V119.751C41.5146 119.751 41.3023 119.725 41.0501 119.725C40.559 119.725 40.2936 119.925 40.2936 120.578V121.257H41.4084V122.43H40.2936V126.988Z" fill="#2075BC"/>
<path d="M43.6514 124.123C43.6514 125.229 43.9699 125.988 44.7928 125.988C45.6157 125.988 45.9209 125.175 45.9209 124.123C45.9209 123.07 45.6289 122.257 44.7928 122.257C43.9567 122.257 43.6514 123.057 43.6514 124.123ZM41.9128 124.123C41.9128 122.244 43.0144 121.111 44.7928 121.111C46.5712 121.111 47.6595 122.217 47.6595 124.123C47.6595 126.028 46.4783 127.134 44.7795 127.134C42.9878 127.134 41.9128 125.988 41.9128 124.123Z" fill="#2075BC"/>
<path d="M48.7346 121.257H50.3272V122.47H50.3538C50.6723 121.604 51.4686 121.164 52.2251 121.164H52.318V122.71H52.026C51.0041 122.71 50.4201 123.056 50.4201 124.163V127.001H48.7478V121.271L48.7346 121.257Z" fill="#2075BC"/>
<path d="M59.4451 123.869C59.4451 122.857 58.9938 122.297 58.3037 122.297C57.5472 122.297 57.0826 122.897 57.0826 124.149C57.0826 125.309 57.4277 126.002 58.2638 126.002C59.0336 126.002 59.4451 125.375 59.4451 124.562V123.883V123.869ZM61.104 126.988H59.4981V126.148H59.4716C59.1796 126.655 58.662 127.148 57.7728 127.148C56.2731 127.148 55.3573 126.188 55.3573 124.203C55.3573 122.217 56.4323 121.137 57.8391 121.137C58.5691 121.137 59.1265 121.484 59.392 122.017H59.4185V118.565H61.104V127.001V126.988Z" fill="#2075BC"/>
<path d="M66.0147 123.47C65.9616 122.657 65.6431 122.177 65.006 122.177C64.3159 122.177 63.9575 122.67 63.8779 123.55H66.0147V123.47ZM64.9927 127.134C63.1612 127.134 62.1791 125.948 62.1791 124.109C62.1791 122.27 63.2143 121.111 65.006 121.111C66.9172 121.111 67.7268 122.39 67.7268 124.069V124.522H63.8646C63.9442 125.549 64.3159 126.002 65.0326 126.002C65.6962 126.002 65.9085 125.668 66.0147 125.322H67.6737C67.5011 126.428 66.519 127.134 64.9795 127.134" fill="#2075BC"/>
<path d="M68.1116 121.257H69.8105L70.7262 124.162C70.9253 124.789 71.0448 125.442 71.0448 125.442H71.0713C71.0713 125.442 71.1907 124.802 71.3898 124.162L72.3056 121.257H73.9248L71.8942 126.988H70.1555L68.1382 121.257H68.1116Z" fill="#2075BC"/>
<path d="M78.1187 123.47C78.0656 122.657 77.7471 122.177 77.11 122.177C76.4199 122.177 76.0616 122.67 75.9819 123.55H78.1187V123.47ZM77.0968 127.134C75.2652 127.134 74.2831 125.948 74.2831 124.109C74.2831 122.27 75.3183 121.111 77.11 121.111C79.0212 121.111 79.8308 122.39 79.8308 124.069V124.522H75.9687C76.0483 125.549 76.4199 126.002 77.1366 126.002C77.8002 126.002 78.0125 125.668 78.1187 125.322H79.7777C79.6052 126.428 78.623 127.134 77.0835 127.134" fill="#2075BC"/>
<path d="M82.6046 118.552H80.9191V126.988H82.6046V118.552Z" fill="#2075BC"/>
<path d="M85.405 124.123C85.405 125.229 85.7235 125.988 86.5464 125.988C87.3693 125.988 87.6745 125.175 87.6745 124.123C87.6745 123.07 87.3825 122.257 86.5464 122.257C85.7103 122.257 85.405 123.057 85.405 124.123ZM83.6664 124.123C83.6664 122.244 84.768 121.111 86.5464 121.111C88.3249 121.111 89.4132 122.217 89.4132 124.123C89.4132 126.028 88.2319 127.134 86.5331 127.134C84.7414 127.134 83.6664 125.988 83.6664 124.123Z" fill="#2075BC"/>
<path d="M93.3151 125.988C94.0583 125.988 94.4831 125.349 94.4831 124.123C94.4831 122.897 94.1114 122.297 93.3019 122.297C92.6383 122.297 92.1472 122.87 92.1472 123.816V124.442C92.1472 125.349 92.5321 126.002 93.3151 126.002M90.4882 121.257H92.1074V122.19H92.1339C92.3994 121.684 92.9966 121.137 93.9256 121.137C95.2395 121.137 96.2084 121.99 96.2084 124.109C96.2084 126.028 95.2396 127.134 93.7664 127.134C92.9568 127.134 92.4392 126.721 92.2135 126.281H92.187V129.013H90.5015V121.271L90.4882 121.257Z" fill="#2075BC"/>
<path d="M97.2834 121.257H98.9026V122.203H98.9292C99.2211 121.644 99.7918 121.151 100.734 121.151C101.783 121.151 102.287 121.617 102.499 122.337H102.526C102.751 121.804 103.362 121.151 104.397 121.151C105.738 121.151 106.308 121.87 106.308 123.283V127.001H104.623V123.643C104.623 123.23 104.596 122.91 104.45 122.696C104.304 122.457 104.052 122.363 103.747 122.363C103.043 122.363 102.645 122.843 102.645 123.683V127.001H100.96V123.643C100.96 123.23 100.933 122.91 100.787 122.696C100.641 122.47 100.389 122.363 100.071 122.363C99.3671 122.363 98.969 122.843 98.969 123.669V127.001H97.2834V121.271V121.257Z" fill="#2075BC"/>
<path d="M111.192 123.47C111.139 122.657 110.821 122.177 110.184 122.177C109.494 122.177 109.135 122.67 109.056 123.55H111.192V123.47ZM110.171 127.134C108.339 127.134 107.357 125.948 107.357 124.109C107.357 122.27 108.392 121.111 110.184 121.111C112.095 121.111 112.905 122.39 112.905 124.069V124.522H109.042C109.122 125.549 109.494 126.002 110.21 126.002C110.874 126.002 111.086 125.668 111.192 125.322H112.851C112.679 126.428 111.697 127.134 110.157 127.134" fill="#2075BC"/>
<path d="M117.722 123.643C117.722 123.243 117.696 122.91 117.55 122.683C117.39 122.457 117.138 122.35 116.82 122.35C116.063 122.35 115.678 122.83 115.678 123.669V126.988H113.993V121.257H115.612V122.203H115.639C115.944 121.63 116.501 121.151 117.483 121.151C118.85 121.151 119.408 121.87 119.408 123.283V127.001H117.722V123.656V123.643Z" fill="#2075BC"/>
<path d="M122.713 119.632V121.244H123.987V122.417H122.739V124.949C122.739 125.522 122.951 125.788 123.522 125.788C123.721 125.788 124 125.748 124 125.748V126.988C123.774 127.014 123.35 127.054 122.872 127.054C121.757 127.054 121.067 126.575 121.067 125.282V122.43H120.231V121.271H120.416C121.133 121.271 121.266 121.124 121.266 120.085V119.645H122.713V119.632Z" fill="#2075BC"/>
</g>
<defs>
<linearGradient id="paint0_linear_156_1094" x1="60.514" y1="61.8211" x2="60.514" y2="-25.2997" gradientUnits="userSpaceOnUse">
<stop stop-color="#1C76BC"/>
<stop offset="0.22" stop-color="#148593"/>
<stop offset="0.43" stop-color="#0E9173"/>
<stop offset="0.64" stop-color="#0A9A5C"/>
<stop offset="0.83" stop-color="#079F4E"/>
<stop offset="1" stop-color="#07A14A"/>
</linearGradient>
<clipPath id="clip0_156_1094">
<rect width="124" height="129" fill="white"/>
</clipPath>
</defs>
</svg>
