<svg width="90" height="90" viewBox="0 0 90 90" fill="none" xmlns="http://www.w3.org/2000/svg">
<g filter="url(#filter0_dd_145_5731)">
<ellipse cx="45.3448" cy="39.1173" rx="30.4674" ry="30.4246" fill="#FF4D0B"/>
<path d="M48.8584 52.2026C48.8357 53.1168 48.8513 54.0296 48.8371 54.9439C48.8228 55.9082 48.2406 56.4956 47.3066 56.4985C45.9925 56.503 44.6813 56.5059 43.3672 56.4971C42.4703 56.4927 41.888 55.8596 41.8766 54.9365C41.8724 54.6627 41.9521 54.5847 42.2155 54.5876C43.7175 54.5994 45.218 54.592 46.7215 54.592H46.9493C47.5145 54.5891 47.7921 54.3844 47.785 53.9766C47.7764 53.5835 47.5045 53.3833 46.9663 53.3833C45.4003 53.3818 43.8356 53.376 42.2696 53.3877C41.9863 53.3892 41.8496 53.3288 41.8852 53.0035C41.9122 52.7591 41.9108 52.5073 41.8894 52.2615C41.8638 51.9611 41.9535 51.8566 42.2624 51.864C43.3089 51.8846 44.3581 51.8728 45.4045 51.8728C46.451 51.8728 47.4746 51.8802 48.5096 51.8654C48.7574 51.864 48.8656 51.9052 48.857 52.1996L48.8584 52.2026Z" fill="white"/>
<path d="M47.9227 40.6853C47.9071 40.9842 47.9071 41.2845 47.9227 41.5864C47.9356 41.8263 47.8473 41.9044 47.6181 41.8999C46.8607 41.8882 46.1047 41.8955 45.3473 41.8955C44.5899 41.8955 43.8581 41.8882 43.1135 41.8999C42.8814 41.9029 42.7946 41.8204 42.8131 41.5819C42.8401 41.1947 42.665 40.7045 42.8828 40.4424C43.0936 40.1907 43.5705 40.3659 43.9307 40.3629C45.1551 40.3526 46.378 40.3659 47.6024 40.3526C47.8558 40.3512 47.9384 40.4307 47.9242 40.6853H47.9227Z" fill="white"/>
<path d="M46.461 39.1837H45.3291C44.7881 39.1837 44.2471 39.1763 43.7061 39.1866C43.5125 39.1896 43.4498 39.1233 43.4399 38.9216C43.3886 37.9956 43.3829 37.9985 44.2742 37.9985C45.1654 37.9985 46.0865 38.0059 46.9934 37.9941C47.2184 37.9912 47.2938 38.0559 47.2981 38.3003C47.3152 39.1851 47.3251 39.1851 46.4624 39.1851L46.461 39.1837Z" fill="white"/>
<path d="M48.7229 33.8675C48.1235 34.6389 47.7035 35.509 47.4743 36.4718C47.4173 36.7118 47.3191 36.8031 47.0671 36.7987C45.9438 36.7825 44.8205 36.7854 43.6972 36.7972C43.4481 36.7987 43.3569 36.7192 43.3043 36.4571C43.1092 35.4692 42.6835 34.5888 42.0386 33.8292C41.9147 33.6834 41.8279 33.573 41.9432 33.3581C42.7319 31.8844 43.6075 30.4696 44.5956 29.1298C44.6312 29.0827 44.6724 29.0415 44.7223 28.9885C44.8205 29.1284 44.7792 29.2609 44.7792 29.3845C44.7821 30.7934 44.7821 32.2024 44.7821 33.6128C44.7821 33.7821 44.7721 33.9528 44.839 34.1133C44.9373 34.3518 45.1124 34.4828 45.3672 34.4828C45.6221 34.4828 45.7957 34.3503 45.894 34.1118C45.958 33.9514 45.9509 33.7806 45.9509 33.6113C45.9509 32.2274 45.9495 30.845 45.9538 29.4611C45.9538 29.3242 45.9153 29.1784 46.0093 29.0135C46.5019 29.626 46.9162 30.2737 47.3333 30.9142C47.8402 31.693 48.3015 32.5012 48.7528 33.3154C48.8681 33.523 48.8766 33.6716 48.7214 33.8689L48.7229 33.8675Z" fill="white"/>
<path d="M56.2244 33.7055C56.2244 33.8027 56.2229 33.8999 56.2215 33.9956C56.2201 34.0927 56.2144 34.1899 56.2116 34.2841C56.1446 35.7225 55.8371 37.0902 55.3146 38.3386C54.7822 39.5606 54.0347 40.6589 53.1321 41.6717C52.3975 42.4977 51.8593 43.4237 51.4991 44.4381C51.2841 45.0476 51.1318 45.688 51.0407 46.3549C50.9168 47.2515 50.9809 48.1525 50.9652 49.0535C50.9496 49.9471 50.4171 50.5758 49.5871 50.6891C49.0916 50.7554 49.0717 50.7392 49.0717 50.2342V45.5761C49.0717 45.1433 49.0717 44.709 49.0731 44.2761C49.0717 43.0498 49.0731 41.8234 49.0746 40.5985C49.0746 40.1745 49.0034 39.7829 48.6716 39.5061C48.4923 39.3559 48.4396 39.1925 48.4552 38.9687C48.4695 38.7612 48.4695 38.5492 48.4552 38.3416C48.3556 36.809 48.8852 35.5105 49.8135 34.3518C50.1936 33.8778 50.2121 33.6113 49.9288 33.0681C48.8866 31.0791 47.6751 29.2049 46.304 27.4427C45.7189 26.6904 45.007 26.6963 44.4091 27.4544C43.0338 29.1976 41.8294 31.0599 40.81 33.0474C40.5096 33.6304 40.5423 33.9058 40.9794 34.3783C41.4948 34.9334 41.8664 35.5782 42.0913 36.3099C42.3817 37.2536 42.2479 38.2267 42.2764 39.1866C42.2792 39.3103 42.2038 39.3707 42.1241 39.4369C41.7852 39.7225 41.6585 40.0979 41.6599 40.5425C41.6671 41.791 41.6628 43.0394 41.6628 44.2894V48.4543C41.6628 49.0344 41.8621 49.3362 42.2408 49.3376C42.6209 49.3406 42.8131 49.0476 42.8131 48.4558V45.9029C42.8131 45.4833 42.8131 45.0638 42.8117 44.6456C42.8131 44.2452 42.8117 43.8433 42.8117 43.4428C42.8103 43.2249 42.816 43.0792 43.1036 43.0821C44.617 43.0954 46.1332 43.091 47.648 43.0851C47.8317 43.0851 47.9228 43.1278 47.9214 43.3442C47.9199 43.7756 47.9199 44.204 47.9199 44.6339C47.9185 45.0549 47.9185 45.4745 47.9199 45.8941C47.9171 47.4075 47.9185 48.921 47.9214 50.4344C47.9228 50.6435 47.8445 50.698 47.6537 50.698C45.5324 50.6906 43.4111 50.7068 41.2898 50.6862C40.4469 50.6788 39.8547 50.0531 39.8063 49.1742C39.7807 48.706 39.7849 48.2349 39.7835 47.7653C39.7792 46.5787 39.5813 45.473 39.2041 44.4425C38.794 43.3251 38.1662 42.2945 37.3362 41.3376C35.3914 39.1057 34.4247 36.5558 34.4646 33.7291V33.7055C34.4646 33.6731 34.4646 33.6422 34.466 33.6098C34.4802 32.9517 34.55 32.2789 34.6738 31.5914C35.6306 26.3002 40.1437 22.5755 45.1281 22.4592C45.2007 22.4562 45.2719 22.4562 45.3445 22.4562H45.4242C45.5039 22.4562 45.5808 22.4577 45.6605 22.4607L45.904 22.471C45.9809 22.4739 46.0592 22.4798 46.1346 22.4857L46.3368 22.5019C46.4293 22.5107 46.519 22.5195 46.6116 22.5313C46.7084 22.5431 46.8066 22.5563 46.9063 22.5711L46.9333 22.574C47.0187 22.5873 47.1042 22.6005 47.1882 22.6182C47.3319 22.6432 47.4743 22.6727 47.6181 22.705C47.9641 22.7801 48.3029 22.8758 48.6361 22.9848C48.6603 22.9936 48.683 22.9995 48.7072 23.0083C48.8154 23.0451 48.9236 23.0834 49.0304 23.1217C49.1742 23.1747 49.318 23.2306 49.459 23.291C49.5316 23.319 49.6042 23.3514 49.6768 23.3852L49.9003 23.4868C50.0469 23.556 50.1922 23.6281 50.336 23.7062C50.3986 23.74 50.4598 23.7724 50.5239 23.8077C50.5253 23.8092 50.5282 23.8107 50.5324 23.8107C50.5908 23.8445 50.6506 23.8769 50.709 23.9123C51.5646 24.4172 52.3491 25.0356 53.0396 25.7496C55.0071 27.7857 56.2258 30.5977 56.2258 33.7055H56.2244Z" fill="white"/>
</g>
<defs>
<filter id="filter0_dd_145_5731" x="0.877441" y="0.692749" width="88.9346" height="88.8492" filterUnits="userSpaceOnUse" color-interpolation-filters="sRGB">
<feFlood flood-opacity="0" result="BackgroundImageFix"/>
<feColorMatrix in="SourceAlpha" type="matrix" values="0 0 0 0 0 0 0 0 0 0 0 0 0 0 0 0 0 0 127 0" result="hardAlpha"/>
<feOffset dy="2"/>
<feGaussianBlur stdDeviation="1.5"/>
<feColorMatrix type="matrix" values="0 0 0 0 0 0 0 0 0 0 0 0 0 0 0 0 0 0 0.3 0"/>
<feBlend mode="normal" in2="BackgroundImageFix" result="effect1_dropShadow_145_5731"/>
<feColorMatrix in="SourceAlpha" type="matrix" values="0 0 0 0 0 0 0 0 0 0 0 0 0 0 0 0 0 0 127 0" result="hardAlpha"/>
<feMorphology radius="4" operator="dilate" in="SourceAlpha" result="effect2_dropShadow_145_5731"/>
<feOffset dy="6"/>
<feGaussianBlur stdDeviation="5"/>
<feColorMatrix type="matrix" values="0 0 0 0 0 0 0 0 0 0 0 0 0 0 0 0 0 0 0.15 0"/>
<feBlend mode="normal" in2="effect1_dropShadow_145_5731" result="effect2_dropShadow_145_5731"/>
<feBlend mode="normal" in="SourceGraphic" in2="effect2_dropShadow_145_5731" result="shape"/>
</filter>
</defs>
</svg>
