<svg width="62" height="62" viewBox="0 0 62 62" fill="none" xmlns="http://www.w3.org/2000/svg">
<g filter="url(#filter0_b_145_5773)">
<ellipse cx="31.3448" cy="31.1173" rx="30.4674" ry="30.4246" fill="url(#paint0_linear_145_5773)" fill-opacity="0.8"/>
<path d="M61.3122 31.1173C61.3122 47.6436 47.896 61.0419 31.3448 61.0419C14.7936 61.0419 1.37744 47.6436 1.37744 31.1173C1.37744 14.5911 14.7936 1.19275 31.3448 1.19275C47.896 1.19275 61.3122 14.5911 61.3122 31.1173Z" stroke="#7D7D7D" stroke-opacity="0.4"/>
</g>
<path d="M40.8602 30.3988C40.3412 31.6158 39.6109 32.714 38.6963 33.643C39.5916 32.657 40.3316 31.5865 40.8602 30.3988Z" fill="#FF4D0B"/>
<path d="M42.4937 22.586C42.4553 22.4477 42.4153 22.311 42.3704 22.1759C41.7842 20.3114 40.7655 18.6421 39.4345 17.2917C37.2706 15.092 34.2802 13.7318 30.9759 13.7318C27.6715 13.7318 24.6811 15.092 22.5172 17.2917C20.3517 19.4898 19.0127 22.529 19.0127 25.8839C19.0127 29.2387 20.3005 32.1624 22.3955 34.3491C23.2492 35.3025 23.8002 36.4235 24.1109 37.6796C24.3688 38.7323 24.3095 39.7996 24.3256 40.8652C24.3464 42.0855 25.0175 43.0487 26.1451 43.4359C26.3838 43.5189 26.4302 43.636 26.427 43.8687C26.4126 44.7961 26.4142 45.7251 26.419 46.6525C26.4254 48.12 27.5146 49.2199 28.9673 49.2247C30.3063 49.228 31.647 49.228 32.986 49.2247C34.4756 49.2215 35.5631 48.12 35.5728 46.6037C35.5792 45.6893 35.5872 44.7733 35.5696 43.8589C35.5664 43.61 35.6416 43.5156 35.8675 43.4391C36.8221 43.1121 37.4035 42.4337 37.6213 41.4347C37.7319 40.9303 37.679 40.4194 37.671 39.9135C37.6582 38.9665 37.7447 38.0392 38.0186 37.1313C38.3982 35.8736 39.1462 34.8633 39.9903 33.8871C42.7116 30.7372 43.5861 26.468 42.4937 22.586ZM34.4387 46.5679C34.4243 47.5066 33.8477 48.0793 32.9219 48.0826C31.6197 48.0875 30.3192 48.0891 29.017 48.081C28.128 48.0761 27.5498 47.4595 27.5386 46.5614C27.5338 46.2945 27.6139 46.2181 27.8749 46.2213C29.3645 46.2327 30.8525 46.2262 32.3421 46.2262H32.568C33.1286 46.2229 33.404 46.0244 33.396 45.6275C33.388 45.2451 33.1173 45.0499 32.584 45.0499C31.0319 45.0483 29.4799 45.0434 27.9278 45.0548C27.6475 45.0564 27.5114 44.9978 27.5466 44.6805C27.5738 44.443 27.5722 44.1973 27.5514 43.9582C27.5258 43.6653 27.6155 43.5644 27.9214 43.5709C28.9593 43.5905 29.9988 43.5791 31.0367 43.5791C32.0746 43.5791 33.0885 43.5856 34.1152 43.5726C34.3603 43.5726 34.4676 43.6116 34.4596 43.898C34.4371 44.7879 34.4532 45.6779 34.4387 46.5679ZM28.5332 32.4455C28.7415 32.1999 29.2156 32.3707 29.5728 32.3674C30.7869 32.3577 31.9993 32.3707 33.2134 32.3577C33.4649 32.3561 33.5466 32.4342 33.5322 32.6815C33.5162 32.9727 33.5162 33.2655 33.5322 33.5584C33.545 33.7927 33.4569 33.8675 33.2295 33.8643C32.4783 33.8529 31.7287 33.8594 30.9775 33.8594C30.2263 33.8594 29.5007 33.8529 28.7623 33.8643C28.5316 33.8675 28.4468 33.7862 28.4644 33.5552C28.4916 33.1777 28.317 32.701 28.5332 32.4455ZM30.4185 25.7928C30.4185 25.9571 30.4088 26.1247 30.4745 26.2809C30.5722 26.5135 30.7452 26.6404 30.9983 26.6404C31.2513 26.6404 31.4227 26.5119 31.5204 26.2792C31.5845 26.123 31.5765 25.9571 31.5765 25.7911C31.5765 24.444 31.5749 23.0968 31.5797 21.7497C31.5797 21.6163 31.5413 21.4747 31.6342 21.3136C32.1227 21.9107 32.5327 22.5404 32.9476 23.1652C33.4505 23.9233 33.907 24.7108 34.3555 25.5032C34.4692 25.7049 34.4788 25.8497 34.325 26.0417C33.7308 26.7934 33.3143 27.641 33.0869 28.5782C33.0308 28.8125 32.9331 28.9003 32.6833 28.8971C31.5701 28.8808 30.4553 28.884 29.3421 28.8954C29.0954 28.8971 29.0042 28.819 28.9529 28.5635C28.7591 27.602 28.3378 26.7446 27.6988 26.0043C27.5754 25.8627 27.4905 25.7553 27.6043 25.5455C28.3859 24.1104 29.254 22.7324 30.2343 21.4275C30.2695 21.382 30.3111 21.3413 30.3592 21.2892C30.4569 21.4259 30.4153 21.5544 30.4153 21.6748C30.4185 23.0464 30.4185 24.4196 30.4185 25.7928ZM32.0826 31.2188H30.9598C30.4233 31.2188 29.8867 31.2123 29.3501 31.222C29.1579 31.2253 29.0954 31.1602 29.0858 30.9634C29.0346 30.062 29.0298 30.0636 29.9123 30.0636C30.7949 30.0636 31.7094 30.0701 32.608 30.0587C32.8306 30.0555 32.9059 30.1189 32.9107 30.3565C32.9283 31.2188 32.9379 31.2188 32.0826 31.2188ZM37.0768 36.3389C36.8637 36.9312 36.7132 37.5543 36.6219 38.2035C36.4985 39.0772 36.5626 39.9541 36.5466 40.8311C36.5306 41.7015 36.0036 42.3133 35.1803 42.4239C34.6886 42.489 34.6694 42.4727 34.6694 41.9814V37.4453C34.6694 37.0239 34.6694 36.6009 34.671 36.1795C34.6694 34.9853 34.671 33.7911 34.6726 32.5985C34.6726 32.1852 34.6021 31.8045 34.2738 31.5344C34.096 31.388 34.0431 31.2285 34.0591 31.0105C34.0736 30.8088 34.0736 30.6022 34.0591 30.4004C33.9598 28.9085 34.4852 27.6427 35.4062 26.5151C35.7826 26.0531 35.8018 25.7944 35.5199 25.2656C34.4868 23.3279 33.2855 21.504 31.9257 19.7875C31.3458 19.0554 30.6395 19.0603 30.0469 19.7989C28.6838 21.4959 27.4889 23.31 26.4783 25.2461C26.1803 25.8139 26.2124 26.0824 26.6464 26.5428C27.1574 27.083 27.5258 27.711 27.7484 28.4236C28.0367 29.3429 27.9038 30.2898 27.9326 31.2253C27.9358 31.3457 27.8605 31.4043 27.782 31.4693C27.4457 31.7476 27.3208 32.1136 27.3224 32.5464C27.3288 33.7618 27.3256 34.9788 27.3256 36.1958V40.2519C27.3256 40.8164 27.5226 41.1109 27.899 41.1125C28.2754 41.1158 28.466 40.8294 28.466 40.2535V37.7674C28.466 37.3591 28.466 36.9507 28.4644 36.5423C28.466 36.1518 28.4644 35.7614 28.4644 35.3709C28.4628 35.1594 28.4692 35.0162 28.7543 35.0194C30.2551 35.0325 31.7575 35.0276 33.2599 35.0227C33.4425 35.0227 33.5322 35.065 33.5306 35.2749C33.529 35.6947 33.529 36.1128 33.529 36.5309C33.5274 36.9409 33.5274 37.3493 33.529 37.7577C33.5258 39.2317 33.5274 40.7058 33.5306 42.1799C33.5322 42.3832 33.4537 42.4369 33.2647 42.4369C31.1617 42.4304 29.0586 42.4451 26.9556 42.4255C26.1195 42.419 25.5333 41.8089 25.4852 40.9531C25.4596 40.4975 25.4644 40.0387 25.4628 39.5815C25.458 38.4264 25.2626 37.3493 24.8878 36.3455C24.4809 35.257 23.8595 34.2531 23.0362 33.3209C21.1077 31.1423 20.1499 28.6595 20.1899 25.9066V25.8839C20.1899 25.853 20.19 25.822 20.1916 25.7911C20.206 25.1501 20.2748 24.4944 20.3982 23.8257C21.3448 18.6714 25.82 15.0432 30.7612 14.9309C30.8333 14.9277 30.9038 14.9277 30.9759 14.9277H31.0543C31.1328 14.9277 31.2097 14.9293 31.2882 14.9326L31.53 14.9423C31.6069 14.9456 31.6838 14.9505 31.7591 14.957L31.9593 14.9732C32.0506 14.9814 32.1403 14.9911 32.2316 15.0025C32.3277 15.0139 32.4254 15.0269 32.5231 15.0416L32.5503 15.0448C32.6352 15.0578 32.7201 15.0709 32.8034 15.0871C32.946 15.1115 33.0869 15.1408 33.2295 15.1717C33.5722 15.2449 33.9086 15.3377 34.2385 15.4434C34.2626 15.4516 34.285 15.4581 34.309 15.4662C34.4163 15.502 34.5236 15.5394 34.6294 15.5769C34.7719 15.6289 34.9145 15.6826 35.0538 15.7412C35.1259 15.7688 35.198 15.7998 35.27 15.8323L35.4911 15.9315C35.6368 15.9982 35.781 16.0698 35.9235 16.1447C35.986 16.1772 36.0469 16.2098 36.1093 16.2439C36.1093 16.2455 36.1141 16.2472 36.1173 16.2472C36.175 16.2797 36.2343 16.3123 36.2919 16.3464C37.1408 16.8378 37.9177 17.4398 38.6032 18.1361C40.5541 20.1194 41.7618 22.8577 41.7618 25.8839C41.7618 25.9782 41.7602 26.0726 41.7586 26.167C41.757 26.2613 41.7522 26.3557 41.7489 26.4484C41.6833 27.8493 41.3773 29.1818 40.86 30.3972C40.341 31.6158 39.6107 32.714 38.6961 33.643C37.9673 34.4467 37.4339 35.3497 37.0768 36.3373V36.3389Z" fill="#FF4D0B"/>
<defs>
<filter id="filter0_b_145_5773" x="-49.1226" y="-49.3073" width="160.935" height="160.849" filterUnits="userSpaceOnUse" color-interpolation-filters="sRGB">
<feFlood flood-opacity="0" result="BackgroundImageFix"/>
<feGaussianBlur in="BackgroundImageFix" stdDeviation="25"/>
<feComposite in2="SourceAlpha" operator="in" result="effect1_backgroundBlur_145_5773"/>
<feBlend mode="normal" in="SourceGraphic" in2="effect1_backgroundBlur_145_5773" result="shape"/>
</filter>
<linearGradient id="paint0_linear_145_5773" x1="31.3448" y1="0.692749" x2="31.3448" y2="61.5419" gradientUnits="userSpaceOnUse">
<stop stop-color="white"/>
<stop offset="0.545" stop-color="white" stop-opacity="0.455"/>
<stop offset="1" stop-color="white" stop-opacity="0"/>
</linearGradient>
</defs>
</svg>
