<svg width="81" height="82" viewBox="0 0 81 82" fill="none" xmlns="http://www.w3.org/2000/svg">
<g filter="url(#filter0_dd_203_960)">
<path d="M40.775 66.2064C56.8787 66.2064 69.9333 53.1399 69.9333 37.0215C69.9333 20.9032 56.8787 7.83667 40.775 7.83667C24.6713 7.83667 11.6167 20.9032 11.6167 37.0215C11.6167 53.1399 24.6713 66.2064 40.775 66.2064Z" fill="#007ED9"/>
<path d="M43.0299 33.0394C43.5094 32.499 43.9025 31.9542 44.395 31.4916C45.9069 30.0648 47.6952 29.347 49.786 29.3643C50.9351 29.373 52.0668 29.4551 53.1727 29.7751C55.7041 30.5058 57.1728 32.2525 57.8769 34.7257C58.4039 36.5805 58.4989 38.4873 58.5033 40.3983C58.5119 44.428 58.4903 48.462 58.5033 52.4917C58.5033 52.8678 58.3996 52.9673 58.0281 52.9673C55.9546 52.95 53.8768 52.95 51.8034 52.9673C51.4362 52.9673 51.3584 52.8592 51.3584 52.5133C51.3714 48.6782 51.3714 44.8431 51.3584 41.0037C51.3584 40.0438 51.2936 39.0796 51.0258 38.1457C50.529 36.4249 49.2979 35.5472 47.4965 35.6423C45.0343 35.772 43.7556 36.9913 43.4446 39.4947C43.3712 40.0914 43.3323 40.6924 43.3366 41.2934C43.3366 45.0247 43.3366 48.756 43.3453 52.4874C43.3453 52.8592 43.2545 52.9673 42.8744 52.9673C40.7836 52.95 38.6929 52.95 36.6021 52.9673C36.2652 52.9673 36.1702 52.8808 36.1702 52.5392C36.1788 45.1544 36.1788 37.7652 36.1702 30.3804C36.1702 30.0129 36.2911 29.9307 36.6367 29.9307C38.6194 29.9437 40.6065 29.948 42.5893 29.9307C42.9565 29.9307 43.0472 30.0475 43.0429 30.3934C43.0213 31.2754 43.0342 32.1574 43.0342 33.0438L43.0299 33.0394Z" fill="#FEFEFE"/>
<path d="M31.6601 41.4794C31.6601 45.1329 31.6558 48.7864 31.6688 52.4399C31.6688 52.8463 31.5694 52.9674 31.1504 52.9631C29.0769 52.9415 27.0034 52.9458 24.9256 52.9631C24.593 52.9631 24.4937 52.8809 24.4937 52.5394C24.5023 45.1415 24.5023 37.7437 24.4937 30.3416C24.4937 30.0346 24.5671 29.9265 24.8911 29.9265C26.9948 29.9395 29.0985 29.9438 31.2022 29.9265C31.6083 29.9265 31.6601 30.0778 31.6601 30.4281C31.6515 34.1118 31.6558 37.7956 31.6558 41.4794H31.6601Z" fill="#FEFEFE"/>
<path d="M32.2304 22.5979C32.2304 24.8938 30.3729 26.7616 28.0835 26.7616C25.8242 26.7616 23.9495 24.8938 23.9408 22.6325C23.9322 20.3496 25.807 18.4688 28.0921 18.4688C30.36 18.4688 32.2261 20.3323 32.2304 22.5936V22.5979Z" fill="#FEFEFE"/>
</g>
<defs>
<filter id="filter0_dd_203_960" x="0.616699" y="0.83667" width="80.3166" height="80.3699" filterUnits="userSpaceOnUse" color-interpolation-filters="sRGB">
<feFlood flood-opacity="0" result="BackgroundImageFix"/>
<feColorMatrix in="SourceAlpha" type="matrix" values="0 0 0 0 0 0 0 0 0 0 0 0 0 0 0 0 0 0 127 0" result="hardAlpha"/>
<feOffset dy="1"/>
<feGaussianBlur stdDeviation="1.5"/>
<feColorMatrix type="matrix" values="0 0 0 0 0 0 0 0 0 0 0 0 0 0 0 0 0 0 0.3 0"/>
<feBlend mode="normal" in2="BackgroundImageFix" result="effect1_dropShadow_203_960"/>
<feColorMatrix in="SourceAlpha" type="matrix" values="0 0 0 0 0 0 0 0 0 0 0 0 0 0 0 0 0 0 127 0" result="hardAlpha"/>
<feMorphology radius="3" operator="dilate" in="SourceAlpha" result="effect2_dropShadow_203_960"/>
<feOffset dy="4"/>
<feGaussianBlur stdDeviation="4"/>
<feColorMatrix type="matrix" values="0 0 0 0 0 0 0 0 0 0 0 0 0 0 0 0 0 0 0.15 0"/>
<feBlend mode="normal" in2="effect1_dropShadow_203_960" result="effect2_dropShadow_203_960"/>
<feBlend mode="normal" in="SourceGraphic" in2="effect2_dropShadow_203_960" result="shape"/>
</filter>
</defs>
</svg>
