<svg width="81" height="82" viewBox="0 0 81 82" fill="none" xmlns="http://www.w3.org/2000/svg">
<g filter="url(#filter0_dd_203_970)">
<path d="M40.6246 66.2064C56.7283 66.2064 69.7829 53.1399 69.7829 37.0215C69.7829 20.9032 56.7283 7.83667 40.6246 7.83667C24.5209 7.83667 11.4663 20.9032 11.4663 37.0215C11.4663 53.1399 24.5209 66.2064 40.6246 66.2064Z" fill="#FF4D0B"/>
<path fill-rule="evenodd" clip-rule="evenodd" d="M54.6507 23.3417C51.1603 19.8439 46.5123 17.9155 41.5662 17.9155C31.3716 17.9155 23.0733 26.217 23.069 36.4209C23.069 39.6809 23.92 42.8675 25.5399 45.6736L22.9178 55.2635L32.7237 52.6909C35.4235 54.1653 38.4689 54.9435 41.5619 54.9435H41.5705C51.7651 54.9435 60.0634 46.6421 60.0677 36.4339C60.0677 31.4876 58.1454 26.8396 54.655 23.3417H54.6507ZM41.5662 51.8175H41.5619C38.8016 51.8175 36.0974 51.0738 33.7388 49.673L33.1772 49.34L27.3585 50.8663L28.9137 45.1893L28.5465 44.6056C27.0086 42.1584 26.1965 39.3264 26.1965 36.4209C26.1965 27.9378 33.0952 21.0372 41.5792 21.0372C45.6872 21.0372 49.5448 22.6413 52.4476 25.5468C55.3505 28.4567 56.9488 32.3177 56.9445 36.4295C56.9445 44.9126 50.0459 51.8132 41.5705 51.8132L41.5662 51.8175ZM49.9984 40.2949C49.5361 40.0614 47.264 38.9459 46.8406 38.7903C46.4173 38.6346 46.1106 38.5568 45.7995 39.0237C45.4928 39.4864 44.6073 40.5284 44.3352 40.8354C44.0673 41.1423 43.7952 41.1813 43.333 40.9521C42.8708 40.7186 41.3804 40.2344 39.618 38.6562C38.2443 37.4283 37.3156 35.915 37.0477 35.4524C36.7799 34.9897 37.0175 34.739 37.2508 34.5098C37.4581 34.3023 37.713 33.9694 37.9419 33.7013C38.1709 33.4332 38.2486 33.2387 38.4041 32.9317C38.5596 32.6247 38.4819 32.3523 38.3653 32.1231C38.2486 31.8897 37.3242 29.6154 36.9397 28.6901C36.5639 27.7865 36.1838 27.9119 35.8987 27.8946C35.6309 27.8816 35.3198 27.8773 35.0131 27.8773C34.7064 27.8773 34.2053 27.994 33.782 28.4567C33.3587 28.9193 32.1664 30.0391 32.1664 32.3134C32.1664 34.5876 33.8209 36.7884 34.0541 37.0954C34.2831 37.4024 37.3112 42.0763 41.9507 44.0781C43.0522 44.5537 43.9161 44.8391 44.5857 45.051C45.6916 45.4012 46.7024 45.3536 47.4972 45.2325C48.3871 45.0985 50.2316 44.1127 50.6161 43.0318C51.0005 41.9509 51.0005 41.0256 50.8839 40.831C50.7673 40.6365 50.4606 40.5241 49.9984 40.2906V40.2949Z" fill="white"/>
</g>
<defs>
<filter id="filter0_dd_203_970" x="0.466309" y="0.83667" width="80.3166" height="80.3699" filterUnits="userSpaceOnUse" color-interpolation-filters="sRGB">
<feFlood flood-opacity="0" result="BackgroundImageFix"/>
<feColorMatrix in="SourceAlpha" type="matrix" values="0 0 0 0 0 0 0 0 0 0 0 0 0 0 0 0 0 0 127 0" result="hardAlpha"/>
<feOffset dy="1"/>
<feGaussianBlur stdDeviation="1.5"/>
<feColorMatrix type="matrix" values="0 0 0 0 0 0 0 0 0 0 0 0 0 0 0 0 0 0 0.3 0"/>
<feBlend mode="normal" in2="BackgroundImageFix" result="effect1_dropShadow_203_970"/>
<feColorMatrix in="SourceAlpha" type="matrix" values="0 0 0 0 0 0 0 0 0 0 0 0 0 0 0 0 0 0 127 0" result="hardAlpha"/>
<feMorphology radius="3" operator="dilate" in="SourceAlpha" result="effect2_dropShadow_203_970"/>
<feOffset dy="4"/>
<feGaussianBlur stdDeviation="4"/>
<feColorMatrix type="matrix" values="0 0 0 0 0 0 0 0 0 0 0 0 0 0 0 0 0 0 0.15 0"/>
<feBlend mode="normal" in2="effect1_dropShadow_203_970" result="effect2_dropShadow_203_970"/>
<feBlend mode="normal" in="SourceGraphic" in2="effect2_dropShadow_203_970" result="shape"/>
</filter>
</defs>
</svg>
