<svg width="268" height="113" viewBox="0 0 268 113" fill="none" xmlns="http://www.w3.org/2000/svg">
<path d="M169.773 34.3688C170.842 34.302 171.895 34.4189 172.931 34.6361C173.382 34.7364 173.566 34.586 173.766 34.2017C174.434 32.8094 174.173 31.6509 172.981 30.7264C171.694 29.7239 170.608 28.5376 169.672 27.1842C169.288 26.6329 169.221 26.165 169.589 25.5635C171.193 22.9069 170.391 23.2411 173.649 23.6421C175.136 23.8259 176.54 24.3605 177.86 25.0456C178.327 25.2962 178.611 25.2628 178.912 24.795C179.347 24.1266 180.098 23.5585 180.232 22.8568C180.366 22.1551 179.43 21.6705 179.012 21.069C178.06 19.6989 177.308 18.2453 176.774 16.658C176.59 16.1067 176.69 15.7391 177.091 15.3381C179.347 13.1159 178.611 13.1994 181.585 14.4525C183.006 15.0373 184.259 15.9229 185.362 16.9755C185.696 17.2929 185.896 17.2929 186.28 17.0256C188.118 15.7391 188.135 15.7558 187.3 13.7007C186.681 12.1802 186.364 10.6096 186.18 8.98894C186.097 8.27049 186.297 7.80266 186.932 7.43507C189.555 5.94804 188.971 5.91462 191.293 7.70241C192.496 8.63807 193.515 9.79094 194.334 11.0942C194.651 11.5954 194.919 11.6288 195.453 11.4283C197.676 10.5261 197.659 10.5428 197.375 8.22036C197.174 6.56624 197.275 4.92884 197.676 3.29143C197.792 2.82359 197.976 2.53955 198.461 2.40589C201.535 1.55377 201.034 1.30314 202.922 3.82609C203.824 5.02908 204.459 6.36575 204.894 7.80266C205.044 8.2872 205.278 8.45428 205.812 8.42086C208.135 8.27049 208.118 8.2872 208.486 6.03158C208.753 4.36075 209.254 2.75676 210.023 1.23631C210.307 0.684937 210.658 0.484438 211.259 0.46773C213.949 0.36748 214.083 0.46773 215.019 3.02409C215.537 4.42759 215.821 5.88121 215.888 7.38495C215.904 7.91961 216.088 8.12011 216.623 8.20365C218.928 8.53782 218.928 8.55453 219.847 6.44929C220.499 4.96225 221.385 3.60888 222.471 2.37247C222.888 1.90464 223.273 1.77097 223.857 1.92135C226.865 2.70664 226.447 2.23881 226.882 5.39667C227.082 6.83358 226.948 8.3039 226.581 9.74081C226.447 10.2922 226.531 10.5929 227.115 10.7934C227.867 11.0441 228.619 11.6456 229.321 11.562C230.023 11.4952 230.24 10.4593 230.741 9.89119C231.794 8.68819 232.93 7.58545 234.267 6.69991C234.768 6.36575 235.186 6.36575 235.737 6.63308C238.093 7.80266 238.226 8.06999 237.759 10.6598C237.491 12.1635 237.04 13.6171 236.305 14.9705C236.054 15.4383 236.088 15.7224 236.539 16.0231C237.174 16.4408 237.692 17.176 238.377 17.3431C239.129 17.5269 239.546 16.5578 240.148 16.1568C241.535 15.2378 242.955 14.4358 244.559 13.9179C245.11 13.7341 245.495 13.8176 245.896 14.2019C248.134 16.4074 247.951 15.9062 246.881 18.5294C246.297 19.9496 245.428 21.2027 244.409 22.3388C243.991 22.79 243.957 23.074 244.325 23.592C245.645 25.363 245.628 25.363 247.7 24.5778C249.254 23.9763 250.858 23.6087 252.529 23.5251C253.13 23.4917 253.515 23.6922 253.815 24.2102C255.336 26.8334 255.436 26.2653 253.581 28.6211C252.629 29.8241 251.476 30.8266 250.19 31.6453C249.688 31.9628 249.638 32.2468 249.855 32.7648C250.691 34.8533 250.657 34.8533 252.896 34.5693C254.584 34.3354 256.255 34.4523 257.926 34.8032C258.427 34.9035 258.644 35.1541 258.811 35.6052C259.747 38.1114 259.613 38.5626 257.408 40.083C256.171 40.9351 254.851 41.6202 253.414 42.0546C252.93 42.205 252.662 42.4222 252.813 42.9568C252.813 42.9903 252.813 43.0237 252.813 43.0571C253.047 45.296 253.047 45.2626 255.269 45.58C256.956 45.8139 258.544 46.3319 260.064 47.1172C260.532 47.3678 260.733 47.6686 260.766 48.1865C260.916 50.9601 260.766 51.2107 258.093 52.1297C256.806 52.5641 255.486 52.8983 254.116 52.9317C253.347 52.9484 253.03 53.2157 252.963 54.0344C252.829 55.9559 252.779 55.9392 254.55 56.7077C256.104 57.3761 257.541 58.2616 258.828 59.3978C259.312 59.8322 259.429 60.2666 259.279 60.8848C258.711 63.4077 258.343 63.7252 255.737 63.8422C254.25 63.909 252.746 63.8756 251.292 63.5247C250.825 63.4077 250.657 63.5748 250.474 63.9591C249.505 66.0309 249.505 66.0142 251.292 67.4846C252.579 68.5372 253.698 69.7402 254.601 71.1604C254.901 71.6282 254.935 72.0292 254.667 72.5138C253.13 75.2205 253.682 74.9532 250.758 74.6023C249.204 74.4018 247.733 73.9005 246.347 73.1654C245.862 72.9147 245.578 72.9482 245.277 73.3993C244.843 74.0342 244.125 74.5689 243.974 75.2372C243.807 75.9891 244.743 76.4235 245.16 77.025C246.079 78.3783 246.848 79.7818 247.366 81.3357C247.566 81.9205 247.5 82.3549 247.065 82.8395C245.294 84.811 245.127 84.8612 242.704 83.7417C241.351 83.1068 240.081 82.3215 238.978 81.3023C238.527 80.8846 238.243 80.8512 237.742 81.2355C236.038 82.5721 236.021 82.5387 236.806 84.527C237.408 86.0809 237.809 87.6681 237.892 89.339C237.926 89.9739 237.725 90.3582 237.174 90.709C234.968 92.1627 234.851 92.1794 232.813 90.5253C231.627 89.5562 230.608 88.42 229.772 87.1502C229.438 86.6322 229.171 86.5487 228.586 86.7826C226.464 87.6849 226.43 87.6681 226.798 89.8903C227.082 91.628 226.865 93.3155 226.497 95.0031C226.414 95.4041 226.197 95.6213 225.812 95.7717C223.323 96.7574 222.788 96.5904 221.234 94.3682C220.399 93.1652 219.73 91.8786 219.296 90.4751C219.129 89.9572 218.945 89.74 218.344 89.7901C216.205 89.9572 216.188 89.9238 215.871 92.029C215.62 93.75 215.119 95.3707 214.334 96.9245C214.05 97.5093 213.649 97.7599 213.014 97.7432C210.09 97.7098 210.558 98.1108 209.388 95.3205C208.803 93.9003 208.519 92.3966 208.436 90.8761C208.402 90.308 208.285 90.0073 207.667 90.0073C206.882 90.0073 205.996 89.5061 205.328 89.8402C204.693 90.1577 204.726 91.1602 204.392 91.8285C203.707 93.2654 202.872 94.6188 201.819 95.8218C201.435 96.2729 201.034 96.44 200.432 96.2562C197.442 95.4208 197.859 95.8886 197.408 92.8811C197.191 91.4609 197.325 90.0407 197.642 88.6539C197.792 87.9689 197.659 87.6013 196.957 87.3173C195.119 86.5988 195.136 86.5654 193.95 88.1026C192.897 89.4893 191.644 90.6422 190.207 91.628C189.672 91.9956 189.221 92.029 188.67 91.7115C186.18 90.2412 186.28 90.8427 186.698 87.735C186.899 86.2145 187.4 84.7776 188.102 83.4242C188.369 82.8896 188.285 82.6055 187.818 82.2881C187.183 81.8704 186.631 81.1018 185.98 81.0015C185.295 80.9013 184.793 81.8035 184.175 82.2212C182.839 83.1569 181.402 83.8921 179.865 84.4267C179.313 84.6272 178.879 84.5604 178.444 84.126C176.272 81.9372 176.373 82.5387 177.509 79.7985C178.11 78.3449 178.996 77.0584 180.065 75.9222C180.399 75.5714 180.466 75.304 180.132 74.9197C179.614 74.3182 179.263 73.4327 178.628 73.1152C177.943 72.7811 177.225 73.5998 176.489 73.8504C174.986 74.3851 173.449 74.7192 171.845 74.8529C171.193 74.903 170.792 74.6858 170.474 74.1177C169.021 71.4945 168.887 72.096 170.759 69.6901C171.661 68.5372 172.78 67.5848 174 66.7995C174.535 66.4487 174.752 66.1479 174.401 65.5464C174.067 64.9449 173.983 64.1095 173.499 63.6918C172.964 63.224 172.179 63.7586 171.51 63.8255C169.823 63.9925 168.135 63.9424 166.465 63.6082C165.88 63.4913 165.546 63.2574 165.395 62.6392C164.627 59.615 164.292 60.2332 166.866 58.295C168.069 57.3928 169.422 56.7579 170.842 56.29C171.36 56.1229 171.477 55.8723 171.427 55.3544C171.243 52.9484 171.26 52.9818 168.921 52.6643C167.266 52.4471 165.696 51.9459 164.209 51.194C163.708 50.9434 163.457 50.6426 163.457 50.0578C163.457 46.9 162.989 47.4012 166.047 46.1648C167.367 45.6302 168.787 45.3628 170.207 45.3294C170.842 45.3294 171.143 45.1456 171.21 44.4439C171.427 42.2551 171.46 42.2551 169.439 41.3863C167.935 40.7346 166.581 39.8658 165.345 38.7965C164.894 38.3955 164.71 37.9945 164.877 37.4097C165.663 34.5192 165.161 34.7531 168.336 34.3855C168.787 34.3354 169.255 34.3855 169.723 34.3855L169.773 34.3688ZM212.228 87.735C214.517 87.6514 216.907 87.5345 219.246 87.0332C232.83 84.1093 242.353 76.2397 247.867 63.5414C248.352 62.4387 248.134 62.021 246.965 61.6033C245.411 61.0519 243.84 60.5339 242.27 59.9993C240.883 59.5314 240.566 59.6651 239.981 61.0185C238.26 64.9449 235.904 68.4369 232.696 71.3108C224.459 78.6958 214.885 81.1519 204.208 78.3282C194.768 75.822 188.152 69.807 184.209 60.8848C183.674 59.6818 183.357 59.5314 182.154 59.9324C180.583 60.4671 179.029 61.0018 177.459 61.5531C176.055 62.0377 175.888 62.4053 176.456 63.7586C182.204 77.6933 195.771 87.6514 212.212 87.735H212.228ZM250.791 49.2726C250.724 44.0596 249.855 39.2643 248.001 34.6695C246.33 30.5092 244.024 26.7665 240.967 23.475C239.964 22.4057 239.63 22.4057 238.644 23.4082C237.475 24.5778 236.305 25.7473 235.135 26.9169C234.133 27.9194 234.133 28.3705 235.085 29.4231C237.408 32.0129 239.246 34.8867 240.516 38.1282C242.688 43.6586 242.855 49.3394 241.852 55.1037C241.652 56.2399 241.936 56.691 243.022 57.0085C244.676 57.493 246.33 57.9609 247.984 58.4287C249.254 58.7796 249.588 58.5958 249.872 57.3259C250.524 54.5691 250.724 51.7788 250.808 49.2391L250.791 49.2726ZM173.599 49.0052C173.599 51.7955 173.916 54.5524 174.484 57.2758C174.752 58.5624 175.186 58.813 176.439 58.4454C178.093 57.9776 179.748 57.5097 181.385 57.0085C182.421 56.691 182.705 56.2232 182.555 55.1539C182.404 54.1347 182.237 53.1322 182.12 52.113C181.218 43.5416 183.457 35.9561 189.204 29.4566C190.207 28.3371 190.19 27.886 189.121 26.7999C188.052 25.7139 186.966 24.6446 185.896 23.5753C184.727 22.4057 184.392 22.4057 183.256 23.6588C176.774 30.8601 173.749 39.398 173.582 49.0052H173.599ZM212.212 10.5261C209.137 10.4593 206.13 10.8603 203.156 11.5787C197.709 12.9154 192.78 15.3214 188.369 18.7633C187.199 19.6822 187.149 20.0832 188.118 21.1693C189.138 22.3054 190.14 23.4416 191.159 24.5778C192.379 25.9311 192.563 25.9144 194.016 24.8618C202.688 18.5795 212.145 17.2428 222.27 20.5678C225.244 21.5368 227.951 23.0907 230.44 24.9787C231.643 25.8977 231.944 25.8476 232.93 24.7615C233.983 23.6087 235.018 22.4558 236.054 21.2862C237.14 20.0665 237.107 19.6655 235.787 18.663C228.803 13.3999 220.984 10.5428 212.212 10.5094V10.5261ZM239.697 48.9885C239.697 45.9309 239.162 42.9401 238.277 40.0162C237.926 38.8633 237.475 38.6795 236.472 39.3479C232.312 42.1548 228.151 44.9785 224.008 47.8189C222.938 48.5541 222.938 49.5065 224.008 50.2249C228.151 53.0653 232.312 55.889 236.472 58.696C237.475 59.3643 237.959 59.1806 238.293 58.0611C239.179 55.1037 239.697 52.0963 239.714 48.9885H239.697ZM186.899 39.0972C186.23 39.1808 186.113 39.7656 185.946 40.3002C184.175 46.2317 184.159 52.1464 185.98 58.0778C186.347 59.3142 186.832 59.498 187.918 58.7628C191.995 56.006 196.072 53.2157 200.148 50.4254C201.385 49.5733 201.385 48.7045 200.148 47.8691C196.055 45.0621 191.945 42.2718 187.834 39.4815C187.567 39.2977 187.283 39.1139 186.882 39.1139L186.899 39.0972ZM216.004 74.1177C216.004 74.1177 215.988 74.1177 215.971 74.1177C215.971 74.3517 215.971 74.5856 215.971 74.8195C215.938 76.1227 216.272 76.4068 217.575 76.0893C223.573 74.6858 228.669 71.7118 232.913 67.2506C233.866 66.2482 233.782 65.7302 232.579 65.1454C228.151 62.99 223.724 60.8347 219.296 58.6793C217.993 58.0611 217.141 58.5456 217.024 59.9658C216.673 64.6776 216.339 69.3893 216.004 74.101V74.1177ZM208.269 24.1768C208.402 21.7541 208.269 21.6371 205.879 22.2887C205.846 22.2887 205.812 22.2887 205.779 22.3054C200.148 23.759 195.403 26.6997 191.393 30.8601C190.424 31.8626 190.441 32.3638 191.443 32.865C196.005 35.104 200.583 37.3429 205.161 39.5484C206.28 40.083 207.132 39.5651 207.216 38.3119C207.567 33.6002 207.901 28.8885 208.252 24.1935L208.269 24.1768ZM208.603 75.4043C208.202 70.0911 207.834 64.9783 207.433 59.8823C207.35 58.7629 206.497 58.3117 205.428 58.7796C204.309 59.2808 203.223 59.8489 202.12 60.3836C198.695 62.0377 195.286 63.6918 191.878 65.3626C190.758 65.914 190.625 66.3484 191.36 67.1504C195.687 71.8621 200.967 74.9532 207.249 76.3232C208.235 76.5404 208.603 76.2063 208.603 75.421V75.4043ZM216.004 24.3438C216.322 28.688 216.656 33.4331 217.007 38.1783C217.091 39.398 217.909 39.9494 218.979 39.4314C223.573 37.2426 228.168 35.0371 232.746 32.7982C233.732 32.3137 233.799 31.8124 233.064 31.0271C228.987 26.6162 224.058 23.6087 218.21 22.1216C216.005 21.5703 215.888 21.6705 216.004 24.3438ZM202.471 49.0721C202.454 54.4187 206.748 58.7461 212.078 58.7628C217.358 58.7628 221.719 54.4521 221.735 49.2057C221.752 43.9092 217.425 39.5316 212.111 39.4815C206.932 39.4314 202.488 43.8424 202.471 49.0721Z" fill="#F6AB26"/>
<path d="M1.95488 46.148C1.95488 40.417 1.95488 34.6861 1.95488 28.9719C1.95488 27.7689 2.17209 27.535 3.35837 27.418C7.76936 26.9335 12.197 26.6661 16.6414 26.8165C19.8494 26.9168 22.8903 27.5851 25.3632 29.8407C27.6355 31.9125 28.4208 34.6527 28.5878 37.5933C28.8552 42.2549 26.9337 45.7303 22.8068 47.9358C22.1217 48.3033 22.2387 48.6375 22.4726 49.1722C24.4943 53.7001 26.4993 58.228 28.5043 62.756C29.2562 64.4435 28.9053 64.9615 27.0173 64.9615C25.831 64.9615 24.628 64.9114 23.4417 64.9615C22.5228 65.0116 22.0549 64.6273 21.704 63.8253C19.8327 59.5647 17.928 55.3208 16.0734 51.0435C15.806 50.442 15.522 50.2081 14.8369 50.2081C13.0826 50.2081 11.3282 50.1747 9.57385 49.9909C8.57135 49.8739 8.4711 50.2415 8.4711 51.0769C8.50452 55.1203 8.48781 59.147 8.4711 63.1904C8.4711 64.644 8.18706 64.9281 6.73344 64.9281C5.61399 64.9281 4.47783 64.9281 3.35837 64.9281C2.25563 64.9281 1.93817 64.6106 1.93817 63.5246C1.93817 57.7268 1.93817 51.9457 1.93817 46.148H1.95488ZM8.48781 38.5791C8.48781 40.1664 8.48781 41.7537 8.48781 43.341C8.48781 43.6919 8.38756 44.1096 8.97235 44.1096C11.5788 44.1263 14.1853 44.4939 16.8085 44.1096C19.8661 43.6584 21.821 41.5365 21.8544 38.6627C21.8878 35.722 20.0666 33.3996 17.1761 33.0487C14.5529 32.7145 11.8963 32.8482 9.25639 33.0821C8.60477 33.1322 8.4711 33.433 8.48781 34.0178C8.52123 35.5382 8.48781 37.0587 8.48781 38.5791Z" fill="#1D498F"/>
<path d="M139.798 58.7961C140.333 58.5455 140.283 58.1111 140.366 57.7937C142.07 51.4111 143.758 45.0285 145.429 38.646C145.679 37.6936 146.097 37.2258 147.133 37.3093C148.152 37.3929 149.188 37.3093 150.207 37.326C151.644 37.326 151.995 37.7605 151.628 39.1472C150.592 43.1071 149.572 47.0669 148.537 51.0435C147.166 56.3233 145.78 61.5864 144.393 66.8495C143.875 68.8211 143.106 70.659 141.669 72.1795C140.316 73.5997 138.662 74.3181 136.724 74.3348C134.268 74.3515 131.845 73.984 129.439 73.4994C128.771 73.3658 128.386 72.9815 128.37 72.2797C128.353 71.4944 128.286 70.6924 128.286 69.9071C128.286 68.9046 128.67 68.5371 129.69 68.5872C131.143 68.6707 132.597 68.7543 134.05 68.8879C136.674 69.1219 138.06 68.1027 138.612 65.5797C138.712 65.1119 138.629 64.8947 138.111 64.9448C135.922 65.1954 134.552 63.4745 134.101 61.7034C132.129 54.1345 130.157 46.5657 128.186 38.9802C127.885 37.8273 128.269 37.3427 129.422 37.326C130.508 37.326 131.611 37.3762 132.697 37.3093C133.716 37.2425 134.184 37.6435 134.435 38.6293C135.938 44.4438 137.492 50.2582 139.03 56.056C139.263 56.9582 139.531 57.8772 139.798 58.7961Z" fill="#1D498F"/>
<path d="M103.04 54.2181C103.04 57.4595 103.04 60.7009 103.04 63.9423C103.04 65.1788 102.589 65.5296 101.352 65.279C100.233 65.0618 99.1635 64.7276 98.2612 64.0259C97.8101 63.6583 97.4091 63.7251 96.9079 63.9089C94.2011 64.8279 91.461 65.5463 88.5704 65.5296C84.2096 65.5296 81.3191 63.0067 80.751 58.6792C80.5004 56.7578 80.5171 54.853 81.1687 52.9984C81.9874 50.7094 83.7752 49.5064 86.0308 48.8715C88.7041 48.1196 91.461 48.1697 94.2011 47.8857C94.5353 47.8523 94.8695 47.8523 95.1869 47.8189C96.2897 47.7075 96.7965 47.0781 96.7074 45.9308C96.5403 43.8089 95.4543 42.7563 93.3156 42.7563C90.4418 42.7563 87.568 42.9735 84.6941 43.2408C82.8228 43.4246 82.6056 43.2408 82.5388 41.4029C82.5054 40.5508 82.4886 39.6819 82.4719 38.8298C82.4719 38.2785 82.6724 37.8106 83.2572 37.7271C87.7016 37.0755 92.146 36.1064 96.6572 36.9084C100.634 37.6101 102.756 40.2166 103.023 44.377C103.023 44.544 103.057 44.7111 103.057 44.8782C103.057 47.986 103.057 51.0937 103.057 54.2014L103.04 54.2181ZM93.6665 52.8481V52.8146C92.6473 52.8815 91.6281 52.9316 90.6089 53.0318C87.7016 53.2992 86.4485 55.1872 87.2505 58.0109C87.6682 59.4478 88.537 60.0994 89.9907 60.0827C92.0792 60.0493 94.1176 59.5982 96.1393 59.1471C96.6238 59.0468 96.7742 58.8129 96.7575 58.3284C96.7408 56.6408 96.7408 54.97 96.7575 53.2825C96.7575 52.7979 96.6071 52.6476 96.1393 52.681C95.3206 52.7645 94.4852 52.7979 93.6665 52.8481Z" fill="#1D498F"/>
<path d="M57.4598 50.7096C57.4598 53.4664 57.2593 55.8557 56.5408 58.1782C55.3211 62.1046 52.7146 64.4605 48.6378 65.2123C46.0647 65.6802 43.4917 65.6802 40.952 65.1121C37.0423 64.2433 34.536 61.8039 33.4834 57.9777C32.2637 53.5667 32.247 49.0889 33.3163 44.6445C34.4525 39.9494 37.5602 37.4098 42.2887 36.7916C44.5276 36.4908 46.7832 36.5243 49.0054 37.0255C53.8174 38.0948 56.1899 41.4031 57.0588 46.0146C57.3762 47.6687 57.5266 49.3562 57.4765 50.7096H57.4598ZM50.9937 50.7764C50.9603 50.2417 50.9435 49.3061 50.8767 48.3871C50.5593 44.4941 48.9553 42.723 45.5468 42.4557C41.9044 42.1716 39.9161 43.7088 39.3313 47.3178C38.9136 49.941 38.9303 52.5976 39.3647 55.2208C39.8325 57.9944 41.2026 59.4146 43.8759 59.7153C47.9193 60.1664 50.1583 58.6794 50.743 54.8198C50.9268 53.6001 50.9603 52.3804 50.9937 50.7764Z" fill="#1D498F"/>
<path d="M63.6251 50.6591C63.6251 48.4035 63.6084 46.1646 63.6251 43.909C63.6251 43.2407 63.5081 42.99 62.773 43.0067C59.9326 43.107 60.0996 43.0067 60.1164 40.3668C60.1164 39.7319 60.1164 39.1137 60.1164 38.4788C60.1164 37.7102 60.4839 37.3259 61.2692 37.3092C62.0211 37.2925 63.0236 37.6434 63.458 37.1589C63.9258 36.6409 63.5917 35.6384 63.5917 34.8531C63.6251 31.9125 63.2241 32.2633 66.1647 31.5616C66.8665 31.3945 67.5682 31.194 68.2867 31.0269C69.4061 30.7763 69.9241 31.1773 69.9408 32.3302C69.9408 33.7504 69.9742 35.1706 69.9408 36.5908C69.9408 37.1421 70.0912 37.3259 70.6593 37.3259C72.4805 37.2925 74.3017 37.3259 76.1229 37.3092C77.0084 37.3092 77.3927 37.6768 77.376 38.5623C77.3426 39.615 77.3426 40.6843 77.376 41.7369C77.4094 42.6893 76.9416 43.0402 76.0393 43.0235C74.2515 43.0067 72.4638 43.0235 70.676 43.0067C70.1246 43.0067 69.9241 43.1404 69.9408 43.7252C69.9742 47.9524 69.9575 52.1963 70.0076 56.4235C70.0076 57.0083 70.158 57.6098 70.3251 58.1778C70.6258 59.1469 71.4111 59.4644 72.3301 59.4811C73.483 59.4811 74.6525 59.4477 75.8054 59.4143C77.0084 59.3808 77.3259 59.6816 77.376 60.9013C77.4261 61.8537 77.4929 62.806 77.5431 63.7751C77.5765 64.3599 77.3593 64.8611 76.7411 64.9781C74.0009 65.5462 71.2441 65.9472 68.4705 65.2454C65.6301 64.5437 64.1765 62.5888 63.8089 59.0801C63.742 58.5287 63.6585 57.9606 63.6418 57.4093C63.6251 55.1537 63.6418 52.9147 63.6418 50.6591C63.6418 50.6591 63.6251 50.6591 63.6084 50.6591H63.6251Z" fill="#1D498F"/>
<path d="M116.306 39.9826C118.244 38.7461 120.032 37.7102 122.121 37.2925C122.505 37.209 122.906 37.1589 123.29 37.1254C124.276 37.0753 124.627 37.4095 124.644 38.3619C124.66 39.4479 124.644 40.5506 124.644 41.6367C124.644 42.422 124.326 42.8564 123.508 42.9566C121.085 43.2574 118.963 44.2933 116.991 45.6968C116.49 46.0644 116.273 46.4487 116.273 47.0836C116.306 52.4803 116.29 57.8771 116.273 63.2739C116.273 64.6774 116.022 64.928 114.585 64.928C113.583 64.928 112.597 64.928 111.595 64.928C110.158 64.928 109.907 64.6941 109.907 63.2739C109.907 57.8771 109.907 52.4803 109.907 47.0836C109.907 44.3434 109.907 41.5866 109.907 38.8464C109.907 37.5766 110.158 37.3259 111.411 37.3259C112.53 37.3259 113.666 37.3259 114.786 37.3259C115.989 37.3259 116.256 37.5933 116.273 38.7629C116.273 39.1137 116.273 39.4813 116.273 39.9826H116.306Z" fill="#1D498F"/>
<path d="M256.004 88.5203C256.004 90.9764 253.999 92.9313 251.543 92.8979C249.104 92.8645 247.216 90.9597 247.216 88.5203C247.216 86.0308 249.137 84.0759 251.61 84.0759C254.033 84.0759 256.021 86.0809 256.004 88.537V88.5203ZM251.576 91.9789C253.481 91.9789 255.068 90.4418 255.085 88.537C255.102 86.6156 253.565 85.045 251.643 85.045C249.705 85.045 248.168 86.5487 248.151 88.4869C248.135 90.4084 249.672 91.9789 251.593 91.9956L251.576 91.9789Z" fill="#F6AB26"/>
<path d="M205.612 82.7559C205.428 83.6582 205.211 84.5437 205.06 85.4626C204.96 86.0809 204.626 85.9472 204.208 85.8971C203.741 85.8302 203.573 85.6631 203.69 85.1953C204.091 83.5245 204.476 81.8537 204.877 80.1828C204.927 79.9656 204.96 79.6649 205.278 79.7484C205.662 79.8487 206.113 79.8153 206.33 80.3332C206.765 81.4025 207.249 82.4385 207.934 83.4744C208.035 82.6557 208.185 81.8202 208.235 81.0015C208.268 80.4335 208.519 80.2664 209.054 80.2998C209.689 80.3332 209.488 80.7843 209.455 81.1018C209.321 82.639 209.171 84.1928 208.97 85.73C208.937 86.0307 209.087 86.5654 208.569 86.5821C208.068 86.5988 207.517 86.6155 207.249 85.9639C206.798 84.8779 206.297 83.7918 205.829 82.7225C205.762 82.7225 205.695 82.7559 205.629 82.7559H205.612Z" fill="#F6AB26"/>
<path d="M185.612 71.1772C186.247 70.6593 186.915 70.1747 187.5 69.6234C187.951 69.1889 188.202 69.4061 188.536 69.757C188.987 70.2081 188.536 70.3752 188.302 70.5924C187.116 71.6283 185.913 72.6643 184.693 73.6668C184.476 73.8505 184.275 74.3351 183.908 73.9842C183.59 73.6668 183.123 73.3994 183.323 72.7478C183.691 71.6283 184.192 70.5423 184.392 69.3727C184.426 69.3393 184.509 69.2558 184.493 69.2558C184.409 69.1221 184.342 69.2057 184.292 69.2892C183.524 69.6066 182.889 70.158 182.22 70.6426C181.736 70.9934 181.485 70.9767 181.118 70.4755C180.667 69.874 181.168 69.7403 181.485 69.5231C182.705 68.6877 183.941 67.8356 185.178 67.0169C185.445 66.8498 185.712 66.3652 186.08 66.7161C186.431 67.0503 186.665 67.468 186.431 68.0361C186.047 69.0219 185.763 70.0411 185.445 71.0436C185.428 71.1271 185.362 71.2441 185.395 71.2775C185.495 71.361 185.529 71.2608 185.579 71.1772H185.612Z" fill="#F6AB26"/>
<path d="M233.699 75.7049C234.049 76.4902 234.651 77.1251 235.169 77.7935C235.503 78.2279 235.503 78.4618 235.085 78.8294C234.534 79.3139 234.35 78.8962 234.1 78.5453C233.164 77.2922 232.245 76.0558 231.326 74.786C231.176 74.5688 230.758 74.3683 231.059 74.0508C231.343 73.7668 231.643 73.4326 232.178 73.5997C233.147 73.9171 234.15 74.1845 235.119 74.4685C235.236 74.5019 235.369 74.4685 235.57 74.4685C235.102 73.6498 234.434 73.0817 233.832 72.4802C233.381 72.0291 233.699 71.8286 233.949 71.5279C234.283 71.1101 234.501 71.3608 234.734 71.6114C235.854 72.7977 236.973 73.9673 238.076 75.1535C238.277 75.3707 238.728 75.5713 238.394 75.9388C238.076 76.273 237.826 76.7408 237.174 76.557C236.038 76.2396 234.935 75.755 233.749 75.6214C233.715 75.588 233.665 75.5378 233.632 75.5211C233.632 75.5211 233.582 75.5545 233.565 75.5712C233.615 75.6047 233.665 75.6381 233.699 75.6715V75.7049Z" fill="#F6AB26"/>
<path d="M203.106 80.3331C203.106 81.0014 202.972 81.653 202.471 81.8869C201.535 82.3381 201.602 83.0565 201.686 83.8418C201.686 84.0089 201.752 84.1927 201.702 84.3264C201.585 84.5937 202.137 85.1785 201.435 85.1116C201.001 85.0782 200.315 85.0615 200.366 84.2428C200.399 83.7249 200.299 83.1902 200.332 82.6555C200.382 82.0039 199.931 81.887 199.497 81.7533C198.912 81.5695 199.029 82.1376 198.879 82.4049C198.695 82.7224 198.578 83.0565 198.461 83.4074C198.277 83.9421 197.943 83.8752 197.525 83.7416C197.057 83.5745 197.041 83.3406 197.224 82.9062C197.893 81.4024 198.544 79.882 199.163 78.3448C199.346 77.8937 199.564 77.8436 199.981 78.0273C200.683 78.3281 201.402 78.5787 202.103 78.846C202.805 79.1134 203.139 79.6313 203.122 80.2997L203.106 80.3331ZM201.886 80.3832C201.752 79.5979 200.967 79.648 200.432 79.4977C199.781 79.2972 199.764 80.0658 199.781 80.3498C199.831 81.0682 200.583 80.9513 201.067 81.1017C201.535 81.252 201.786 80.9012 201.886 80.3999V80.3832Z" fill="#F6AB26"/>
<path d="M228.619 76.2897C230.34 76.2897 231.693 77.6431 231.71 79.364C231.71 81.0181 230.273 82.455 228.619 82.455C226.932 82.455 225.545 81.0516 225.545 79.3473C225.545 77.6431 226.898 76.273 228.636 76.2897H228.619ZM228.669 77.4259C227.583 77.4259 226.714 78.2947 226.731 79.3473C226.748 80.3832 227.583 81.2353 228.602 81.2521C229.689 81.2521 230.557 80.3999 230.541 79.3139C230.541 78.2613 229.689 77.4259 228.669 77.4259Z" fill="#F6AB26"/>
<path d="M196.021 79.0467C195.771 79.3976 195.721 79.949 195.136 79.6315C194.868 79.4811 194.601 79.3642 194.367 79.1637C193.699 78.5956 193.432 79.0969 193.081 79.5814C192.613 80.233 193.264 80.2831 193.549 80.4836C194.016 80.8011 194.518 81.0684 195.002 81.3525C195.303 81.5196 195.57 81.6866 195.303 82.1043C195.069 82.4886 194.852 82.6223 194.434 82.3383C193.465 81.7033 192.479 81.1018 191.477 80.5171C191.076 80.2831 191.126 80.0659 191.36 79.7318C192.329 78.345 193.264 76.9415 194.2 75.538C194.467 75.137 194.685 75.137 195.069 75.4043C195.871 75.939 196.706 76.4068 197.525 76.9081C197.792 77.0752 198.16 77.1587 197.876 77.6265C197.625 78.0442 197.391 78.1946 196.94 77.8939C196.523 77.6265 196.038 77.4594 195.637 77.1754C195.136 76.8245 194.852 76.9248 194.534 77.4093C194.133 78.0275 194.701 78.0442 194.969 78.2447C195.303 78.5121 195.804 78.6123 196.038 79.03L196.021 79.0467Z" fill="#F6AB26"/>
<path d="M239.363 74.7359C239.279 74.6189 239.162 74.4853 239.062 74.3182C238.16 72.8311 237.274 71.3274 236.338 69.8404C236.088 69.4561 236.138 69.1887 236.439 68.888C236.723 68.5872 236.923 68.2029 237.491 68.4034C239.129 68.9882 240.8 69.5062 242.454 70.0743C242.671 70.1411 243.105 70.1244 242.905 70.5087C242.754 70.8094 242.671 71.3274 242.12 71.2271C241.785 71.1603 241.434 70.8261 241.117 71.2271C240.666 71.7785 240.198 72.3466 239.814 72.9648C239.68 73.182 239.998 73.4159 240.098 73.6498C240.231 73.9673 239.747 74.7526 239.363 74.7359ZM240.064 70.6089C239.363 70.3583 238.744 69.974 237.909 69.974C238.36 70.5922 238.477 71.4444 239.112 71.6783C239.446 71.7952 239.73 71.0266 240.064 70.6089Z" fill="#F6AB26"/>
<path d="M216.088 86.3315C215.353 86.5319 214.735 86.6656 214.517 85.7801C214.434 85.4626 214.15 85.4626 213.866 85.4793C213.398 85.5127 212.947 85.5462 212.479 85.5462C212.061 85.5462 211.744 85.6297 211.677 86.0808C211.56 86.8828 210.925 86.699 210.541 86.5821C209.973 86.415 210.441 85.9806 210.524 85.7132C211.009 84.1427 211.543 82.5888 212.045 81.0182C212.162 80.6506 212.329 80.4167 212.73 80.4669C213.097 80.517 213.565 80.2664 213.782 80.7676C214.568 82.6055 215.319 84.4601 216.105 86.3315H216.088ZM212.295 84.3265C213.966 84.4601 213.966 84.4601 213.381 83.0399C213.281 82.7893 213.298 82.4551 212.913 82.2881C212.763 82.6891 212.629 83.0733 212.496 83.4743C212.412 83.7417 212.345 84.0257 212.278 84.3098L212.295 84.3265Z" fill="#F6AB26"/>
<path d="M220.181 79.4978C220.549 79.3808 220.699 79.5813 220.783 79.9322C220.883 80.2998 220.783 80.4836 220.432 80.5838C219.948 80.7342 219.229 80.6173 219.062 81.1352C218.928 81.5863 219.229 82.1544 219.329 82.6557C219.513 83.5245 219.68 84.3933 219.897 85.2621C220.014 85.73 219.847 85.9472 219.396 85.9973C219.029 86.0307 218.611 86.2145 218.527 85.5629C218.377 84.4936 218.076 83.4242 217.976 82.3549C217.876 81.3524 217.458 81.0182 216.539 81.3524C215.904 81.5696 215.704 81.2856 215.687 80.7175C215.687 80.4836 215.77 80.3332 216.004 80.2998C217.391 80.0325 218.795 79.7651 220.181 79.4978Z" fill="#F6AB26"/>
<path d="M193.298 74.2682C193.281 74.7527 192.663 75.0535 192.312 74.8196C191.488 74.3183 190.769 74.4297 190.157 75.1537C189.555 75.8555 188.954 76.5572 188.369 77.2757C188.068 77.66 187.834 77.7769 187.433 77.3759C187.099 77.0418 186.815 76.8413 187.283 76.3567C188.068 75.5547 188.737 74.6191 189.555 73.8672C190.274 73.2156 190.073 72.8146 189.438 72.33C189.087 72.0627 188.586 71.7954 189.204 71.2774C189.438 71.0769 189.605 70.9767 189.873 71.2273C190.942 72.1629 192.045 73.0652 193.114 74.0009C193.198 74.0844 193.265 74.1846 193.298 74.2348V74.2682Z" fill="#F6AB26"/>
<path d="M239.363 64.9782C239.58 65.0952 239.747 65.1787 239.931 65.279C240.967 65.847 242.036 66.3984 243.038 66.9999C243.573 67.3174 243.84 67.2338 244.091 66.6825C244.325 66.1812 244.642 65.7134 244.893 65.2121C245.077 64.8278 245.294 64.7777 245.662 64.9782C246.029 65.1787 246.146 65.3959 245.879 65.7468C245.862 65.7802 245.845 65.8136 245.829 65.8303C245.244 66.8495 244.86 68.37 243.991 68.7543C243.172 69.1052 242.036 67.852 241.017 67.3341C240.332 66.9999 239.697 66.5989 239.028 66.2313C238.761 66.081 238.611 65.9306 238.828 65.6131C238.995 65.3959 239.045 65.0618 239.346 64.9782H239.363Z" fill="#F6AB26"/>
<path d="M180.149 68.5036C179.748 68.4869 179.748 68.0692 179.58 67.8353C179.413 67.5847 179.38 67.3675 179.681 67.1837C181.218 66.2981 182.755 65.4126 184.292 64.4936C184.626 64.2931 184.793 64.4268 184.91 64.7108C185.027 65.0116 185.512 65.3458 185.044 65.6465C183.473 66.6156 181.869 67.5178 180.282 68.4535C180.249 68.4535 180.215 68.4869 180.165 68.5036H180.149Z" fill="#F6AB26"/>
<path d="M223.089 78.5285C223.423 78.4617 223.473 78.729 223.54 78.9295C224.091 80.5168 224.609 82.1208 225.177 83.7081C225.378 84.2595 225.06 84.3597 224.659 84.5268C224.192 84.7106 224.008 84.5602 223.857 84.1425C223.356 82.6388 222.821 81.1517 222.303 79.648C222.053 78.9295 222.337 78.5285 223.089 78.5285Z" fill="#F6AB26"/>
<path d="M223.874 19.7992C222.938 19.6822 222.437 19.2478 222.454 18.3455C222.454 18.0114 222.387 17.6939 222.354 17.3598C222.287 16.8084 221.786 16.8418 221.451 16.7583C221.084 16.658 221.084 17.059 221.017 17.2762C220.917 17.5603 220.833 17.8443 220.8 18.145C220.699 18.8802 220.265 18.6797 219.781 18.5795C219.246 18.4792 219.179 18.262 219.346 17.7607C219.831 16.257 220.282 14.7366 220.683 13.2161C220.85 12.5812 221.134 12.5311 221.669 12.7316C222.287 12.9655 222.905 13.2161 223.557 13.3164C225.177 13.5837 225.344 15.856 224.359 16.6246C223.607 17.2094 223.59 17.7775 223.757 18.546C223.841 18.9303 223.841 19.3313 223.891 19.7992H223.874ZM222.721 15.9228C223.306 15.8894 223.573 15.5553 223.573 15.1041C223.573 14.1852 222.704 14.2854 222.187 14.2019C221.535 14.0849 221.602 14.8201 221.585 15.1877C221.585 15.9563 222.387 15.6221 222.704 15.9395L222.721 15.9228Z" fill="#F6AB26"/>
<path d="M199.53 20.0662C198.711 20.9016 198.043 20.6677 197.391 20.0662C197.174 19.8657 196.924 19.6986 196.673 19.5316C196.289 19.2642 195.971 19.5316 195.687 19.7321C195.303 19.9994 195.654 20.25 195.771 20.4839C195.888 20.7178 196.005 20.9685 196.172 21.169C196.623 21.7036 196.289 21.9376 195.854 22.2216C195.386 22.5223 195.153 22.4555 194.868 21.9543C194.133 20.5508 193.348 19.1807 192.546 17.8106C192.279 17.3595 192.329 17.1256 192.797 16.8917C193.415 16.5909 194.067 16.3069 194.618 15.8892C195.955 14.87 197.692 16.3069 197.559 17.5767C197.442 18.646 198.043 18.9468 198.645 19.3979C198.929 19.6151 199.213 19.8323 199.53 20.0662ZM196.222 17.7104C196.138 17.3094 196.055 16.7914 195.57 16.8749C195.036 16.9585 194.317 17.1089 194.217 17.7438C194.167 18.0445 194.468 18.7964 194.935 18.7296C195.453 18.646 196.105 18.4288 196.239 17.7104H196.222Z" fill="#F6AB26"/>
<path d="M202.454 12.8987C204.158 12.8987 205.495 14.1685 205.495 15.856C205.495 17.6271 204.142 19.064 202.421 19.064C200.716 19.064 199.363 17.6772 199.363 15.9563C199.363 14.2019 200.666 12.9154 202.437 12.8987H202.454ZM204.359 15.9563C204.376 14.8703 203.624 14.0683 202.538 14.0516C201.435 14.0181 200.549 14.8535 200.533 15.9229C200.533 16.9087 201.418 17.8443 202.387 17.8777C203.423 17.9112 204.325 17.0256 204.342 15.9563H204.359Z" fill="#F6AB26"/>
<path d="M217.809 17.5937C217.859 17.861 217.909 18.1116 217.592 18.0782C217.224 18.0281 216.689 18.1785 216.589 17.6772C216.405 16.7583 215.787 16.6914 215.052 16.6914C214.367 16.6914 213.682 16.4742 213.348 17.3932C213.164 17.8944 212.529 17.7775 212.212 17.6271C211.777 17.4266 212.212 17.059 212.329 16.8084C213.064 15.2211 213.849 13.6672 214.601 12.0967C214.751 11.7792 214.918 11.4952 215.336 11.6288C215.687 11.7458 216.205 11.5453 216.355 12.0632C216.873 13.9346 217.358 15.8226 217.842 17.6104L217.809 17.5937ZM214.317 15.455C214.801 15.5219 215.152 15.5887 215.503 15.6388C215.821 15.6889 216.071 15.6388 215.954 15.2545C215.771 14.653 215.737 14.0014 215.303 13.4166C214.969 14.1184 214.668 14.7366 214.317 15.455Z" fill="#F6AB26"/>
<path d="M210.207 11.545C210.374 11.545 210.541 11.545 210.708 11.5116C211.142 11.4615 211.46 11.5116 211.477 12.0964C211.477 12.631 211.176 12.748 210.792 12.6979C209.689 12.5475 209.472 13.0654 209.639 14.0345C209.806 15.037 209.839 16.0729 210.006 17.0754C210.123 17.7605 209.672 17.6936 209.271 17.7939C208.77 17.9108 208.653 17.7271 208.619 17.2592C208.536 16.24 208.369 15.2375 208.285 14.2183C208.168 12.8984 208.168 12.8817 206.865 13.0654C206.431 13.1323 206.18 13.0654 206.113 12.5809C206.063 12.1799 206.113 11.9794 206.581 11.9293C207.801 11.8123 209.004 11.6452 210.207 11.4949C210.207 11.5116 210.207 11.5283 210.207 11.545Z" fill="#F6AB26"/>
<path d="M232.178 17.3932C231.576 17.6772 231.059 17.978 230.507 18.1618C229.137 18.6129 228.185 19.4483 227.717 20.8184C227.566 21.2361 227.433 21.6705 226.731 21.3196C226.046 20.9687 226.18 20.6346 226.514 20.1834C227.416 18.9805 227.483 17.6605 227.065 16.257C226.915 15.7223 226.848 15.171 226.748 14.5862C227.817 14.6697 228.352 15.1543 228.352 16.1902C228.352 16.5076 228.502 16.8418 228.502 17.1593C228.519 17.7106 228.786 17.6271 229.137 17.46C229.488 17.2929 229.872 17.1593 230.206 16.9588C230.975 16.4575 231.543 16.775 232.178 17.3765V17.3932Z" fill="#F6AB26"/>
<path d="M220.816 49.1219C220.816 54.0007 216.957 57.8269 212.028 57.8269C207.216 57.8269 203.373 53.9339 203.373 49.0885C203.373 44.2765 207.283 40.3501 212.061 40.3501C216.907 40.3501 220.816 44.2598 220.8 49.1219H220.816ZM212.295 42.1379C211.827 42.1379 211.527 42.1713 211.243 42.1379C210.758 42.0878 210.558 42.305 210.624 42.7561C210.725 43.4745 210.357 43.7753 209.739 44.0593C206.999 45.3459 205.779 48.4703 206.898 51.2439C208.018 54.0342 211.042 55.5212 213.882 54.6524C216.205 53.9506 217.876 51.7618 217.976 49.3391C218.076 47.0167 216.606 44.7945 214.4 43.8588C214.1 43.7252 213.565 43.792 213.598 43.274C213.682 42.1212 213.047 41.9541 212.295 42.1212V42.1379Z" fill="#F6AB26"/>
<path d="M252.462 88.8379C252.763 89.3057 253.047 89.7401 253.314 90.1913C253.414 90.3583 253.481 90.5421 253.565 90.7259C252.813 90.9598 252.312 90.8262 252.028 90.091C251.927 89.8237 251.744 89.5731 251.576 89.3224C251.393 89.0551 251.109 88.9214 250.808 89.005C250.44 89.1052 250.624 89.4394 250.591 89.6733C250.557 89.9072 250.591 90.1411 250.591 90.3583C250.591 90.7092 250.407 90.8095 250.089 90.8095C249.789 90.8095 249.588 90.7426 249.588 90.3751C249.588 89.1219 249.588 87.8688 249.588 86.6157C249.588 86.2648 249.772 86.1646 250.073 86.1646C250.54 86.1646 250.992 86.1646 251.459 86.1646C252.245 86.1646 253.03 86.1479 253.331 87.0835C253.615 87.9356 253.08 88.4369 252.462 88.8212V88.8379ZM251.142 88.1863C251.71 88.1529 252.245 88.1696 252.261 87.6015C252.261 86.9499 251.71 87 251.242 86.9833C250.841 86.9833 250.557 87 250.557 87.5346C250.557 88.086 250.791 88.2364 251.125 88.1696L251.142 88.1863Z" fill="#F6AB26"/>
<path d="M3.27482 102.672H0V101.486H7.98655V102.672H4.69502V112.263H3.29153V102.672H3.27482Z" fill="#1D498F"/>
<path d="M9.72415 108.871L8.6047 112.263H7.16779L10.8269 101.486H12.5144L16.1902 112.263H14.7032L13.5503 108.871H9.72415ZM13.2496 107.785L12.197 104.677C11.9631 103.976 11.796 103.341 11.6456 102.706H11.6122C11.4451 103.341 11.278 104.009 11.0608 104.661L10.0082 107.785H13.2496Z" fill="#1D498F"/>
<path d="M17.7776 112.263V101.486H19.298L22.7567 106.933C23.5586 108.203 24.1769 109.339 24.6948 110.442H24.7282C24.5946 108.988 24.5611 107.668 24.5611 105.997V101.486H25.8644V112.263H24.4609L21.0357 106.799C20.2838 105.596 19.5654 104.377 19.014 103.207H18.9639C19.0474 104.577 19.0808 105.88 19.0808 107.668V112.28H17.7776V112.263Z" fill="#1D498F"/>
<path d="M27.5686 111.444L33.5502 102.706V102.656H28.0866V101.486H35.3547V102.338L29.4065 111.06V111.11H35.4382V112.28H27.5686V111.461V111.444Z" fill="#1D498F"/>
<path d="M38.8968 108.871L37.7774 112.263H36.3405L39.9996 101.486H41.6871L45.3629 112.263H43.8759L42.723 108.871H38.8968ZM42.4223 107.785L41.3696 104.677C41.1357 103.976 40.9686 103.341 40.8183 102.706H40.7849C40.6178 103.341 40.4507 104.009 40.2335 104.661L39.1809 107.785H42.4223Z" fill="#1D498F"/>
<path d="M46.9335 112.263V101.486H48.454L51.9126 106.933C52.7146 108.203 53.3328 109.339 53.8508 110.442H53.8842C53.7505 108.988 53.7171 107.668 53.7171 105.997V101.486H55.0203V112.263H53.6168L50.1916 106.799C49.4398 105.596 48.7213 104.377 48.1699 103.207H48.1198C48.2034 104.577 48.2368 105.88 48.2368 107.668V112.28H46.9335V112.263Z" fill="#1D498F"/>
<path d="M58.8632 101.486V112.263H57.4764V101.486H58.8632Z" fill="#1D498F"/>
<path d="M63.0402 108.871L61.9208 112.263H60.4839L64.143 101.486H65.8305L69.5063 112.263H68.0193L66.8664 108.871H63.0402ZM66.5657 107.785L65.5131 104.677C65.2792 103.976 65.1121 103.341 64.9617 102.706H64.9283C64.7612 103.341 64.5941 104.009 64.3769 104.661L63.3243 107.785H66.5657Z" fill="#1D498F"/>
<path d="M77.6934 107.417V108.453H73.7502V107.417H77.6934Z" fill="#1D498F"/>
<path d="M84.1762 101.486V107.868C84.1762 110.291 85.2456 111.31 86.6825 111.31C88.2865 111.31 89.3057 110.258 89.3057 107.868V101.486H90.7092V107.768C90.7092 111.076 88.9715 112.43 86.6324 112.43C84.4269 112.43 82.756 111.16 82.756 107.818V101.469H84.1595L84.1762 101.486Z" fill="#1D498F"/>
<path d="M101.336 111.778C100.717 111.995 99.4809 112.363 98.0273 112.363C96.3899 112.363 95.0532 111.945 94.0006 110.943C93.065 110.04 92.4969 108.604 92.4969 106.933C92.4969 103.725 94.7191 101.369 98.3281 101.369C99.5812 101.369 100.55 101.636 101.018 101.87L100.684 103.006C100.116 102.756 99.3807 102.538 98.2947 102.538C95.6715 102.538 93.9672 104.176 93.9672 106.866C93.9672 109.556 95.6213 111.21 98.1276 111.21C99.0465 111.21 99.6647 111.076 99.9822 110.926V107.718H97.7934V106.599H101.336V111.778Z" fill="#1D498F"/>
<path d="M105.212 108.871L104.092 112.263H102.656L106.315 101.486H108.002L111.678 112.263H110.191L109.038 108.871H105.212ZM108.737 107.785L107.685 104.677C107.451 103.976 107.284 103.341 107.133 102.706H107.1C106.933 103.341 106.766 104.009 106.549 104.661L105.496 107.785H108.737Z" fill="#1D498F"/>
<path d="M113.265 112.263V101.486H114.786L118.244 106.933C119.046 108.203 119.665 109.339 120.182 110.442H120.216C120.082 108.988 120.049 107.668 120.049 105.997V101.486H121.352V112.263H119.949L116.523 106.799C115.771 105.596 115.053 104.377 114.502 103.207H114.452C114.535 104.577 114.569 105.88 114.569 107.668V112.28H113.265V112.263Z" fill="#1D498F"/>
<path d="M123.791 101.636C124.644 101.503 125.646 101.419 126.749 101.419C128.754 101.419 130.174 101.887 131.11 102.756C132.062 103.641 132.63 104.878 132.63 106.632C132.63 108.387 132.079 109.823 131.076 110.826C130.074 111.828 128.403 112.38 126.314 112.38C125.329 112.38 124.493 112.33 123.791 112.246V101.653V101.636ZM125.178 111.16C125.529 111.227 126.047 111.244 126.582 111.244C129.556 111.244 131.177 109.573 131.177 106.666C131.177 104.126 129.756 102.505 126.816 102.505C126.097 102.505 125.546 102.572 125.178 102.656V111.16Z" fill="#1D498F"/>
<path d="M135.955 108.871L134.836 112.263H133.399L137.058 101.486H138.745L142.421 112.263H140.934L139.781 108.871H135.955ZM139.481 107.785L138.428 104.677C138.194 103.976 138.027 103.341 137.876 102.706H137.843C137.676 103.341 137.509 104.009 137.292 104.661L136.239 107.785H139.481Z" fill="#1D498F"/>
<path d="M1.72101 79.8323C2.97413 79.6318 4.61154 79.5149 6.33249 79.5149C9.20631 79.5149 11.0609 80.0329 12.5313 81.1356C14.1018 82.3052 15.0876 84.1598 15.0876 86.8331C15.0876 89.7236 14.035 91.7286 12.5814 92.965C10.9941 94.285 8.57139 94.9199 5.61403 94.9199C3.84296 94.9199 2.58984 94.803 1.73772 94.7027V79.8491L1.72101 79.8323ZM5.1462 92.163C5.43024 92.2299 5.91478 92.2299 6.33249 92.2299C9.42352 92.2466 11.4452 90.5423 11.4452 86.9334C11.4619 83.7922 9.62402 82.1381 6.68336 82.1381C5.91478 82.1381 5.43024 82.2049 5.12949 82.2718V92.163H5.1462Z" fill="#1D498F"/>
<path d="M20.7683 79.6316V94.7526H17.3431V79.6316H20.7683Z" fill="#1D498F"/>
<path d="M23.8428 91.2271C24.7617 91.695 26.1819 92.1628 27.6355 92.1628C29.2061 92.1628 30.0415 91.5112 30.0415 90.5254C30.0415 89.5396 29.3231 89.0383 27.5019 88.3867C24.9956 87.5179 23.3582 86.1144 23.3582 83.9256C23.3582 81.3525 25.5136 79.3643 29.0724 79.3643C30.7767 79.3643 32.0298 79.7318 32.932 80.1328L32.1635 82.8897C31.562 82.6057 30.4759 82.1712 29.0056 82.1712C27.5353 82.1712 26.8001 82.8396 26.8001 83.6249C26.8001 84.5939 27.6522 85.0117 29.6071 85.7635C32.2804 86.7493 33.5335 88.1361 33.5335 90.2747C33.5335 92.8144 31.5787 94.9698 27.435 94.9698C25.7141 94.9698 24.0098 94.5187 23.1577 94.0508L23.8595 91.2271H23.8428Z" fill="#1D498F"/>
<path d="M38.7632 82.5054H34.7031V79.6316H46.3153V82.5054H42.1884V94.7526H38.7632V82.5054Z" fill="#1D498F"/>
<path d="M48.1366 79.8323C49.2393 79.6486 50.8768 79.5149 52.698 79.5149C54.9369 79.5149 56.5074 79.8491 57.5935 80.7012C58.4957 81.4196 58.9803 82.4723 58.9803 83.859C58.9803 85.7805 57.6102 87.1171 56.3069 87.585V87.6518C57.3596 88.0695 57.9443 89.0887 58.3286 90.4755C58.7965 92.1798 59.2643 94.1513 59.565 94.7361H56.073C55.8224 94.3184 55.4715 93.082 55.0204 91.2107C54.6194 89.3226 53.9678 88.8047 52.581 88.788H51.5451V94.7361H48.1533V79.8156L48.1366 79.8323ZM51.5284 86.3319H52.8817C54.586 86.3319 55.5885 85.4797 55.5885 84.1598C55.5885 82.773 54.6528 82.0713 53.0822 82.0545C52.2468 82.0545 51.779 82.1214 51.5284 82.1715V86.3486V86.3319Z" fill="#1D498F"/>
<path d="M64.8782 79.6316V94.7526H61.453V79.6316H64.8782Z" fill="#1D498F"/>
<path d="M78.9465 94.3183C78.3116 94.6357 76.9081 94.9699 75.0702 94.9699C69.8405 94.9699 67.1505 91.7118 67.1505 87.4178C67.1505 82.2549 70.8263 79.3811 75.4044 79.3811C77.1755 79.3811 78.5288 79.7487 79.1303 80.0494L78.4286 82.7562C77.7268 82.4721 76.7745 82.1881 75.5548 82.1881C72.848 82.1881 70.7261 83.8255 70.7261 87.1839C70.7261 90.2081 72.5139 92.1128 75.5715 92.1128C76.6074 92.1128 77.7436 91.8956 78.4286 91.6116L78.9465 94.2849V94.3183Z" fill="#1D498F"/>
<path d="M84.4101 82.5054H80.35V79.6316H91.9623V82.5054H87.8353V94.7526H84.4101V82.5054Z" fill="#1D498F"/>
<path d="M98.8628 92.2799C99.2805 92.33 99.6648 92.33 100.35 92.2799C101.386 92.213 102.438 91.929 103.224 91.3776C104.159 90.726 104.794 89.7904 105.062 88.6876H104.995C104.343 89.3392 103.407 89.7235 102.071 89.7235C99.598 89.7235 97.5095 88.0026 97.5095 85.1622C97.5095 82.3218 99.7985 79.9158 103.006 79.9158C106.749 79.9158 108.52 82.7896 108.52 86.1981C108.52 89.2223 107.551 91.4445 105.964 92.8981C104.577 94.1512 102.672 94.853 100.4 94.9365C99.8152 94.9866 99.2304 94.9532 98.8461 94.9365V92.2632L98.8628 92.2799ZM100.918 84.9617C100.918 86.2148 101.586 87.3008 102.973 87.3008C103.892 87.3008 104.544 86.8497 104.861 86.3317C104.978 86.1312 105.045 85.914 105.045 85.4796C105.045 83.9258 104.46 82.4053 102.906 82.4053C101.737 82.4053 100.885 83.4412 100.918 84.9617Z" fill="#1D498F"/>
<path d="M110.241 94.7528V92.6977L112.129 90.9935C115.32 88.1531 116.858 86.499 116.908 84.8114C116.908 83.6251 116.189 82.6728 114.502 82.6728C113.249 82.6728 112.146 83.3077 111.377 83.8758L110.408 81.4364C111.511 80.601 113.215 79.9326 115.187 79.9326C118.478 79.9326 120.3 81.8541 120.3 84.5107C120.3 86.9501 118.528 88.905 116.423 90.793L115.07 91.9124V91.9626H120.567V94.7696H110.224L110.241 94.7528Z" fill="#1D498F"/>
<path d="M127.05 83.1905H126.999L124.226 84.5104L123.658 81.954L127.517 80.1663H130.341V94.7526H127.05V83.2072V83.1905Z" fill="#1D498F"/>
<path d="M139.497 83.1905H139.447L136.674 84.5104L136.106 81.954L139.965 80.1663H142.789V94.7526H139.497V83.2072V83.1905Z" fill="#1D498F"/>
</svg>
