<svg width="81" height="82" viewBox="0 0 81 82" fill="none" xmlns="http://www.w3.org/2000/svg">
<g filter="url(#filter0_dd_203_957)">
<path d="M69.3166 37.0215C69.3166 20.9028 56.2623 7.83667 40.1583 7.83667C24.0543 7.83667 11 20.9028 11 37.0215C11 51.588 21.6611 63.6641 35.601 65.8519V45.4571H28.1969V37.0215H35.601V30.5922C35.601 23.2765 39.9553 19.2382 46.6163 19.2382C49.8086 19.2382 53.1435 19.809 53.1435 19.809V26.9906H49.4674C45.8474 26.9906 44.7156 29.2389 44.7156 31.5478V37.0215H52.8022L51.5106 45.4571H44.7156V65.8519C58.6555 63.6641 69.3166 51.588 69.3166 37.0215Z" fill="#FF4D0B"/>
<path d="M51.5061 45.4571L52.7977 37.0216H44.7112V31.5478C44.7112 29.239 45.8386 26.9906 49.4629 26.9906H53.139V19.809C53.139 19.809 49.8041 19.2383 46.6118 19.2383C39.9508 19.2383 35.5965 23.2766 35.5965 30.5923V37.0216H28.1924V45.4571H35.5965V65.8519C37.0825 66.0854 38.603 66.2065 40.1538 66.2065C41.7046 66.2065 43.2252 66.0854 44.7112 65.8519V45.4571H51.5061Z" fill="white"/>
</g>
<defs>
<filter id="filter0_dd_203_957" x="0" y="0.83667" width="80.3166" height="80.3699" filterUnits="userSpaceOnUse" color-interpolation-filters="sRGB">
<feFlood flood-opacity="0" result="BackgroundImageFix"/>
<feColorMatrix in="SourceAlpha" type="matrix" values="0 0 0 0 0 0 0 0 0 0 0 0 0 0 0 0 0 0 127 0" result="hardAlpha"/>
<feOffset dy="1"/>
<feGaussianBlur stdDeviation="1.5"/>
<feColorMatrix type="matrix" values="0 0 0 0 0 0 0 0 0 0 0 0 0 0 0 0 0 0 0.3 0"/>
<feBlend mode="normal" in2="BackgroundImageFix" result="effect1_dropShadow_203_957"/>
<feColorMatrix in="SourceAlpha" type="matrix" values="0 0 0 0 0 0 0 0 0 0 0 0 0 0 0 0 0 0 127 0" result="hardAlpha"/>
<feMorphology radius="3" operator="dilate" in="SourceAlpha" result="effect2_dropShadow_203_957"/>
<feOffset dy="4"/>
<feGaussianBlur stdDeviation="4"/>
<feColorMatrix type="matrix" values="0 0 0 0 0 0 0 0 0 0 0 0 0 0 0 0 0 0 0.15 0"/>
<feBlend mode="normal" in2="effect1_dropShadow_203_957" result="effect2_dropShadow_203_957"/>
<feBlend mode="normal" in="SourceGraphic" in2="effect2_dropShadow_203_957" result="shape"/>
</filter>
</defs>
</svg>
