<svg width="81" height="82" viewBox="0 0 81 82" fill="none" xmlns="http://www.w3.org/2000/svg">
<g filter="url(#filter0_dd_203_965)">
<path d="M40.3915 66.2064C56.4951 66.2064 69.5497 53.1399 69.5497 37.0215C69.5497 20.9032 56.4951 7.83667 40.3915 7.83667C24.2878 7.83667 11.2332 20.9032 11.2332 37.0215C11.2332 53.1399 24.2878 66.2064 40.3915 66.2064Z" fill="#FF4D0B"/>
<path d="M40.3916 21.9577C45.2945 21.9577 45.8734 21.975 47.8086 22.0658C49.597 22.1479 50.569 22.4463 51.2169 22.697C52.0722 23.03 52.6856 23.4278 53.3293 24.072C53.9729 24.7162 54.3703 25.3259 54.703 26.1863C54.9535 26.8348 55.2515 27.8077 55.3336 29.5977C55.42 31.5347 55.4416 32.1184 55.4416 37.0214C55.4416 41.9245 55.4243 42.5082 55.3336 44.4452C55.2515 46.2352 54.9535 47.208 54.703 47.8566C54.3703 48.7127 53.9729 49.3267 53.3293 49.9709C52.6856 50.6151 52.0765 51.0129 51.2169 51.3458C50.569 51.5966 49.597 51.8949 47.8086 51.9771C45.8734 52.0635 45.2945 52.0852 40.3916 52.0852C35.4887 52.0852 34.9099 52.0679 32.9746 51.9771C31.1862 51.8949 30.2143 51.5966 29.5663 51.3458C28.711 51.0129 28.0976 50.6151 27.454 49.9709C26.8103 49.3267 26.4129 48.717 26.0803 47.8566C25.8298 47.208 25.5317 46.2352 25.4496 44.4452C25.3632 42.5082 25.3416 41.9245 25.3416 37.0214C25.3416 32.1184 25.3589 31.5347 25.4496 29.5977C25.5317 27.8077 25.8298 26.8348 26.0803 26.1863C26.4129 25.3302 26.8103 24.7162 27.454 24.072C28.0976 23.4278 28.7067 23.03 29.5663 22.697C30.2143 22.4463 31.1862 22.1479 32.9746 22.0658C34.9099 21.9793 35.493 21.9577 40.3916 21.9577ZM40.3916 18.6458C35.4066 18.6458 34.7803 18.6674 32.8234 18.7582C30.8709 18.849 29.5361 19.1559 28.3654 19.6143C27.1602 20.0855 26.1365 20.7125 25.1127 21.7329C24.0932 22.7533 23.4625 23.778 22.996 24.9886C22.5424 26.156 22.2314 27.492 22.1407 29.4507C22.05 31.4093 22.0284 32.0362 22.0284 37.0258C22.0284 42.0153 22.05 42.6422 22.1407 44.6009C22.2314 46.5552 22.5381 47.8912 22.996 49.0629C23.4669 50.2692 24.0932 51.2939 25.1127 52.3186C26.1321 53.339 27.1559 53.9703 28.3654 54.4373C29.5318 54.8912 30.8666 55.2026 32.8234 55.2934C34.7803 55.3841 35.4066 55.4058 40.3916 55.4058C45.3766 55.4058 46.003 55.3841 47.9598 55.2934C49.9123 55.2026 51.2471 54.8956 52.4178 54.4373C53.623 53.966 54.6468 53.339 55.6706 52.3186C56.69 51.2983 57.3207 50.2735 57.7872 49.0629C58.2408 47.8955 58.5518 46.5595 58.6426 44.6009C58.7333 42.6422 58.7549 42.0153 58.7549 37.0258C58.7549 32.0362 58.7333 31.4093 58.6426 29.4507C58.5518 27.4963 58.2451 26.1603 57.7872 24.9886C57.3164 23.7823 56.69 22.7576 55.6706 21.7329C54.6511 20.7125 53.6273 20.0812 52.4178 19.6143C51.2515 19.1603 49.9167 18.849 47.9598 18.7582C46.003 18.6674 45.3766 18.6458 40.3916 18.6458Z" fill="white"/>
<path d="M40.3916 27.5872C35.1863 27.5872 30.9659 31.8114 30.9659 37.0214C30.9659 42.2315 35.1863 46.4557 40.3916 46.4557C45.5969 46.4557 49.8173 42.2315 49.8173 37.0214C49.8173 31.8114 45.5969 27.5872 40.3916 27.5872ZM40.3916 43.1481C37.0136 43.1481 34.2705 40.4069 34.2705 37.0214C34.2705 33.636 37.0093 30.8948 40.3916 30.8948C43.774 30.8948 46.5127 33.636 46.5127 37.0214C46.5127 40.4069 43.774 43.1481 40.3916 43.1481Z" fill="white"/>
<path d="M50.193 29.4163C51.4098 29.4163 52.3961 28.429 52.3961 27.2112C52.3961 25.9934 51.4098 25.0061 50.193 25.0061C48.9763 25.0061 47.9899 25.9934 47.9899 27.2112C47.9899 28.429 48.9763 29.4163 50.193 29.4163Z" fill="white"/>
</g>
<defs>
<filter id="filter0_dd_203_965" x="0.233154" y="0.83667" width="80.3166" height="80.3699" filterUnits="userSpaceOnUse" color-interpolation-filters="sRGB">
<feFlood flood-opacity="0" result="BackgroundImageFix"/>
<feColorMatrix in="SourceAlpha" type="matrix" values="0 0 0 0 0 0 0 0 0 0 0 0 0 0 0 0 0 0 127 0" result="hardAlpha"/>
<feOffset dy="1"/>
<feGaussianBlur stdDeviation="1.5"/>
<feColorMatrix type="matrix" values="0 0 0 0 0 0 0 0 0 0 0 0 0 0 0 0 0 0 0.3 0"/>
<feBlend mode="normal" in2="BackgroundImageFix" result="effect1_dropShadow_203_965"/>
<feColorMatrix in="SourceAlpha" type="matrix" values="0 0 0 0 0 0 0 0 0 0 0 0 0 0 0 0 0 0 127 0" result="hardAlpha"/>
<feMorphology radius="3" operator="dilate" in="SourceAlpha" result="effect2_dropShadow_203_965"/>
<feOffset dy="4"/>
<feGaussianBlur stdDeviation="4"/>
<feColorMatrix type="matrix" values="0 0 0 0 0 0 0 0 0 0 0 0 0 0 0 0 0 0 0.15 0"/>
<feBlend mode="normal" in2="effect1_dropShadow_203_965" result="effect2_dropShadow_203_965"/>
<feBlend mode="normal" in="SourceGraphic" in2="effect2_dropShadow_203_965" result="shape"/>
</filter>
</defs>
</svg>
