<svg width="325" height="209" viewBox="0 0 325 209" fill="none" xmlns="http://www.w3.org/2000/svg">
<g clip-path="url(#clip0_156_930)">
<path d="M0 161.56L42.26 208.7H0V161.56Z" fill="#101010"/>
<path d="M158.3 147.36C158.3 189.71 122.48 208.7 77.2 208.7H57.09L0 145.03V0.5H71.25C114.47 0.5 148.04 12.37 148.04 52.14C148.04 62.09 145.07 72.39 139.73 80.8C135.94 86.77 130.95 91.8 124.98 95.06C123.58 95.84 122.12 96.51 120.61 97.08V98.36C130.68 100.96 139.65 105.85 146.3 113.22C148.3 115.41 150.08 117.82 151.61 120.46C155.85 127.7 158.3 136.62 158.3 147.36Z" fill="white"/>
<path d="M146.3 113.22C148.3 115.41 150.08 117.82 151.61 120.46C149.26 125.33 146.48 131.55 143.31 139.01C141.3 143.85 138.92 146.21 136.05 146.21C135.13 146.21 134.33 145.8 133.73 145.03C133.28 144.53 133.03 143.85 133.03 143.07C133.03 142.44 133.3 141.1 135.37 136.33C138.59 128.73 141.08 123.18 142.79 119.86C143.93 117.63 145.1 115.42 146.3 113.22Z" fill="white"/>
<path d="M224.49 58.3799C224.49 59.9499 223.63 62.2499 221.86 65.3999C221.44 66.1899 218.9 70.6499 216.85 74.2499C211.52 83.6999 207.86 90.5299 205.97 94.5599C200.76 105.61 196.9 115.16 194.48 122.93C193.1 127.48 192.39 130.85 192.39 132.95C192.39 133.39 192.43 133.85 192.5 134.32C192.78 136.51 192.82 137.04 192.82 137.28C192.82 138.7 192.28 140.03 191.23 141.23C190.28 142.38 189.14 142.98 187.85 142.98C186.8 142.98 185.31 142.54 184.17 140.44C183.48 139.29 183.13 137.73 183.13 135.69C183.13 124.88 191.08 105.19 207.4 75.6599C199.09 85.6799 190.04 98.6899 180.41 114.49C177.64 118.97 175.41 121.94 173.57 123.57C171.68 125.23 169.81 126.07 168.02 126.07C166.12 126.07 164.63 125.2 163.73 123.54C163.16 122.5 162.87 121.29 162.87 119.95C162.87 110.85 167.67 97.0399 177.14 78.8399C175.04 81.3999 172.98 84.1499 170.98 87.0699C164.82 96.2299 159.18 105.71 154.19 115.33C152.59 112.95 150.79 110.76 148.8 108.76C156.2 95.7599 164.63 83.3099 173.95 71.6099C179.04 65.2399 182.46 61.2199 184.41 59.3099C188.12 55.7499 190.74 55.2799 193.12 57.5299C194.25 58.5699 194.83 59.7999 194.83 61.1899C194.83 62.5799 193.97 64.7099 192.13 67.7499C187.29 75.6399 182.78 84.6299 178.71 94.4599C176.11 101.02 174.19 106.9 172.96 112C174.5 109.65 176.55 106.5 179.14 102.5C183.17 96.2799 189.67 87.2099 198.47 75.5299C203.59 68.7499 208.29 62.9799 212.43 58.3799C215.14 55.3699 217.54 53.8999 219.77 53.8999C221.15 53.8999 222.31 54.3999 223.24 55.3699C224.05 56.1399 224.49 57.1599 224.49 58.3799Z" fill="white"/>
<path d="M237.32 112.55C238.58 110.39 239.17 108.9 239.17 107.84C239.17 107.1 238.91 106.32 238.38 105.47C238.99 103.98 239.29 102.8 239.29 101.86C239.29 100.4 238.69 99.0901 237.51 97.9501C236.18 96.7201 234.52 96.1001 232.55 96.1001C229.63 96.1001 226.58 97.2301 223.48 99.4601C218.9 102.79 214.94 107.61 211.71 113.78C208.8 119.35 207.33 124.54 207.33 129.19C207.33 131.19 207.76 132.96 208.63 134.46C210.03 136.85 212.05 138.07 214.61 138.07C217.44 138.07 220.27 136.34 223.02 132.93C223.66 132.13 224.31 131.24 224.96 130.26V130.35C224.96 132.98 225.7 135.21 227.14 136.97C228.92 139.15 231.09 140.26 233.59 140.26C234.65 140.26 235.59 139.91 236.38 139.23C237.17 138.55 237.58 137.64 237.58 136.58C237.58 134.97 236.86 133.77 235.48 133.11C233.67 132.26 233.31 131.96 233.29 131.93C232.44 131.02 232.03 129.86 232.03 128.4C232.03 126.41 232.64 123.69 233.86 120.32C235.01 117.1 236.18 114.49 237.32 112.55ZM231.24 107.45C230.55 108.44 229.51 110.36 228.05 113.32C225.92 117.7 224.11 121.06 222.68 123.28C219.69 128.05 217.77 129.05 216.69 129.05C216.11 129.05 215.89 128.85 215.76 128.66C215.5 128.32 215.37 127.72 215.37 126.94C215.37 123.01 217.33 118.08 221.18 112.3C224.59 107.21 227.7 104.63 230.42 104.63C230.85 104.63 231.25 104.77 231.65 105.07C231.95 105.3 232.25 105.62 232.54 106.04C231.95 106.57 231.52 107.04 231.24 107.45Z" fill="white"/>
<path d="M281.3 116.72C279.85 116.72 278.53 117.76 277.26 119.91C276.19 121.77 274.45 124.26 272.09 127.3C269.72 130.36 268.52 130.7 268.12 130.7C267.83 130.7 267.23 130.7 267.04 129.16C266.92 128.02 266.86 125.9 266.86 122.86C266.86 122.66 266.87 122.33 266.9 121.87C270.68 116.73 286.84 100.96 292.17 96.22C293.65 94.93 294.4 93.61 294.4 92.29C294.4 91.55 294.17 90.86 293.69 90.2C293.04 89.39 292.28 89.22 291.75 89.22C289.41 89.22 273.02 104.84 270.29 107.92C268.91 109.45 267.78 110.71 266.91 111.69C266.91 111.58 266.91 111.49 266.91 111.4C266.91 109.9 266.97 108.65 267.09 107.67C267.22 106.56 267.28 105.73 267.28 105.11C267.28 104.07 266.94 103.12 266.22 102.23C265.55 101.5 264.66 101.11 263.66 101.11C262.16 101.11 260.95 101.86 260.17 103.26C259.58 104.29 259.29 106.07 259.24 108.88C259.24 109.31 259.18 110.89 259.06 113.59C258.98 115.21 258.94 116.61 258.94 117.73C258.94 118.85 258.99 119.92 259.09 121.05C258.32 121.93 257 123.48 255.15 125.69C253.2 128.04 250.89 130.41 248.31 132.71C248.16 132.84 231.65 147.72 231.18 148.37C230.51 149.2 230.16 150.13 230.16 151.14C230.16 154.77 231.97 155.31 233.05 155.31H233.2C242.93 153.79 247.99 146.2 252.88 138.87L253.13 138.5C254.36 136.66 255.56 134.88 256.8 133.21C257.56 132.19 258.37 131.15 259.25 130.21C259.41 132.32 259.61 133.94 259.87 135.12C260.7 139.53 263.29 140.45 265.31 140.45C267.33 140.45 269.29 139.52 271.35 137.69C273.14 136.07 275.2 133.7 277.46 130.65C282.94 123.25 283.58 120.6 283.58 119.25C283.58 117.39 282.4 116.72 281.3 116.72Z" fill="white"/>
<path d="M301.78 101.12C300.73 101.12 299.72 101.62 298.82 102.57C298.69 102.7 298.61 102.77 298.57 102.82C298.43 102.95 298.35 103.04 298.25 103.23C298.2 103.32 298.06 103.59 297.37 104.6C292.79 111.22 289.43 117.37 287.37 122.88C283.81 132.33 283.4 134.57 283.4 135.44C283.4 136.31 283.71 137.08 284.27 137.75C284.95 138.65 285.9 139.13 287.02 139.13C288.3 139.13 290.03 138.48 291.02 135.38C292.47 130.83 294.16 126.35 296.05 122.04L296.62 120.69C298.13 117.08 299.32 114.23 303.02 108.5C304.35 106.58 304.97 105.23 304.97 104.27C304.97 103.61 304.74 102.96 304.24 102.28C303.6 101.53 302.75 101.13 301.77 101.13L301.78 101.12Z" fill="white"/>
<path d="M320.34 76.03C318.78 76.03 317.15 76.93 315.36 78.77C313.02 81.15 311.84 83.48 311.84 85.69C311.84 86.72 312.18 87.61 312.81 88.29C313.48 89.08 314.4 89.49 315.46 89.49C317.34 89.49 319.26 88.37 321.16 86.15C323.1 83.9 324.09 81.77 324.09 79.82C324.09 77.4 322.72 76.01 320.34 76.01V76.03Z" fill="white"/>
<path d="M174.96 168.19C174.65 167.62 174.21 167.19 173.63 166.88C173.05 166.58 172.37 166.43 171.59 166.43C170.24 166.43 169.16 166.87 168.35 167.76C167.54 168.65 167.13 169.83 167.13 171.31C167.13 172.89 167.56 174.12 168.41 175C169.26 175.89 170.44 176.33 171.93 176.33C172.95 176.33 173.82 176.07 174.53 175.55C175.24 175.03 175.75 174.28 176.08 173.31H170.79V170.24H179.86V174.12C179.55 175.16 179.03 176.13 178.29 177.02C177.55 177.92 176.61 178.64 175.47 179.19C174.33 179.74 173.05 180.02 171.62 180.02C169.93 180.02 168.42 179.65 167.1 178.91C165.78 178.17 164.74 177.14 164 175.83C163.26 174.51 162.89 173.01 162.89 171.32C162.89 169.63 163.26 168.12 164 166.8C164.74 165.48 165.77 164.44 167.09 163.7C168.41 162.96 169.91 162.59 171.6 162.59C173.65 162.59 175.38 163.09 176.78 164.08C178.19 165.07 179.12 166.45 179.57 168.2H174.96V168.19Z" fill="#101010"/>
<path d="M188.18 166.78C188.91 166.35 189.73 166.13 190.62 166.13V170.54H189.47C188.43 170.54 187.65 170.76 187.13 171.21C186.61 171.66 186.35 172.44 186.35 173.56V179.88H182.18V166.27H186.35V168.54C186.84 167.79 187.45 167.2 188.18 166.77V166.78Z" fill="#101010"/>
<path d="M192.58 169.38C193.11 168.32 193.83 167.51 194.74 166.94C195.65 166.37 196.67 166.09 197.79 166.09C198.75 166.09 199.59 166.28 200.31 166.68C201.03 167.08 201.59 167.58 201.98 168.22V166.29H206.15V179.9H201.98V177.97C201.57 178.61 201.01 179.12 200.29 179.51C199.57 179.9 198.73 180.1 197.77 180.1C196.66 180.1 195.66 179.81 194.75 179.23C193.84 178.65 193.12 177.83 192.59 176.77C192.06 175.71 191.8 174.47 191.8 173.07C191.8 171.67 192.06 170.44 192.59 169.39L192.58 169.38ZM201.11 170.62C200.53 170.02 199.83 169.72 199 169.72C198.17 169.72 197.47 170.02 196.89 170.61C196.31 171.21 196.02 172.02 196.02 173.06C196.02 174.1 196.31 174.93 196.89 175.54C197.47 176.15 198.17 176.45 199 176.45C199.83 176.45 200.53 176.15 201.11 175.55C201.69 174.95 201.98 174.13 201.98 173.09C201.98 172.05 201.69 171.23 201.11 170.63V170.62Z" fill="#101010"/>
<path d="M215.03 166.67C215.75 166.28 216.58 166.08 217.54 166.08C218.66 166.08 219.68 166.36 220.59 166.93C221.5 167.5 222.22 168.31 222.75 169.37C223.28 170.43 223.54 171.65 223.54 173.05C223.54 174.45 223.28 175.68 222.75 176.75C222.22 177.82 221.5 178.64 220.59 179.21C219.68 179.79 218.66 180.08 217.54 180.08C216.6 180.08 215.76 179.89 215.04 179.49C214.32 179.1 213.75 178.6 213.35 177.98V186.37H209.18V166.27H213.35V168.2C213.76 167.57 214.32 167.05 215.03 166.66V166.67ZM218.43 170.61C217.85 170.02 217.14 169.72 216.3 169.72C215.46 169.72 214.77 170.02 214.19 170.62C213.61 171.22 213.32 172.04 213.32 173.08C213.32 174.12 213.61 174.94 214.19 175.54C214.77 176.14 215.47 176.44 216.3 176.44C217.13 176.44 217.84 176.14 218.42 175.53C219.01 174.92 219.3 174.1 219.3 173.05C219.3 172 219.01 171.19 218.43 170.6V170.61Z" fill="#101010"/>
<path d="M237.85 167.69C238.79 168.72 239.26 170.14 239.26 171.95V179.9H235.11V172.51C235.11 171.6 234.87 170.89 234.4 170.39C233.93 169.89 233.29 169.63 232.5 169.63C231.71 169.63 231.07 169.88 230.6 170.39C230.13 170.9 229.89 171.6 229.89 172.51V179.9H225.72V161.85H229.89V168.12C230.31 167.52 230.89 167.04 231.62 166.68C232.35 166.32 233.17 166.14 234.08 166.14C235.64 166.14 236.89 166.66 237.84 167.69H237.85Z" fill="#101010"/>
<path d="M242.47 164.22C242.01 163.79 241.77 163.26 241.77 162.62C241.77 161.98 242 161.43 242.47 161C242.94 160.57 243.53 160.35 244.26 160.35C244.99 160.35 245.56 160.57 246.03 161C246.5 161.43 246.72 161.97 246.72 162.62C246.72 163.27 246.49 163.79 246.03 164.22C245.57 164.65 244.98 164.87 244.26 164.87C243.54 164.87 242.93 164.65 242.47 164.22ZM246.34 166.28V179.89H242.17V166.28H246.34Z" fill="#101010"/>
<path d="M249.4 169.38C249.98 168.32 250.78 167.51 251.81 166.94C252.84 166.37 254.02 166.09 255.36 166.09C257.07 166.09 258.49 166.54 259.64 167.43C260.79 168.32 261.54 169.58 261.9 171.21H257.46C257.09 170.17 256.36 169.65 255.29 169.65C254.52 169.65 253.92 169.95 253.46 170.54C253.01 171.13 252.78 171.98 252.78 173.09C252.78 174.2 253.01 175.04 253.46 175.64C253.92 176.23 254.52 176.53 255.29 176.53C256.36 176.53 257.09 176.01 257.46 174.97H261.9C261.54 176.56 260.79 177.81 259.63 178.72C258.47 179.63 257.05 180.09 255.36 180.09C254.03 180.09 252.84 179.81 251.81 179.24C250.78 178.67 249.97 177.86 249.4 176.8C248.82 175.74 248.53 174.51 248.53 173.09C248.53 171.67 248.82 170.44 249.4 169.38Z" fill="#101010"/>
<path d="M266.48 179.48C265.55 179.07 264.82 178.52 264.28 177.81C263.74 177.1 263.44 176.31 263.38 175.43H267.5C267.55 175.9 267.77 176.28 268.16 176.58C268.55 176.87 269.03 177.02 269.6 177.02C270.12 177.02 270.52 176.92 270.81 176.71C271.09 176.51 271.24 176.24 271.24 175.92C271.24 175.53 271.04 175.24 270.63 175.05C270.22 174.86 269.56 174.66 268.65 174.43C267.67 174.2 266.86 173.96 266.21 173.71C265.56 173.46 265 173.06 264.53 172.52C264.06 171.98 263.82 171.24 263.82 170.31C263.82 169.53 264.04 168.82 264.47 168.18C264.9 167.54 265.53 167.03 266.37 166.66C267.21 166.28 268.2 166.1 269.36 166.1C271.07 166.1 272.41 166.52 273.4 167.37C274.38 168.22 274.95 169.34 275.09 170.74H271.24C271.17 170.27 270.97 169.89 270.62 169.62C270.27 169.34 269.81 169.21 269.24 169.21C268.75 169.21 268.38 169.3 268.12 169.49C267.86 169.68 267.73 169.93 267.73 170.26C267.73 170.65 267.94 170.94 268.35 171.14C268.76 171.34 269.41 171.53 270.29 171.73C271.3 171.99 272.12 172.25 272.75 172.5C273.38 172.75 273.94 173.16 274.42 173.72C274.9 174.28 275.15 175.03 275.16 175.97C275.16 176.77 274.94 177.48 274.49 178.11C274.04 178.74 273.4 179.23 272.56 179.58C271.72 179.93 270.75 180.12 269.65 180.12C268.46 180.12 267.41 179.92 266.48 179.51V179.48Z" fill="#101010"/>
<path d="M287.06 176.67H292.52V179.89H282.89V162.77H287.06V176.67Z" fill="#101010"/>
<path d="M302.11 176.36V179.9H299.99C298.48 179.9 297.3 179.53 296.45 178.79C295.6 178.05 295.18 176.84 295.18 175.17V169.76H293.52V166.3H295.18V162.98H299.35V166.3H302.08V169.76H299.35V175.22C299.35 175.63 299.45 175.92 299.64 176.1C299.83 176.28 300.16 176.37 300.62 176.37H302.11V176.36Z" fill="#101010"/>
<path d="M304.39 169.38C304.92 168.32 305.64 167.51 306.55 166.94C307.46 166.37 308.48 166.09 309.6 166.09C310.49 166.09 311.31 166.28 312.05 166.65C312.79 167.02 313.37 167.53 313.79 168.16V161.84H317.96V179.89H313.79V177.94C313.4 178.59 312.84 179.11 312.12 179.5C311.4 179.89 310.56 180.09 309.6 180.09C308.48 180.09 307.46 179.8 306.55 179.22C305.64 178.64 304.92 177.82 304.39 176.76C303.86 175.7 303.6 174.46 303.6 173.06C303.6 171.66 303.86 170.43 304.39 169.38ZM312.92 170.62C312.34 170.02 311.64 169.72 310.81 169.72C309.98 169.72 309.28 170.02 308.7 170.61C308.12 171.21 307.83 172.02 307.83 173.06C307.83 174.1 308.12 174.93 308.7 175.54C309.28 176.15 309.98 176.45 310.81 176.45C311.64 176.45 312.34 176.15 312.92 175.55C313.5 174.95 313.79 174.13 313.79 173.09C313.79 172.05 313.5 171.23 312.92 170.63V170.62Z" fill="#101010"/>
</g>
<defs>
<clipPath id="clip0_156_930">
<rect width="324.09" height="208.2" fill="white" transform="translate(0 0.5)"/>
</clipPath>
</defs>
</svg>
