<svg width="325" height="209" viewBox="0 0 325 209" fill="none" xmlns="http://www.w3.org/2000/svg">
<g clip-path="url(#clip0_72_487)">
<path d="M0 161.06L42.26 208.2H0V161.06Z" fill="#FF4D0B"/>
<path d="M158.3 146.86C158.3 189.21 122.48 208.2 77.2 208.2H57.09L0 144.53V0H71.25C114.47 0 148.04 11.87 148.04 51.64C148.04 61.59 145.07 71.89 139.73 80.3C135.94 86.27 130.95 91.3 124.98 94.56C123.58 95.34 122.12 96.01 120.61 96.58V97.86C130.68 100.46 139.65 105.35 146.3 112.72C148.3 114.91 150.08 117.32 151.61 119.96C155.85 127.2 158.3 136.12 158.3 146.86Z" fill="#231F20"/>
<path d="M146.3 112.72C148.3 114.91 150.08 117.32 151.61 119.96C149.26 124.83 146.48 131.05 143.31 138.51C141.3 143.35 138.92 145.71 136.05 145.71C135.13 145.71 134.33 145.3 133.73 144.53C133.28 144.03 133.03 143.35 133.03 142.57C133.03 141.94 133.3 140.6 135.37 135.83C138.59 128.23 141.08 122.68 142.79 119.36C143.93 117.13 145.1 114.92 146.3 112.72Z" fill="#231F20"/>
<path d="M224.49 57.8799C224.49 59.4499 223.63 61.7499 221.86 64.8999C221.44 65.6899 218.9 70.1499 216.85 73.7499C211.52 83.1999 207.86 90.0299 205.97 94.0599C200.76 105.11 196.9 114.66 194.48 122.43C193.1 126.98 192.39 130.35 192.39 132.45C192.39 132.89 192.43 133.35 192.5 133.82C192.78 136.01 192.82 136.54 192.82 136.78C192.82 138.2 192.28 139.53 191.23 140.73C190.28 141.88 189.14 142.48 187.85 142.48C186.8 142.48 185.31 142.04 184.17 139.94C183.48 138.79 183.13 137.23 183.13 135.19C183.13 124.38 191.08 104.69 207.4 75.1599C199.09 85.1799 190.04 98.1899 180.41 113.99C177.64 118.47 175.41 121.44 173.57 123.07C171.68 124.73 169.81 125.57 168.02 125.57C166.12 125.57 164.63 124.7 163.73 123.04C163.16 122 162.87 120.79 162.87 119.45C162.87 110.35 167.67 96.5399 177.14 78.3399C175.04 80.8999 172.98 83.6499 170.98 86.5699C164.82 95.7299 159.18 105.21 154.19 114.83C152.59 112.45 150.79 110.26 148.8 108.26C156.2 95.2599 164.63 82.8099 173.95 71.1099C179.04 64.7399 182.46 60.7199 184.41 58.8099C188.12 55.2499 190.74 54.7799 193.12 57.0299C194.25 58.0699 194.83 59.2999 194.83 60.6899C194.83 62.0799 193.97 64.2099 192.13 67.2499C187.29 75.1399 182.78 84.1299 178.71 93.9599C176.11 100.52 174.19 106.4 172.96 111.5C174.5 109.15 176.55 106 179.14 102C183.17 95.7799 189.67 86.7099 198.47 75.0299C203.59 68.2499 208.29 62.4799 212.43 57.8799C215.14 54.8699 217.54 53.3999 219.77 53.3999C221.15 53.3999 222.31 53.8999 223.24 54.8699C224.05 55.6399 224.49 56.6599 224.49 57.8799Z" fill="#231F20"/>
<path d="M237.32 112.05C238.58 109.89 239.17 108.4 239.17 107.34C239.17 106.6 238.91 105.82 238.38 104.97C238.99 103.48 239.29 102.3 239.29 101.36C239.29 99.9001 238.69 98.5901 237.51 97.4501C236.18 96.2201 234.52 95.6001 232.55 95.6001C229.63 95.6001 226.58 96.7301 223.48 98.9601C218.9 102.29 214.94 107.11 211.71 113.28C208.8 118.85 207.33 124.04 207.33 128.69C207.33 130.69 207.76 132.46 208.63 133.96C210.03 136.35 212.05 137.57 214.61 137.57C217.44 137.57 220.27 135.84 223.02 132.43C223.66 131.63 224.31 130.74 224.96 129.76V129.85C224.96 132.48 225.7 134.71 227.14 136.47C228.92 138.65 231.09 139.76 233.59 139.76C234.65 139.76 235.59 139.41 236.38 138.73C237.17 138.05 237.58 137.14 237.58 136.08C237.58 134.47 236.86 133.27 235.48 132.61C233.67 131.76 233.31 131.46 233.29 131.43C232.44 130.52 232.03 129.36 232.03 127.9C232.03 125.91 232.64 123.19 233.86 119.82C235.01 116.6 236.18 113.99 237.32 112.05ZM231.24 106.95C230.55 107.94 229.51 109.86 228.05 112.82C225.92 117.2 224.11 120.56 222.68 122.78C219.69 127.55 217.77 128.55 216.69 128.55C216.11 128.55 215.89 128.35 215.76 128.16C215.5 127.82 215.37 127.22 215.37 126.44C215.37 122.51 217.33 117.58 221.18 111.8C224.59 106.71 227.7 104.13 230.42 104.13C230.85 104.13 231.25 104.27 231.65 104.57C231.95 104.8 232.25 105.12 232.54 105.54C231.95 106.07 231.52 106.54 231.24 106.95Z" fill="#231F20"/>
<path d="M281.3 116.22C279.85 116.22 278.53 117.26 277.26 119.41C276.19 121.27 274.45 123.76 272.09 126.8C269.72 129.86 268.52 130.2 268.12 130.2C267.83 130.2 267.23 130.2 267.04 128.66C266.92 127.52 266.86 125.4 266.86 122.36C266.86 122.16 266.87 121.83 266.9 121.37C270.68 116.23 286.84 100.46 292.17 95.72C293.65 94.43 294.4 93.11 294.4 91.79C294.4 91.05 294.17 90.36 293.69 89.7C293.04 88.89 292.28 88.72 291.75 88.72C289.41 88.72 273.02 104.34 270.29 107.42C268.91 108.95 267.78 110.21 266.91 111.19C266.91 111.08 266.91 110.99 266.91 110.9C266.91 109.4 266.97 108.15 267.09 107.17C267.22 106.06 267.28 105.23 267.28 104.61C267.28 103.57 266.94 102.62 266.22 101.73C265.55 101 264.66 100.61 263.66 100.61C262.16 100.61 260.95 101.36 260.17 102.76C259.58 103.79 259.29 105.57 259.24 108.38C259.24 108.81 259.18 110.39 259.06 113.09C258.98 114.71 258.94 116.11 258.94 117.23C258.94 118.35 258.99 119.42 259.09 120.55C258.32 121.43 257 122.98 255.15 125.19C253.2 127.54 250.89 129.91 248.31 132.21C248.16 132.34 231.65 147.22 231.18 147.87C230.51 148.7 230.16 149.63 230.16 150.64C230.16 154.27 231.97 154.81 233.05 154.81H233.2C242.93 153.29 247.99 145.7 252.88 138.37L253.13 138C254.36 136.16 255.56 134.38 256.8 132.71C257.56 131.69 258.37 130.65 259.25 129.71C259.41 131.82 259.61 133.44 259.87 134.62C260.7 139.03 263.29 139.95 265.31 139.95C267.33 139.95 269.29 139.02 271.35 137.19C273.14 135.57 275.2 133.2 277.46 130.15C282.94 122.75 283.58 120.1 283.58 118.75C283.58 116.89 282.4 116.22 281.3 116.22Z" fill="#231F20"/>
<path d="M301.78 100.62C300.73 100.62 299.72 101.12 298.82 102.07C298.69 102.2 298.61 102.27 298.57 102.32C298.43 102.45 298.35 102.54 298.25 102.73C298.2 102.82 298.06 103.09 297.37 104.1C292.79 110.72 289.43 116.87 287.37 122.38C283.81 131.83 283.4 134.07 283.4 134.94C283.4 135.81 283.71 136.58 284.27 137.25C284.95 138.15 285.9 138.63 287.02 138.63C288.3 138.63 290.03 137.98 291.02 134.88C292.47 130.33 294.16 125.85 296.05 121.54L296.62 120.19C298.13 116.58 299.32 113.73 303.02 108C304.35 106.08 304.97 104.73 304.97 103.77C304.97 103.11 304.74 102.46 304.24 101.78C303.6 101.03 302.75 100.63 301.77 100.63L301.78 100.62Z" fill="#231F20"/>
<path d="M320.34 75.53C318.78 75.53 317.15 76.43 315.36 78.27C313.02 80.65 311.84 82.98 311.84 85.19C311.84 86.22 312.18 87.11 312.81 87.79C313.48 88.58 314.4 88.99 315.46 88.99C317.34 88.99 319.26 87.87 321.16 85.65C323.1 83.4 324.09 81.27 324.09 79.32C324.09 76.9 322.72 75.51 320.34 75.51V75.53Z" fill="#231F20"/>
<path d="M174.96 167.69C174.65 167.12 174.21 166.69 173.63 166.38C173.05 166.08 172.37 165.93 171.59 165.93C170.24 165.93 169.16 166.37 168.35 167.26C167.54 168.15 167.13 169.33 167.13 170.81C167.13 172.39 167.56 173.62 168.41 174.5C169.26 175.39 170.44 175.83 171.93 175.83C172.95 175.83 173.82 175.57 174.53 175.05C175.24 174.53 175.75 173.78 176.08 172.81H170.79V169.74H179.86V173.62C179.55 174.66 179.03 175.63 178.29 176.52C177.55 177.42 176.61 178.14 175.47 178.69C174.33 179.24 173.05 179.52 171.62 179.52C169.93 179.52 168.42 179.15 167.1 178.41C165.78 177.67 164.74 176.64 164 175.33C163.26 174.01 162.89 172.51 162.89 170.82C162.89 169.13 163.26 167.62 164 166.3C164.74 164.98 165.77 163.94 167.09 163.2C168.41 162.46 169.91 162.09 171.6 162.09C173.65 162.09 175.38 162.59 176.78 163.58C178.19 164.57 179.12 165.95 179.57 167.7H174.96V167.69Z" fill="#FF4D0B"/>
<path d="M188.18 166.28C188.91 165.85 189.73 165.63 190.62 165.63V170.04H189.47C188.43 170.04 187.65 170.26 187.13 170.71C186.61 171.16 186.35 171.94 186.35 173.06V179.38H182.18V165.77H186.35V168.04C186.84 167.29 187.45 166.7 188.18 166.27V166.28Z" fill="#FF4D0B"/>
<path d="M192.58 168.88C193.11 167.82 193.83 167.01 194.74 166.44C195.65 165.87 196.67 165.59 197.79 165.59C198.75 165.59 199.59 165.78 200.31 166.18C201.03 166.58 201.59 167.08 201.98 167.72V165.79H206.15V179.4H201.98V177.47C201.57 178.11 201.01 178.62 200.29 179.01C199.57 179.4 198.73 179.6 197.77 179.6C196.66 179.6 195.66 179.31 194.75 178.73C193.84 178.15 193.12 177.33 192.59 176.27C192.06 175.21 191.8 173.97 191.8 172.57C191.8 171.17 192.06 169.94 192.59 168.89L192.58 168.88ZM201.11 170.12C200.53 169.52 199.83 169.22 199 169.22C198.17 169.22 197.47 169.52 196.89 170.11C196.31 170.71 196.02 171.52 196.02 172.56C196.02 173.6 196.31 174.43 196.89 175.04C197.47 175.65 198.17 175.95 199 175.95C199.83 175.95 200.53 175.65 201.11 175.05C201.69 174.45 201.98 173.63 201.98 172.59C201.98 171.55 201.69 170.73 201.11 170.13V170.12Z" fill="#FF4D0B"/>
<path d="M215.03 166.17C215.75 165.78 216.58 165.58 217.54 165.58C218.66 165.58 219.68 165.86 220.59 166.43C221.5 167 222.22 167.81 222.75 168.87C223.28 169.93 223.54 171.15 223.54 172.55C223.54 173.95 223.28 175.18 222.75 176.25C222.22 177.32 221.5 178.14 220.59 178.71C219.68 179.29 218.66 179.58 217.54 179.58C216.6 179.58 215.76 179.39 215.04 178.99C214.32 178.6 213.75 178.1 213.35 177.48V185.87H209.18V165.77H213.35V167.7C213.76 167.07 214.32 166.55 215.03 166.16V166.17ZM218.43 170.11C217.85 169.52 217.14 169.22 216.3 169.22C215.46 169.22 214.77 169.52 214.19 170.12C213.61 170.72 213.32 171.54 213.32 172.58C213.32 173.62 213.61 174.44 214.19 175.04C214.77 175.64 215.47 175.94 216.3 175.94C217.13 175.94 217.84 175.64 218.42 175.03C219.01 174.42 219.3 173.6 219.3 172.55C219.3 171.5 219.01 170.69 218.43 170.1V170.11Z" fill="#FF4D0B"/>
<path d="M237.85 167.19C238.79 168.22 239.26 169.64 239.26 171.45V179.4H235.11V172.01C235.11 171.1 234.87 170.39 234.4 169.89C233.93 169.39 233.29 169.13 232.5 169.13C231.71 169.13 231.07 169.38 230.6 169.89C230.13 170.4 229.89 171.1 229.89 172.01V179.4H225.72V161.35H229.89V167.62C230.31 167.02 230.89 166.54 231.62 166.18C232.35 165.82 233.17 165.64 234.08 165.64C235.64 165.64 236.89 166.16 237.84 167.19H237.85Z" fill="#FF4D0B"/>
<path d="M242.47 163.72C242.01 163.29 241.77 162.76 241.77 162.12C241.77 161.48 242 160.93 242.47 160.5C242.94 160.07 243.53 159.85 244.26 159.85C244.99 159.85 245.56 160.07 246.03 160.5C246.5 160.93 246.72 161.47 246.72 162.12C246.72 162.77 246.49 163.29 246.03 163.72C245.57 164.15 244.98 164.37 244.26 164.37C243.54 164.37 242.93 164.15 242.47 163.72ZM246.34 165.78V179.39H242.17V165.78H246.34Z" fill="#FF4D0B"/>
<path d="M249.399 168.88C249.979 167.82 250.779 167.01 251.809 166.44C252.839 165.87 254.019 165.59 255.359 165.59C257.069 165.59 258.489 166.04 259.639 166.93C260.789 167.82 261.539 169.08 261.899 170.71H257.459C257.089 169.67 256.359 169.15 255.289 169.15C254.519 169.15 253.919 169.45 253.459 170.04C253.009 170.63 252.779 171.48 252.779 172.59C252.779 173.7 253.009 174.54 253.459 175.14C253.919 175.73 254.519 176.03 255.289 176.03C256.359 176.03 257.089 175.51 257.459 174.47H261.899C261.539 176.06 260.789 177.31 259.629 178.22C258.469 179.13 257.049 179.59 255.359 179.59C254.029 179.59 252.839 179.31 251.809 178.74C250.779 178.17 249.969 177.36 249.399 176.3C248.819 175.24 248.529 174.01 248.529 172.59C248.529 171.17 248.819 169.94 249.399 168.88Z" fill="#FF4D0B"/>
<path d="M266.48 178.98C265.55 178.57 264.82 178.02 264.28 177.31C263.74 176.6 263.44 175.81 263.38 174.93H267.5C267.55 175.4 267.77 175.78 268.16 176.08C268.55 176.37 269.03 176.52 269.6 176.52C270.12 176.52 270.52 176.42 270.81 176.21C271.09 176.01 271.24 175.74 271.24 175.42C271.24 175.03 271.04 174.74 270.63 174.55C270.22 174.36 269.56 174.16 268.65 173.93C267.67 173.7 266.86 173.46 266.21 173.21C265.56 172.96 265 172.56 264.53 172.02C264.06 171.48 263.82 170.74 263.82 169.81C263.82 169.03 264.04 168.32 264.47 167.68C264.9 167.04 265.53 166.53 266.37 166.16C267.21 165.78 268.2 165.6 269.36 165.6C271.07 165.6 272.41 166.02 273.4 166.87C274.38 167.72 274.95 168.84 275.09 170.24H271.24C271.17 169.77 270.97 169.39 270.62 169.12C270.27 168.84 269.81 168.71 269.24 168.71C268.75 168.71 268.38 168.8 268.12 168.99C267.86 169.18 267.73 169.43 267.73 169.76C267.73 170.15 267.94 170.44 268.35 170.64C268.76 170.84 269.41 171.03 270.29 171.23C271.3 171.49 272.12 171.75 272.75 172C273.38 172.25 273.94 172.66 274.42 173.22C274.9 173.78 275.15 174.53 275.16 175.47C275.16 176.27 274.94 176.98 274.49 177.61C274.04 178.24 273.4 178.73 272.56 179.08C271.72 179.43 270.75 179.62 269.65 179.62C268.46 179.62 267.41 179.42 266.48 179.01V178.98Z" fill="#FF4D0B"/>
<path d="M287.06 176.17H292.52V179.39H282.89V162.27H287.06V176.17Z" fill="#FF4D0B"/>
<path d="M302.11 175.86V179.4H299.99C298.48 179.4 297.3 179.03 296.45 178.29C295.6 177.55 295.18 176.34 295.18 174.67V169.26H293.52V165.8H295.18V162.48H299.35V165.8H302.08V169.26H299.35V174.72C299.35 175.13 299.45 175.42 299.64 175.6C299.83 175.78 300.16 175.87 300.62 175.87H302.11V175.86Z" fill="#FF4D0B"/>
<path d="M304.39 168.88C304.92 167.82 305.64 167.01 306.55 166.44C307.46 165.87 308.48 165.59 309.6 165.59C310.49 165.59 311.31 165.78 312.05 166.15C312.79 166.52 313.37 167.03 313.79 167.66V161.34H317.96V179.39H313.79V177.44C313.4 178.09 312.84 178.61 312.12 179C311.4 179.39 310.56 179.59 309.6 179.59C308.48 179.59 307.46 179.3 306.55 178.72C305.64 178.14 304.92 177.32 304.39 176.26C303.86 175.2 303.6 173.96 303.6 172.56C303.6 171.16 303.86 169.93 304.39 168.88ZM312.92 170.12C312.34 169.52 311.64 169.22 310.81 169.22C309.98 169.22 309.28 169.52 308.7 170.11C308.12 170.71 307.83 171.52 307.83 172.56C307.83 173.6 308.12 174.43 308.7 175.04C309.28 175.65 309.98 175.95 310.81 175.95C311.64 175.95 312.34 175.65 312.92 175.05C313.5 174.45 313.79 173.63 313.79 172.59C313.79 171.55 313.5 170.73 312.92 170.13V170.12Z" fill="#FF4D0B"/>
</g>
<defs>
<clipPath id="clip0_72_487">
<rect width="324.09" height="208.2" fill="white"/>
</clipPath>
</defs>
</svg>
