<svg width="62" height="62" viewBox="0 0 62 62" fill="none" xmlns="http://www.w3.org/2000/svg">
<g filter="url(#filter0_b_145_5735)">
<ellipse cx="31.2398" cy="31.1173" rx="30.4674" ry="30.4246" fill="url(#paint0_linear_145_5735)" fill-opacity="0.8"/>
<path d="M61.2072 31.1173C61.2072 47.6436 47.791 61.0419 31.2398 61.0419C14.6886 61.0419 1.27246 47.6436 1.27246 31.1173C1.27246 14.5911 14.6886 1.19275 31.2398 1.19275C47.791 1.19275 61.2072 14.5911 61.2072 31.1173Z" stroke="#7D7D7D" stroke-opacity="0.4"/>
</g>
<path d="M24.3481 23.8734H38.131V20.9758C38.131 18.0782 37.0429 16.6294 33.7785 16.6294H28.7006C25.4363 16.6294 24.3481 18.0782 24.3481 20.9758V23.8734Z" stroke="#007ED9" stroke-width="2" stroke-miterlimit="10" stroke-linecap="round" stroke-linejoin="round"/>
<path d="M37.0426 35.4637V41.2588C37.0426 44.1564 35.5918 45.6052 32.6902 45.6052H29.7885C26.8869 45.6052 25.436 44.1564 25.436 41.2588V35.4637H37.0426Z" stroke="#007ED9" stroke-width="2" stroke-miterlimit="10" stroke-linecap="round" stroke-linejoin="round"/>
<path d="M44.297 28.2198V35.4637C44.297 38.3613 42.8462 39.8101 39.9445 39.8101H37.0429V35.4637H25.4363V39.8101H22.5346C19.633 39.8101 18.1821 38.3613 18.1821 35.4637V28.2198C18.1821 25.3222 19.633 23.8734 22.5346 23.8734H39.9445C42.8462 23.8734 44.297 25.3222 44.297 28.2198Z" stroke="#007ED9" stroke-width="2" stroke-miterlimit="10" stroke-linecap="round" stroke-linejoin="round"/>
<g filter="url(#filter1_dd_145_5735)">
<path d="M38.4936 35.4637H36.7381H23.9854" stroke="#007ED9" stroke-width="2" stroke-miterlimit="10" stroke-linecap="round" stroke-linejoin="round"/>
</g>
<path d="M23.9854 29.6685H28.3378" stroke="#007ED9" stroke-width="2" stroke-miterlimit="10" stroke-linecap="round" stroke-linejoin="round"/>
<defs>
<filter id="filter0_b_145_5735" x="-49.2275" y="-49.3073" width="160.935" height="160.849" filterUnits="userSpaceOnUse" color-interpolation-filters="sRGB">
<feFlood flood-opacity="0" result="BackgroundImageFix"/>
<feGaussianBlur in="BackgroundImageFix" stdDeviation="25"/>
<feComposite in2="SourceAlpha" operator="in" result="effect1_backgroundBlur_145_5735"/>
<feBlend mode="normal" in="SourceGraphic" in2="effect1_backgroundBlur_145_5735" result="shape"/>
</filter>
<filter id="filter1_dd_145_5735" x="14.9854" y="28.4637" width="32.5083" height="18" filterUnits="userSpaceOnUse" color-interpolation-filters="sRGB">
<feFlood flood-opacity="0" result="BackgroundImageFix"/>
<feColorMatrix in="SourceAlpha" type="matrix" values="0 0 0 0 0 0 0 0 0 0 0 0 0 0 0 0 0 0 127 0" result="hardAlpha"/>
<feMorphology radius="2" operator="dilate" in="SourceAlpha" result="effect1_dropShadow_145_5735"/>
<feOffset dy="2"/>
<feGaussianBlur stdDeviation="3"/>
<feColorMatrix type="matrix" values="0 0 0 0 0 0 0 0 0 0 0 0 0 0 0 0 0 0 0.15 0"/>
<feBlend mode="normal" in2="BackgroundImageFix" result="effect1_dropShadow_145_5735"/>
<feColorMatrix in="SourceAlpha" type="matrix" values="0 0 0 0 0 0 0 0 0 0 0 0 0 0 0 0 0 0 127 0" result="hardAlpha"/>
<feOffset dy="1"/>
<feGaussianBlur stdDeviation="1"/>
<feColorMatrix type="matrix" values="0 0 0 0 0 0 0 0 0 0 0 0 0 0 0 0 0 0 0.3 0"/>
<feBlend mode="normal" in2="effect1_dropShadow_145_5735" result="effect2_dropShadow_145_5735"/>
<feBlend mode="normal" in="SourceGraphic" in2="effect2_dropShadow_145_5735" result="shape"/>
</filter>
<linearGradient id="paint0_linear_145_5735" x1="31.2398" y1="0.692749" x2="31.2398" y2="61.5419" gradientUnits="userSpaceOnUse">
<stop stop-color="white"/>
<stop offset="0.545" stop-color="white" stop-opacity="0.455"/>
<stop offset="1" stop-color="white" stop-opacity="0"/>
</linearGradient>
</defs>
</svg>
