<svg width="78" height="78" viewBox="0 0 78 78" fill="none" xmlns="http://www.w3.org/2000/svg">
<path fill-rule="evenodd" clip-rule="evenodd" d="M39 78C60.5391 78 78 60.5391 78 39C78 17.4609 60.5391 0 39 0C17.4609 0 0 17.4609 0 39C0 60.5391 17.4609 78 39 78ZM54.8284 40.5048L43.3605 29.0369C40.9523 26.6287 37.0477 26.6287 34.6395 29.0369L23.1716 40.5048C21.6095 42.0669 21.6095 44.5996 23.1716 46.1617C24.7337 47.7238 27.2663 47.7238 28.8284 46.1617L39 35.9901L49.1716 46.1617C50.7337 47.7238 53.2663 47.7238 54.8284 46.1617C56.3905 44.5996 56.3905 42.0669 54.8284 40.5048Z" fill="#007ED9"/>
</svg>
