<svg width="617" height="323" viewBox="0 0 617 323" fill="none" xmlns="http://www.w3.org/2000/svg">
<g filter="url(#filter0_b_145_6289)">
<mask id="path-1-inside-1_145_6289" fill="white">
<path fill-rule="evenodd" clip-rule="evenodd" d="M328.599 66.7654C317.001 66.7654 307.599 57.3633 307.599 45.7654V32.4804C307.599 14.542 293.074 0 275.157 0C257.24 0 242.715 14.542 242.715 32.4804V45.7654C242.715 57.3633 233.313 66.7654 221.715 66.7654H21C9.40202 66.7654 0 76.1674 0 87.7654V302C0 313.598 9.40204 323 21 323H596C607.598 323 617 313.598 617 302V87.7654C617 76.1674 607.598 66.7654 596 66.7654H328.599Z"/>
</mask>
<path fill-rule="evenodd" clip-rule="evenodd" d="M328.599 66.7654C317.001 66.7654 307.599 57.3633 307.599 45.7654V32.4804C307.599 14.542 293.074 0 275.157 0C257.24 0 242.715 14.542 242.715 32.4804V45.7654C242.715 57.3633 233.313 66.7654 221.715 66.7654H21C9.40202 66.7654 0 76.1674 0 87.7654V302C0 313.598 9.40204 323 21 323H596C607.598 323 617 313.598 617 302V87.7654C617 76.1674 607.598 66.7654 596 66.7654H328.599Z" fill="url(#paint0_linear_145_6289)" fill-opacity="0.8"/>
<path d="M306.599 32.4804V45.7654H308.599V32.4804H306.599ZM275.157 1C292.521 1 306.599 15.0932 306.599 32.4804H308.599C308.599 13.9908 293.627 -1 275.157 -1V1ZM243.715 32.4804C243.715 15.0932 257.793 1 275.157 1V-1C256.686 -1 241.715 13.9908 241.715 32.4804H243.715ZM243.715 45.7654V32.4804H241.715V45.7654H243.715ZM21 67.7654H221.715V65.7654H21V67.7654ZM1 302V87.7654H-1V302H1ZM596 322H21V324H596V322ZM616 87.7654V302H618V87.7654H616ZM328.599 67.7654H596V65.7654H328.599V67.7654ZM618 87.7654C618 75.6151 608.15 65.7654 596 65.7654V67.7654C607.046 67.7654 616 76.7197 616 87.7654H618ZM596 324C608.15 324 618 314.15 618 302H616C616 313.046 607.046 322 596 322V324ZM21 65.7654C8.84974 65.7654 -1 75.6151 -1 87.7654H1C1 76.7197 9.9543 67.7654 21 67.7654V65.7654ZM241.715 45.7654C241.715 56.8111 232.76 65.7654 221.715 65.7654V67.7654C233.865 67.7654 243.715 57.9156 243.715 45.7654H241.715ZM-1 302C-1 314.15 8.84975 324 21 324V322C9.95432 322 1 313.046 1 302H-1ZM306.599 45.7654C306.599 57.9156 316.449 67.7654 328.599 67.7654V65.7654C317.553 65.7654 308.599 56.8111 308.599 45.7654H306.599Z" fill="#7D7D7D" fill-opacity="0.4" mask="url(#path-1-inside-1_145_6289)"/>
</g>
<defs>
<filter id="filter0_b_145_6289" x="-50" y="-50" width="717" height="423" filterUnits="userSpaceOnUse" color-interpolation-filters="sRGB">
<feFlood flood-opacity="0" result="BackgroundImageFix"/>
<feGaussianBlur in="BackgroundImageFix" stdDeviation="25"/>
<feComposite in2="SourceAlpha" operator="in" result="effect1_backgroundBlur_145_6289"/>
<feBlend mode="normal" in="SourceGraphic" in2="effect1_backgroundBlur_145_6289" result="shape"/>
</filter>
<linearGradient id="paint0_linear_145_6289" x1="308.5" y1="0" x2="308.5" y2="323" gradientUnits="userSpaceOnUse">
<stop stop-color="white"/>
<stop offset="0.545" stop-color="white" stop-opacity="0.455"/>
<stop offset="1" stop-color="white" stop-opacity="0"/>
</linearGradient>
</defs>
</svg>
