<svg width="617" height="323" viewBox="0 0 617 323" fill="none" xmlns="http://www.w3.org/2000/svg">
<g filter="url(#filter0_b_145_6214)">
<mask id="path-1-inside-1_145_6214" fill="white">
<path fill-rule="evenodd" clip-rule="evenodd" d="M223.463 66.7654C211.865 66.7654 202.463 57.3633 202.463 45.7654V32.4804C202.463 14.542 187.938 0 170.02 0C152.103 0 137.578 14.542 137.578 32.4804V45.7654C137.578 57.3633 128.176 66.7654 116.578 66.7654H21C9.40202 66.7654 0 76.1674 0 87.7654V302C0 313.598 9.40204 323 21 323H596C607.598 323 617 313.598 617 302V87.7654C617 76.1674 607.598 66.7654 596 66.7654H223.463Z"/>
</mask>
<path fill-rule="evenodd" clip-rule="evenodd" d="M223.463 66.7654C211.865 66.7654 202.463 57.3633 202.463 45.7654V32.4804C202.463 14.542 187.938 0 170.02 0C152.103 0 137.578 14.542 137.578 32.4804V45.7654C137.578 57.3633 128.176 66.7654 116.578 66.7654H21C9.40202 66.7654 0 76.1674 0 87.7654V302C0 313.598 9.40204 323 21 323H596C607.598 323 617 313.598 617 302V87.7654C617 76.1674 607.598 66.7654 596 66.7654H223.463Z" fill="url(#paint0_linear_145_6214)" fill-opacity="0.8"/>
<path d="M201.463 32.4804V45.7654H203.463V32.4804H201.463ZM170.02 1C187.384 1 201.463 15.0932 201.463 32.4804H203.463C203.463 13.9908 188.491 -1 170.02 -1V1ZM138.578 32.4804C138.578 15.0932 152.657 1 170.02 1V-1C151.55 -1 136.578 13.9908 136.578 32.4804H138.578ZM138.578 45.7654V32.4804H136.578V45.7654H138.578ZM21 67.7654H116.578V65.7654H21V67.7654ZM1 302V87.7654H-1V302H1ZM596 322H21V324H596V322ZM616 87.7654V302H618V87.7654H616ZM223.463 67.7654H596V65.7654H223.463V67.7654ZM618 87.7654C618 75.6151 608.15 65.7654 596 65.7654V67.7654C607.046 67.7654 616 76.7197 616 87.7654H618ZM596 324C608.15 324 618 314.15 618 302H616C616 313.046 607.046 322 596 322V324ZM21 65.7654C8.84974 65.7654 -1 75.6151 -1 87.7654H1C1 76.7197 9.9543 67.7654 21 67.7654V65.7654ZM136.578 45.7654C136.578 56.8111 127.624 65.7654 116.578 65.7654V67.7654C128.729 67.7654 138.578 57.9156 138.578 45.7654H136.578ZM-1 302C-1 314.15 8.84975 324 21 324V322C9.95432 322 1 313.046 1 302H-1ZM201.463 45.7654C201.463 57.9156 211.312 67.7654 223.463 67.7654V65.7654C212.417 65.7654 203.463 56.8111 203.463 45.7654H201.463Z" fill="#7D7D7D" fill-opacity="0.4" mask="url(#path-1-inside-1_145_6214)"/>
</g>
<defs>
<filter id="filter0_b_145_6214" x="-50" y="-50" width="717" height="423" filterUnits="userSpaceOnUse" color-interpolation-filters="sRGB">
<feFlood flood-opacity="0" result="BackgroundImageFix"/>
<feGaussianBlur in="BackgroundImageFix" stdDeviation="25"/>
<feComposite in2="SourceAlpha" operator="in" result="effect1_backgroundBlur_145_6214"/>
<feBlend mode="normal" in="SourceGraphic" in2="effect1_backgroundBlur_145_6214" result="shape"/>
</filter>
<linearGradient id="paint0_linear_145_6214" x1="308.5" y1="0" x2="308.5" y2="323" gradientUnits="userSpaceOnUse">
<stop stop-color="white"/>
<stop offset="0.545" stop-color="white" stop-opacity="0.455"/>
<stop offset="1" stop-color="white" stop-opacity="0"/>
</linearGradient>
</defs>
</svg>
