<svg width="617" height="323" viewBox="0 0 617 323" fill="none" xmlns="http://www.w3.org/2000/svg">
<g filter="url(#filter0_b_145_6134)">
<mask id="path-1-inside-1_145_6134" fill="white">
<path fill-rule="evenodd" clip-rule="evenodd" d="M32.4421 50.5443C32.4421 59.503 25.1797 66.7654 16.221 66.7654C7.2624 66.7654 0 74.0278 0 82.9864V302C0 313.598 9.40204 323 21 323H596C607.598 323 617 313.598 617 302V87.7654C617 76.1674 607.598 66.7654 596 66.7654H118.326C106.728 66.7654 97.3262 57.3633 97.3262 45.7654V32.4804C97.3262 14.542 82.8014 0 64.8841 0C46.9669 0 32.4421 14.542 32.4421 32.4804V50.5443Z"/>
</mask>
<path fill-rule="evenodd" clip-rule="evenodd" d="M32.4421 50.5443C32.4421 59.503 25.1797 66.7654 16.221 66.7654C7.2624 66.7654 0 74.0278 0 82.9864V302C0 313.598 9.40204 323 21 323H596C607.598 323 617 313.598 617 302V87.7654C617 76.1674 607.598 66.7654 596 66.7654H118.326C106.728 66.7654 97.3262 57.3633 97.3262 45.7654V32.4804C97.3262 14.542 82.8014 0 64.8841 0C46.9669 0 32.4421 14.542 32.4421 32.4804V50.5443Z" fill="url(#paint0_linear_145_6134)" fill-opacity="0.8"/>
<path d="M1 302V82.9864H-1V302H1ZM596 322H21V324H596V322ZM616 87.7654V302H618V87.7654H616ZM118.326 67.7654H596V65.7654H118.326V67.7654ZM98.3262 45.7654V32.4804H96.3262V45.7654H98.3262ZM98.3262 32.4804C98.3262 13.9908 83.3548 -1 64.8841 -1V1C82.248 1 96.3262 15.0932 96.3262 32.4804H98.3262ZM64.8841 -1C46.4135 -1 31.4421 13.9908 31.4421 32.4804H33.4421C33.4421 15.0932 47.5203 1 64.8841 1V-1ZM31.4421 32.4804V50.5443H33.4421V32.4804H31.4421ZM118.326 65.7654C107.281 65.7654 98.3262 56.8111 98.3262 45.7654H96.3262C96.3262 57.9156 106.176 67.7654 118.326 67.7654V65.7654ZM618 87.7654C618 75.6151 608.15 65.7654 596 65.7654V67.7654C607.046 67.7654 616 76.7197 616 87.7654H618ZM596 324C608.15 324 618 314.15 618 302H616C616 313.046 607.046 322 596 322V324ZM-1 302C-1 314.15 8.84975 324 21 324V322C9.95432 322 1 313.046 1 302H-1ZM16.221 67.7654C25.7319 67.7654 33.4421 60.0552 33.4421 50.5443H31.4421C31.4421 58.9507 24.6274 65.7654 16.221 65.7654V67.7654ZM16.221 65.7654C6.71012 65.7654 -1 73.4755 -1 82.9864H1C1 74.58 7.81469 67.7654 16.221 67.7654V65.7654Z" fill="#7D7D7D" fill-opacity="0.4" mask="url(#path-1-inside-1_145_6134)"/>
</g>
<defs>
<filter id="filter0_b_145_6134" x="-50" y="-50" width="717" height="423" filterUnits="userSpaceOnUse" color-interpolation-filters="sRGB">
<feFlood flood-opacity="0" result="BackgroundImageFix"/>
<feGaussianBlur in="BackgroundImageFix" stdDeviation="25"/>
<feComposite in2="SourceAlpha" operator="in" result="effect1_backgroundBlur_145_6134"/>
<feBlend mode="normal" in="SourceGraphic" in2="effect1_backgroundBlur_145_6134" result="shape"/>
</filter>
<linearGradient id="paint0_linear_145_6134" x1="308.5" y1="0" x2="308.5" y2="323" gradientUnits="userSpaceOnUse">
<stop stop-color="white"/>
<stop offset="0.545" stop-color="white" stop-opacity="0.455"/>
<stop offset="1" stop-color="white" stop-opacity="0"/>
</linearGradient>
</defs>
</svg>
