<svg width="131" height="131" viewBox="0 0 131 131" fill="none" xmlns="http://www.w3.org/2000/svg">
<path d="M9.28831 64.5167L16.5684 67.6338L17.2797 68.4497H17.4052L17.4471 65.4372H17.3215L16.5684 66.8807L14.7693 66.1067L14.8321 62.2783L16.6521 61.5671L17.3634 63.0524H17.4889L17.5726 58.6383H17.4471L16.7149 59.4332L6.98713 63.2825V63.408L8.55612 65.0816L9.28831 64.4958V64.5167ZM14.2254 62.5712L14.1626 65.8765L10.1879 64.1611L14.2254 62.5712Z" fill="#B96740"/>
<path d="M8.66072 54.9773L17.0287 56.9228L17.5307 57.9479L17.6562 57.9688L18.3466 55.0819L18.2211 55.0401L17.196 56.2743L10.146 54.6426H10.5644L19.811 49.6846L19.8319 49.5591L17.6144 48.3666L16.945 49.0151L10.418 47.488L9.89499 46.4629L9.76947 46.4211L9.10004 49.308L9.22555 49.3499L10.2715 48.1365L16.0454 49.4963L8.05404 53.764L7.61473 55.6258L7.74025 55.6677L8.66072 54.9773Z" fill="#B96740"/>
<path d="M11.9451 43.1158L19.7064 46.7976L19.9783 47.9064L20.1039 47.9692L21.4009 45.2287C21.9657 44.0362 22.2795 42.9275 22.3214 41.9233C22.3841 40.9192 22.154 40.0196 21.6729 39.2247C21.1917 38.4506 20.4386 37.8021 19.4135 37.321C18.4094 36.8398 17.4471 36.6515 16.5266 36.777C15.627 36.9026 14.7902 37.3 14.0371 37.9904C13.284 38.6808 12.6355 39.6012 12.0707 40.7937L10.7736 43.5342L10.8991 43.5969L11.9451 43.1158ZM12.6564 41.1493C13.012 40.4171 13.4723 39.8313 14.0999 39.4129C14.7066 38.9945 15.3969 38.7435 16.15 38.7226C16.9241 38.6808 17.719 38.8481 18.514 39.2456C19.3298 39.6221 19.9574 40.1451 20.4177 40.7518C20.8779 41.3794 21.1289 42.0488 21.1917 42.802C21.2545 43.5551 21.108 44.2873 20.7524 45.0195L20.6896 45.145L12.5727 41.2957L12.6355 41.1702L12.6564 41.1493Z" fill="#B96740"/>
<path d="M19.8947 31.4843L23.9531 38.3042L24.0368 39.392L24.1414 39.4757L25.9405 37.0699L25.8359 36.9862L24.3715 37.7184L23.3674 36.0449L25.6685 32.9906L27.5513 33.4717L27.2585 35.0825L27.3631 35.1662L30.0199 31.6308L29.9153 31.5471L28.8484 31.7563L18.7232 29.1413L18.6395 29.2459L18.9324 31.5052H19.8738L19.8947 31.4843ZM25.0409 32.7814L23.0536 35.4173L20.8361 31.6935L25.0409 32.7814Z" fill="#B96740"/>
<path d="M28.2208 20.5642L33.4716 27.3631L33.1997 28.4719L33.2834 28.5765L39.0363 24.1624L37.9903 22.3633L37.8857 22.447L37.1326 24.79L35.1243 26.3171L29.7688 19.3717L30.4383 17.9283L30.3546 17.8237L26.9865 20.3968L27.0911 20.5014L28.2208 20.5642Z" fill="#B96740"/>
<path d="M39.7267 22.6562L39.3292 23.6603L39.392 23.7858L42.0697 22.426L42.0069 22.3005H40.3752L40.2287 20.3759L43.6387 18.6605L45.124 19.9366L44.1408 21.2545L44.2035 21.3591L48.1574 19.3717L48.0946 19.2671L47.0486 18.9743L39.12 12.1544L38.9945 12.2172L38.2414 14.3719L39.0991 14.7485L39.7267 22.6562ZM43.1366 18.2212L40.1869 19.7065L39.8522 15.397L43.1366 18.2212Z" fill="#B96740"/>
<path d="M47.2787 9.79046L49.4126 18.0956L48.7431 19.0161L48.764 19.1625L51.651 18.4094L51.6301 18.2839L50.0611 17.9283L48.262 10.9411L48.4502 11.2967L57.111 17.217L57.2366 17.1752L57.2575 14.6648L56.3789 14.3719L54.7053 7.86584L55.3747 6.92444L55.3538 6.79893L52.4669 7.55204L52.5087 7.67756L54.0568 8.0332L55.5421 13.7861L48.0528 8.68171L46.1909 9.16287L46.2327 9.28839L47.2787 9.79046Z" fill="#B96740"/>
<path d="M59.3076 7.21732L59.6424 15.7945L58.7846 16.5476V16.6731L61.818 16.5476C63.136 16.5057 64.2656 16.2547 65.1861 15.8363C66.1066 15.4179 66.7969 14.8112 67.2781 14.0163C67.7383 13.2213 67.9475 12.259 67.9057 11.1293C67.8638 9.99966 67.571 9.07919 67.048 8.32607C66.525 7.57296 65.7719 7.02904 64.8305 6.69433C63.8682 6.33869 62.7385 6.19225 61.4415 6.25501L58.4081 6.35961V6.48513L59.3286 7.1964L59.3076 7.21732ZM61.3787 6.92444C62.1946 6.90352 62.9268 7.04996 63.5962 7.38468C64.2656 7.7194 64.7886 8.22147 65.1652 8.89091C65.5627 9.56034 65.7719 10.3344 65.8137 11.2339C65.8555 12.1335 65.7091 12.9284 65.3535 13.6188C65.0188 14.3091 64.5376 14.8531 63.8891 15.2505C63.2615 15.648 62.5293 15.8572 61.7134 15.8991H61.5879L61.2323 6.92444H61.3787Z" fill="#B96740"/>
<path d="M75.0393 16.8823C75.7088 17.5517 76.5456 17.991 77.5707 18.2421C78.7212 18.535 79.7463 18.5768 80.6459 18.3885L81.7755 16.5057L81.6709 16.443L78.6585 17.7818C77.9681 17.6145 77.3615 17.1752 76.8385 16.4848C76.2945 15.7945 75.9389 14.9577 75.7297 14.0163C75.5205 13.0749 75.5205 12.1544 75.7297 11.2967C75.8971 10.6691 76.1481 10.0833 76.5247 9.60218C76.9012 9.10011 77.3824 8.68171 77.9681 8.36791L78.4074 8.45159C79.1396 8.63987 79.83 8.97459 80.4994 9.45574C81.1689 9.9369 81.6709 10.5017 82.0475 11.1503L82.173 11.1921L83.2818 9.37206C82.8843 9.01643 82.4241 8.72355 81.9011 8.47251C81.3781 8.22147 80.7923 8.01228 80.1647 7.86584C79.1396 7.6148 78.1773 7.6148 77.2778 7.88676C76.3782 8.15871 75.6251 8.63987 74.9975 9.33022C74.3699 10.0206 73.9306 10.8365 73.7005 11.7988C73.4704 12.7611 73.4704 13.6816 73.7005 14.5811C73.9306 15.4807 74.3908 16.2547 75.0603 16.9241" fill="#B96740"/>
<path d="M86.5453 21.652C87.4657 22.1122 88.3862 22.3005 89.3276 22.2378C90.2481 22.175 91.1058 21.8612 91.8589 21.3382C92.612 20.7943 93.2187 20.1039 93.658 19.2044C94.0973 18.3048 94.3065 17.4053 94.2856 16.4848C94.2647 15.5643 93.9927 14.7066 93.4906 13.9326C92.9886 13.1586 92.2773 12.531 91.3568 12.0707C90.4363 11.6105 89.5159 11.4013 88.5745 11.485C87.654 11.5477 86.7963 11.8615 86.0432 12.3845C85.2901 12.9284 84.6834 13.6188 84.2441 14.5183C83.8048 15.397 83.5956 16.3174 83.6165 17.2379C83.6374 18.1584 83.9094 19.0161 84.4114 19.8111C84.9135 20.606 85.6248 21.2127 86.5453 21.6729M86.2105 14.3928C86.5243 13.7861 86.9218 13.2841 87.403 12.8866C87.8841 12.4891 88.4699 12.259 89.1393 12.1753L89.8924 12.4682C90.6246 12.8448 91.2104 13.4096 91.5869 14.2045C91.9635 14.9786 92.1518 15.8363 92.1518 16.7568C92.1518 17.6772 91.9426 18.535 91.566 19.2881C91.2731 19.8947 90.8757 20.3968 90.3945 20.7943C89.9134 21.1918 89.3485 21.4637 88.7 21.5892L88.0096 21.3173C87.2356 20.9407 86.6499 20.3341 86.2315 19.5391C85.834 18.7442 85.6248 17.8864 85.6248 16.945C85.6248 16.0037 85.834 15.1669 86.2105 14.3928Z" fill="#B96740"/>
<path d="M93.3651 24.2042L92.2355 24.1833L92.1309 24.267L94.3693 26.2125L94.453 26.1079L93.8672 24.6435L98.616 19.2044L98.4068 19.56L95.7918 27.7188L95.8964 27.8024L98.1767 27.5305L98.2185 26.5682L105.269 23.1792L104.955 23.4302L99.5783 29.6015L98.0512 29.225L97.9466 29.3296L101.147 32.1119L101.252 32.0282L101.043 30.8986L106.691 24.4134L107.842 24.4343L107.925 24.3297L105.582 22.2796L98.4905 25.6895L100.896 18.2212L98.9089 16.4848L98.8252 16.5894L99.0135 17.74L93.3651 24.2042Z" fill="#B96740"/>
<path d="M101.984 32.865L101.88 32.9278L103.511 35.3963L103.616 35.3336L103.448 33.7646L109.473 29.7689L109.181 30.0618L104.474 37.2164L104.557 37.3419L106.837 37.6766L107.13 36.777L114.808 35.3754L114.452 35.5428L107.612 40.0615L106.231 39.2874L106.126 39.3502L108.469 42.9066L108.574 42.8229L108.699 41.6932L115.854 36.9444L116.963 37.2791L117.067 37.1954L115.352 34.6014L107.612 36.003L111.921 29.4342L110.478 27.2376L110.373 27.3004L110.227 28.451L103.072 33.1998L101.984 32.865Z" fill="#B96740"/>
<path d="M108.825 44.1199L108.699 44.1827L110.143 47.6135L110.268 47.5508L110.582 46.4629L118.511 43.1576L119.557 43.7015L119.661 43.6388L118.239 40.2079L118.113 40.2707L117.758 41.3585L109.85 44.6638L108.825 44.1199Z" fill="#B96740"/>
<path d="M118.051 46.8604C117.486 47.0068 116.984 47.3206 116.586 47.76C116.189 48.1993 115.896 48.8269 115.687 49.6218C115.498 50.3749 115.289 50.9816 115.08 51.4628C114.871 51.923 114.662 52.2786 114.431 52.5297L113.657 52.9899L112.528 52.6761C112.193 52.3414 111.942 51.8393 111.754 51.1699L112.862 48.8687L112.821 48.7432L111.001 48.6595C110.833 49.5591 110.896 50.5841 111.21 51.7766C111.398 52.4878 111.67 53.0736 112.026 53.5338C112.381 53.9941 112.8 54.3288 113.281 54.5171C113.741 54.6844 114.243 54.7053 114.766 54.5798C115.31 54.4334 115.833 54.0777 116.293 53.5129C116.753 52.9481 117.13 52.174 117.381 51.1908C117.569 50.4795 117.758 49.9147 117.925 49.5172L118.49 48.5968L119.243 48.1574L120.352 48.4503C120.666 48.7432 120.917 49.1825 121.063 49.7683L119.515 52.0485L119.557 52.174L121.691 52.2577C121.816 51.8393 121.879 51.3791 121.879 50.877C121.879 50.3749 121.795 49.8519 121.649 49.3289C121.481 48.7014 121.209 48.1784 120.854 47.76C120.477 47.3416 120.059 47.0696 119.557 46.9232C119.076 46.7767 118.553 46.7767 118.051 46.9232" fill="#B96740"/>
<path d="M120.143 55.5421C119.557 55.6049 119.013 55.8141 118.553 56.1907C118.092 56.5672 117.695 57.132 117.36 57.8852C117.046 58.5964 116.753 59.1822 116.461 59.6006L115.645 60.542L114.808 60.8767L113.741 60.3746C113.469 59.9981 113.302 59.4541 113.218 58.7638L114.682 56.6718V56.5254L112.883 56.1488C112.57 57.0065 112.465 58.0316 112.59 59.2449C112.674 59.9771 112.841 60.6047 113.134 61.1277C113.406 61.6507 113.783 62.0273 114.222 62.2783C114.662 62.5294 115.143 62.634 115.687 62.5712C116.251 62.5084 116.816 62.2365 117.36 61.7762C117.904 61.2951 118.385 60.5838 118.825 59.6633C119.138 58.9939 119.389 58.4709 119.64 58.0944L120.331 57.2785L121.147 56.9647L122.193 57.4249C122.465 57.7806 122.632 58.2408 122.674 58.8475L120.791 60.8558V61.0022L122.883 61.4415C123.071 61.0441 123.218 60.6047 123.28 60.1027C123.364 59.6006 123.364 59.0776 123.301 58.5337C123.239 57.8852 123.071 57.3412 122.757 56.8601C122.465 56.3999 122.088 56.0442 121.628 55.8141C121.168 55.584 120.666 55.5003 120.143 55.5631" fill="#B96740"/>
<path d="M112.988 67.8012H113.113L113.867 66.9434L122.465 67.2363L123.176 68.1568H123.301L123.427 64.4331H123.301L122.527 65.2908L113.95 64.9979L113.26 64.0774H113.113L112.988 67.8012Z" fill="#B96740"/>
<path d="M120.728 71.1483C120.017 70.5626 119.18 70.1442 118.218 69.9559C117.256 69.7467 116.314 69.7885 115.436 70.0396C114.536 70.3115 113.783 70.7718 113.155 71.4621C112.528 72.1525 112.109 72.9893 111.9 74.0144C111.691 75.0185 111.733 75.9599 112.047 76.8385C112.36 77.7172 112.862 78.4494 113.574 79.056C114.285 79.6418 115.122 80.0393 116.084 80.2485C117.046 80.4577 117.988 80.4158 118.866 80.1648C119.766 79.8928 120.519 79.4326 121.126 78.7422C121.753 78.0728 122.172 77.2151 122.381 76.2109C122.59 75.2068 122.548 74.2445 122.234 73.3658C121.921 72.4872 121.419 71.755 120.707 71.1483M121.649 74.9139C121.481 75.7298 121.063 76.4201 120.414 76.985C119.766 77.5498 118.992 77.9473 118.092 78.1774C117.193 78.4075 116.335 78.4284 115.498 78.2402C114.829 78.1146 114.243 77.8427 113.741 77.487C113.218 77.1314 112.821 76.6503 112.549 76.0436L112.632 75.3114C112.8 74.4537 113.218 73.7424 113.887 73.1357C114.557 72.55 115.331 72.1316 116.251 71.9015C117.151 71.6713 118.03 71.6295 118.866 71.8178C119.536 71.9642 120.122 72.2152 120.624 72.5918C121.126 72.9684 121.502 73.4704 121.753 74.098L121.67 74.893" fill="#B96740"/>
<path d="M116 92.8004L116.105 92.8631L117.36 90.1645L117.235 90.1017L115.959 91.0849L110.561 88.5955L119.264 86.0223L120.08 84.286L119.954 84.2232L118.908 84.7253L111.105 81.1271L110.812 80.0183L110.687 79.9556L109.452 82.6752L109.557 82.717L110.833 81.7338L117.381 84.7462L116.984 84.6625L106.942 87.6332L106.879 87.7587L108.825 89.3904L109.599 88.8884L115.687 91.6916L116 92.8004Z" fill="#B96740"/>
<path d="M106.566 95.3526L106.9 97.6538L109.222 97.34L108.888 95.0179L106.566 95.3526Z" fill="#B96740"/>
<path d="M49.5799 82.5496L49.5172 82.6752H51.3581L63.115 64.9351L64.4958 87.4449V87.5286H66.1066L67.4873 64.9351L79.2024 82.6333V82.6752H81.0643L68.8262 58.1362H71.3156V54.2869H59.2449V58.1362H61.7343L49.5799 82.5287V82.5496ZM55.9395 73.073L62.7594 59.4123L62.9477 62.5084L55.9395 73.073ZM65.2698 76.6084L64.1401 58.1571H66.3995L65.2698 76.6084ZM74.6 73.073L67.5919 62.5084L67.7802 59.4123L74.6 73.073ZM60.6883 55.7723H69.8303V56.6718H60.6883V55.7723Z" fill="#B96740"/>
<path d="M65.2907 51.1908C66.9434 51.1908 68.3032 49.8519 68.3032 48.1784C68.3032 46.5048 66.9434 45.1659 65.2907 45.1659C63.638 45.1659 62.2783 46.5048 62.2783 48.1784C62.2783 49.8519 63.638 51.1908 65.2907 51.1908ZM65.2907 46.6512C66.1275 46.6512 66.8179 47.3416 66.8179 48.1784C66.8179 49.0152 66.1275 49.7055 65.2907 49.7055C64.4539 49.7055 63.7636 49.0152 63.7636 48.1784C63.7636 47.3416 64.4539 46.6512 65.2907 46.6512Z" fill="#B96740"/>
<path d="M70.3951 43.0948H68.9726V42.6137C68.9726 41.5049 68.073 40.6054 66.9643 40.6054H63.638C62.5293 40.6054 61.6297 41.5049 61.6297 42.6137V43.0948H60.2072V53.2828H70.3951V43.0948ZM63.0941 42.6137L63.638 42.0698H66.9643L67.5082 42.6137V43.0948H63.115V42.6137H63.0941ZM68.9308 51.8184H61.6716V44.5592H68.9308V51.8184Z" fill="#B96740"/>
<path d="M97.1516 96.1893C105.666 87.6749 110.352 76.3573 110.352 64.3284C110.352 52.2995 105.666 40.9819 97.1516 32.4675C88.6372 23.9531 77.3196 19.2671 65.2907 19.2671C53.2618 19.2671 41.9441 23.9531 33.4298 32.4675C24.9154 40.9819 20.2294 52.2995 20.2294 64.3284C20.2294 76.3573 24.9154 87.6749 33.4298 96.1893C41.9441 104.704 53.2618 109.39 65.2907 109.39C77.3196 109.39 88.6372 104.704 97.1516 96.1893ZM65.2907 20.7315C76.943 20.7315 87.8841 25.2711 96.1265 33.5135C104.369 41.7559 108.909 52.697 108.909 64.3493C108.909 76.0017 104.369 86.9427 96.1265 95.1852C87.8841 103.428 76.943 107.967 65.2907 107.967C53.6383 107.967 42.6973 103.428 34.4548 95.1852C26.2124 86.9427 21.6728 76.0017 21.6728 64.3493C21.6728 52.697 26.2124 41.7559 34.4548 33.5135C42.6973 25.2711 53.6383 20.7315 65.2907 20.7315Z" fill="#B96740"/>
<path d="M78.5329 65.4161C79.2651 65.4161 79.9555 65.1232 80.4784 64.6002L83.8675 61.2112C85.0808 59.9979 86.6707 59.3494 88.3861 59.3494H88.4071L89.6623 59.4749L89.7668 59.5167H89.8714L90.8547 59.8514H90.8965L90.9593 59.9142C93.2814 60.9393 94.7667 63.2195 94.7667 65.7508V73.9305C94.7667 74.4744 94.3274 74.9137 93.7835 74.9137C93.2395 74.9137 92.7793 74.4744 92.7793 73.9305V65.5207C92.7793 63.094 90.8128 61.1275 88.3861 61.1275C85.9594 61.1275 83.993 63.094 83.993 65.5207V71.713L82.0893 69.7884C81.0433 68.7424 80.2483 67.9474 80.1856 67.8847C79.809 67.5081 79.286 67.2989 78.7421 67.2989C78.1982 67.2989 77.6961 67.5081 77.2986 67.8847C76.9012 68.2612 76.692 68.7842 76.692 69.3281C76.692 69.872 76.9012 70.3741 77.2986 70.7716L77.3614 70.8344L78.4074 69.7884L78.3446 69.7256L78.1773 69.3281L78.3446 68.9306H79.1396L83.993 73.784V85.6038L83.4072 86.1895H80.6458V87.6539H83.4072C83.8884 87.6539 84.3486 87.4865 84.7252 87.1727C85.1017 87.4865 85.562 87.6539 86.0431 87.6539H87.0054V86.1895H86.0431L85.4574 85.6038V75.2694L86.2523 76.0643C86.6289 76.4409 87.1519 76.671 87.6958 76.671C88.2397 76.671 88.7627 76.4618 89.1393 76.0643C89.9342 75.2694 89.9342 73.9723 89.1393 73.1774L86.336 70.3532C85.7502 69.7674 85.4364 69.0352 85.4783 68.3658V65.5207C85.4783 63.9099 86.7962 62.5919 88.4071 62.5919C90.0179 62.5919 91.3358 63.9099 91.3358 65.5207V73.9305C91.3358 75.2903 92.4446 76.399 93.8044 76.399C95.1642 76.399 96.2729 75.2903 96.2729 73.9305V65.7508C96.2729 63.6798 95.478 61.7342 94.0345 60.2698L93.9717 60.2071L93.909 60.1652L92.7793 59.2448L92.6956 59.2029L92.6329 59.1611L91.3986 58.5126H91.3358L91.294 58.4707C90.8338 58.2824 90.3735 58.1569 89.8924 58.0523C89.3903 57.9477 88.8882 57.9059 88.4071 57.9059H88.3025C86.2314 57.9268 84.3068 58.7427 82.8424 60.2071L79.4534 63.5961L78.5329 63.9726L77.6333 63.5961L77.2568 62.6965L77.6333 61.797L84.8298 54.6006C85.8548 53.5755 86.064 52.0065 85.3318 50.7722L89.8714 48.8685L89.453 47.8853L86.5661 49.0777L88.7627 46.8602L88.0096 46.1071L85.813 48.3246L87.0054 45.4377L86.0222 45.0193L84.8298 47.9062V44.7682H83.7629V47.9062L82.5704 45.0193L81.5872 45.4377L82.7796 48.3246L80.6249 46.1908L80.5621 46.128L79.809 46.8811L82.152 49.2242C81.4617 49.3078 80.8132 49.6216 80.332 50.1237C79.286 51.1697 79.0977 52.8015 79.8718 54.0566L78.4492 55.4792L79.4952 56.5252L81.8801 54.1403L81.3571 53.6173C80.6876 52.9479 80.6876 51.8601 81.3571 51.1906C82.0265 50.5212 83.1143 50.5212 83.7838 51.1906C84.4532 51.8601 84.4532 52.9479 83.7838 53.6173C83.4909 53.9102 80.2692 57.1319 78.1773 59.2238L76.5874 60.8138C76.0644 61.3367 75.7715 62.0271 75.7715 62.7593C75.7715 63.4915 76.0644 64.1818 76.5874 64.7048C77.1104 65.2278 77.8007 65.5207 78.5329 65.5207M85.4783 73.261V71.6502L88.1142 74.2861V75.0811H87.3192L85.4783 73.2401V73.261Z" fill="#B96740"/>
<path d="M87.0891 87.738H86.0431C85.562 87.738 85.1017 87.5706 84.7252 87.2777C84.3486 87.5706 83.8884 87.738 83.4072 87.738H80.5412V86.0853H83.4072L83.8884 85.6041V73.8263L79.0559 68.9938H78.3865L78.2609 69.3285L78.3865 69.6632L78.512 69.7887L77.3405 70.9603L77.215 70.8347C76.8175 70.4373 76.5874 69.8934 76.5874 69.3285C76.5874 68.7637 76.8175 68.2198 77.215 67.8223C77.6124 67.4248 78.1563 67.1947 78.7212 67.1947C79.286 67.1947 79.8299 67.4248 80.2274 67.8223C80.2692 67.885 81.0851 68.68 82.1311 69.726L83.8884 71.4833V65.5211C83.8884 63.0526 85.9176 61.0233 88.3861 61.0233C90.8547 61.0233 92.8839 63.0526 92.8839 65.5211V73.9309C92.8839 74.433 93.2814 74.8304 93.7835 74.8304C94.2855 74.8304 94.683 74.433 94.683 73.9309V65.7512C94.683 63.2618 93.2186 61.0233 90.9174 59.9983L90.8547 59.9564H90.8338L89.8715 59.6426L89.7459 59.6008H89.6413L88.4071 59.4543H88.3652C86.6916 59.4543 85.1227 60.1029 83.9302 61.2953L80.5412 64.6843C79.9973 65.2282 79.286 65.5211 78.512 65.5211C77.738 65.5211 77.0267 65.2282 76.4828 64.6843C75.9389 64.1404 75.646 63.4291 75.646 62.6551C75.646 61.881 75.9389 61.1698 76.4828 60.6259L78.0727 59.0359C80.1646 56.944 83.3654 53.7432 83.6792 53.4294C84.3068 52.8018 84.3068 51.7559 83.6792 51.1283L82.5286 50.6471L81.378 51.1283C80.7504 51.7559 80.7504 52.8018 81.378 53.4294L81.9638 54.0152L79.4325 56.5465L78.2609 55.375L79.6835 53.9524C78.9304 52.6763 79.1396 51.0237 80.1856 49.9567C80.6458 49.4965 81.2316 49.1827 81.8801 49.0781L79.6207 46.8188L80.5203 45.9192L82.4658 47.8648L81.4198 45.3335L82.5914 44.8523L83.6373 47.3836V44.6431H84.8925V47.3836L85.9385 44.8523L87.11 45.3335L86.064 47.8648L87.9887 45.9192L88.8882 46.7978L86.9636 48.7434L89.4949 47.6974L89.9761 48.848L85.4365 50.7517C86.1059 52.0069 85.8758 53.5968 84.8716 54.6219L77.6752 61.8183L77.3196 62.6551L77.6752 63.4919L78.512 63.8475L79.3488 63.4919L82.7378 60.1029C84.2022 58.6385 86.1686 57.8017 88.2397 57.7808H88.3443C88.8464 57.7808 89.3485 57.8226 89.8505 57.9272C90.3317 58.0318 90.8129 58.1573 91.2731 58.3456H91.294L91.3568 58.3874L92.612 59.0569H92.6538L92.6329 59.1611L92.6747 59.0778L92.7584 59.1196L93.909 60.061L93.9717 60.1029L94.0973 60.2284C95.5198 61.7137 96.2938 63.6592 96.2938 65.7303V73.91C96.2938 75.3325 95.1433 76.4622 93.7416 76.4622C92.34 76.4622 91.1894 75.3116 91.1894 73.91V65.5002C91.1894 63.9312 89.9133 62.676 88.3652 62.676C86.8172 62.676 85.541 63.9521 85.541 65.5002V68.3453C85.4992 69.0147 85.7921 69.7051 86.3778 70.2699L89.202 73.0941C90.0388 73.9309 90.0388 75.2907 89.202 76.1065C88.8045 76.504 88.2606 76.7341 87.6958 76.7341C87.131 76.7341 86.587 76.504 86.1896 76.1065L85.562 75.4789V85.5832L86.0431 86.0644H87.0891V87.738ZM84.7252 87.0267L84.7879 87.0685C85.1436 87.3614 85.5829 87.5288 86.0431 87.5288H86.9008V86.2527H86.0431L85.3737 85.5832V75.0187L86.336 75.981C86.6916 76.3367 87.1937 76.5459 87.7167 76.5459C88.2397 76.5459 88.7209 76.3367 89.0974 75.981C89.8505 75.2279 89.8505 73.9936 89.0974 73.2196L86.2732 70.3954C85.6666 69.7887 85.3528 69.0356 85.3946 68.3244V65.4793C85.3946 63.8057 86.7544 62.4459 88.428 62.4459C90.1016 62.4459 91.4614 63.8057 91.4614 65.4793V73.889C91.4614 75.207 92.5283 76.253 93.8253 76.253C95.1223 76.253 96.1892 75.1861 96.1892 73.889V65.7094C96.1892 63.6802 95.3943 61.7555 93.9717 60.2911L93.909 60.2284L93.8881 60.1865H93.8671L92.7375 59.2452L92.612 59.1615L91.3777 58.513L91.3358 58.5126L91.294 58.4707C90.8547 58.3034 90.3735 58.1573 89.9133 58.0736C89.4112 57.969 88.9091 57.9272 88.4489 57.9272H88.3443C86.3151 57.9481 84.3905 58.764 82.947 60.1865L79.558 63.5756L78.5747 63.973L77.5915 63.5756L77.194 62.5923L77.5915 61.6091L84.7879 54.4127C85.7712 53.4294 85.9804 51.9023 85.29 50.6889L85.2273 50.5843L89.7878 48.6806L89.4531 47.8648L86.2105 49.2036L88.679 46.7142L88.0514 46.0866L85.5829 48.5551L86.9218 45.3125L86.1059 44.9778L84.767 48.2204V44.7059H83.8884V48.2204L82.5495 44.9778L81.7336 45.3125L83.0725 48.5551L80.5831 46.0657L79.9555 46.6932L82.3612 49.099H82.173C81.5035 49.2036 80.8759 49.5174 80.3948 49.9986C79.3906 51.0027 79.2023 52.6136 79.9555 53.806L79.9973 53.8688L78.5957 55.2704L79.4952 56.1699L81.7546 53.9106L81.2943 53.4504C80.5831 52.7391 80.5831 51.5885 81.2943 50.8772C81.629 50.5425 82.0893 50.3333 82.5704 50.3333C83.0516 50.3333 83.5118 50.5216 83.8465 50.8772C84.5578 51.5885 84.5578 52.7391 83.8465 53.4504L76.6501 60.6468C76.148 61.1489 75.8761 61.8183 75.8761 62.5296C75.8761 63.2408 76.148 63.9103 76.6501 64.4123C77.1522 64.9144 77.8216 65.2073 78.5329 65.2073C79.2442 65.2073 79.9136 64.9353 80.4157 64.4123L83.8047 61.0233C85.039 59.7891 86.6498 59.1196 88.3861 59.1196H88.428L89.6832 59.2452L89.8087 59.287L89.9133 59.3288L90.9174 59.6426H90.9593L91.0011 59.6845C93.3651 60.7305 94.8713 63.0526 94.8713 65.6048V73.7844C94.8713 74.3911 94.3901 74.8723 93.7835 74.8723C93.1768 74.8723 92.6956 74.3911 92.6956 73.7844V65.3747C92.6956 63.0107 90.771 61.0652 88.3861 61.0652C86.0013 61.0652 84.0767 62.9898 84.0767 65.3747V71.7971L82.0056 69.726C80.9596 68.68 80.1437 67.8641 80.1019 67.8223C79.7253 67.4667 79.2442 67.2574 78.7212 67.2574C78.1982 67.2574 77.717 67.4667 77.3405 67.8223C76.9848 68.1988 76.7756 68.68 76.7756 69.203C76.7756 69.726 76.9848 70.2071 77.3405 70.5837L78.24 69.6842L78.0518 69.2239L78.24 68.7637H79.1814L84.0767 73.6589V85.5205L83.4072 86.1895L80.7295 86.1899V87.466H83.4072C83.8675 87.466 84.3068 87.2986 84.6624 87.0058L84.7252 86.9639V87.0267ZM87.6958 75.2488L87.2356 75.0605L85.3737 73.1987V71.3159L88.177 74.1191L88.3652 74.5794L88.177 75.0396L87.7167 75.2279M85.5829 73.0941L87.382 74.8932L87.7167 75.0187L88.0514 74.8932L88.1979 74.5585L88.0514 74.2237L85.5829 71.7552V73.0941Z" fill="#B96740"/>
<path d="M36.7979 76.3781C38.1577 76.3781 39.2665 75.2693 39.2665 73.9095V65.4998C39.2665 63.8889 40.5844 62.571 42.1952 62.571C43.8061 62.571 45.124 63.8889 45.124 65.4998V68.3448C45.1659 69.0143 44.8521 69.7465 44.2663 70.3322L41.4631 73.1564C41.0865 73.533 40.8564 74.056 40.8564 74.5999C40.8564 75.1438 41.0656 75.6459 41.4631 76.0434C41.8396 76.4199 42.3626 76.6291 42.9065 76.6291C43.4504 76.6291 43.9734 76.4199 44.35 76.0434L45.1449 75.2484V85.5828L44.5592 86.1685H43.5969V87.6329H44.5592C45.0403 87.6329 45.5006 87.4656 45.8771 87.1518C46.2537 87.4656 46.7139 87.6329 47.1951 87.6329H49.9565V86.1685H47.1951L46.6093 85.5828V73.7631L51.4627 68.9097H52.2577L52.425 69.3072L52.2577 69.7046L52.1949 69.7674L53.2409 70.8134L53.3037 70.7506C53.6802 70.3741 53.9104 69.8511 53.9104 69.3072C53.9104 68.7632 53.7012 68.2403 53.3037 67.8637C52.9062 67.4871 52.4041 67.2779 51.8602 67.2779C51.3163 67.2779 50.7933 67.4871 50.4167 67.8637L46.6093 71.692V65.4998C46.6093 63.0731 44.6429 61.1066 42.2162 61.1066C39.7895 61.1066 37.823 63.0731 37.823 65.4998V73.9095C37.823 74.4534 37.3837 74.8928 36.8188 74.8928C36.254 74.8928 35.8356 74.4534 35.8356 73.9095V65.7299C35.8356 63.8471 36.6724 62.0689 38.1577 60.8556L38.3042 60.73L38.6598 60.4372L39.0573 60.207L39.2246 60.1234L39.392 60.0188L39.7476 59.8305L40.1033 59.705L40.4798 59.5794L40.9191 59.4539L41.3794 59.4121H41.5886C43.4923 59.2238 45.3541 59.8723 46.693 61.2112L50.082 64.6002C50.605 65.1232 51.2954 65.4161 52.0276 65.4161C52.7598 65.4161 53.4501 65.1232 53.9731 64.6002C54.4961 64.0772 54.789 63.3868 54.789 62.6547C54.789 61.9225 54.4961 61.2321 53.9731 60.7091L46.7976 53.5127C46.4629 53.178 46.2955 52.7596 46.2955 52.2993C46.2955 51.8391 46.4838 51.3998 46.7976 51.086C47.1114 50.7722 47.5507 50.5839 48.011 50.5839C48.4712 50.5839 48.9105 50.7722 49.2243 51.086C49.8937 51.7554 49.8937 52.8433 49.2243 53.5127L48.7013 54.0357L51.0862 56.4205L52.1322 55.3746L50.7096 53.952C51.4837 52.6968 51.2954 51.0651 50.2494 50.0191C49.7682 49.5379 49.1197 49.2241 48.4294 49.1195L50.7515 46.7974L49.9983 46.0443L47.7808 48.2618L48.9733 45.3749L47.99 44.9565L46.7976 47.8434V44.7264H45.7307V47.8643L44.5383 44.9774L43.555 45.3958L44.7475 48.2827L42.5509 46.0652L41.7978 46.8183L43.9944 49.0358L41.1074 47.8434L40.689 48.8266L45.2286 50.7304C44.5173 51.9855 44.7056 53.5545 45.7307 54.5796L52.9271 61.776L53.3037 62.6756L52.9271 63.5961L52.0276 63.9726L51.1071 63.5961L47.7181 60.207C46.2537 58.7426 44.3291 57.9268 42.258 57.9059H42.1534C41.6722 57.9059 41.1702 57.9477 40.6472 58.0523C40.1869 58.136 39.7267 58.2824 39.2665 58.4707H39.2246L39.1619 58.5125L37.9276 59.161L37.8648 59.2029L37.7812 59.2447L36.6306 60.1861H36.5887L36.526 60.2907C35.0825 61.776 34.2875 63.7216 34.2875 65.7717V73.9514C34.2875 75.3112 35.3963 76.4199 36.7561 76.4199M45.0822 71.6083V73.2192L43.2412 75.0601H42.4463V74.2652L45.0822 71.6293V71.6083Z" fill="#B96740"/>
<path d="M50.0401 87.7379H47.1741C46.693 87.7379 46.2327 87.5706 45.8562 87.2777C45.4796 87.5706 45.0194 87.7379 44.5382 87.7379H43.4922V86.0644H44.5382L45.0194 85.5832V75.4789L44.3918 76.1065C43.9943 76.504 43.4504 76.7341 42.8856 76.7341C42.3207 76.7341 41.7768 76.504 41.3793 76.1065C40.9818 75.709 40.7517 75.1651 40.7517 74.6003C40.7517 74.0354 40.9818 73.4915 41.3793 73.0941L44.2035 70.2699C44.7683 69.705 45.0821 69.0147 45.0403 68.3662V65.5002C45.0403 63.9312 43.7642 62.676 42.2161 62.676C40.6681 62.676 39.3919 63.9521 39.3919 65.5002V73.9099C39.3919 75.3116 38.2414 76.4622 36.8397 76.4622C35.4381 76.4622 34.2875 75.3116 34.2875 73.9099V65.7303C34.2875 63.6592 35.0825 61.6928 36.5468 60.1865L36.6096 60.1028L36.6724 60.061L37.823 59.1196L37.8857 59.0778L37.9694 59.0359L39.2246 58.3665H39.2664L39.3083 58.3247C39.7685 58.1364 40.2287 57.9899 40.7099 57.9063C41.2329 57.8017 41.735 57.7598 42.237 57.7598H42.3416C44.4336 57.7807 46.3792 58.6175 47.8645 60.0819L51.2535 63.4709L52.0903 63.8266L52.9271 63.4919L53.2827 62.6551L52.9271 61.8183L45.7307 54.6218C44.7056 53.5968 44.4755 52.0278 45.1658 50.7517L40.6262 48.8689L41.1074 47.6974L43.6387 48.7434L41.714 46.7978L42.6136 45.8983L44.5382 47.8438L43.4922 45.3125L44.6637 44.8314L45.7097 47.3627V44.6222H46.9649V47.3627L48.0109 44.8314L49.1824 45.3125L48.1364 47.8438L50.082 45.8983L50.9815 46.7978L48.7222 49.0572C49.3707 49.1827 49.9565 49.4965 50.4167 49.9567C51.4627 51.0027 51.6719 52.6763 50.9188 53.9315L52.3413 55.354L51.1698 56.5256L51.0443 56.4L48.6594 53.9943L49.2452 53.4085C49.8728 52.7809 49.8728 51.7349 49.2452 51.1073L48.0946 50.6262L46.944 51.1073L46.4628 52.2579L46.944 53.4085L54.1404 60.6049C54.6843 61.1488 54.9772 61.8601 54.9772 62.6341C54.9772 63.4082 54.6843 64.1195 54.1404 64.6634C53.5965 65.2073 52.8852 65.5002 52.1112 65.5002C51.3372 65.5002 50.6259 65.2073 50.082 64.6634L46.693 61.2744C45.3959 59.9773 43.555 59.3288 41.6722 59.4962H41.463L41.0237 59.5589L40.5844 59.6844L40.3752 59.7472L40.1869 59.81L39.8313 59.9146L39.4756 60.1028H39.4338L39.2873 60.2074L39.12 60.2911L38.7225 60.5212L38.3669 60.8141L38.2204 60.9396C36.777 62.153 35.9402 63.9103 35.9402 65.7512V73.9308C35.9402 74.4329 36.3376 74.8304 36.8397 74.8304C37.3418 74.8304 37.7393 74.4329 37.7393 73.9308V65.5211C37.7393 63.0525 39.7476 61.0233 42.237 61.0233C44.7265 61.0233 46.7348 63.0525 46.7348 65.5211V71.4832L50.3958 67.8223C50.7933 67.4248 51.3372 67.1947 51.902 67.1947C52.4668 67.1947 53.0108 67.4248 53.4082 67.8223C53.8057 68.2197 54.0358 68.7637 54.0358 69.3285C54.0358 69.8933 53.8057 70.4372 53.4082 70.8347L53.2827 70.9602L52.1112 69.7887L52.2367 69.6632L52.3832 69.3285L52.2367 68.9938L51.902 68.8683L51.5673 68.9938L46.7348 73.8263V85.6041L47.216 86.0853H50.082V87.7589L50.0401 87.7379ZM45.8562 87.0267L45.9189 87.0894C46.2746 87.3823 46.7139 87.5497 47.1741 87.5497H49.8519V86.2736H47.1741L46.5047 85.6041V73.7426L51.3999 68.8473L51.8602 68.6591L52.3204 68.8473L52.5087 69.3076L52.3204 69.7678L53.22 70.6674C53.5756 70.3117 53.7848 69.8096 53.7848 69.2867C53.7848 68.7637 53.5756 68.2825 53.22 67.9059C52.8643 67.5294 52.3622 67.3411 51.8392 67.3411C51.3162 67.3411 50.8351 67.5503 50.4585 67.9059L46.4838 71.8807V65.4583C46.4838 63.0944 44.5591 61.1488 42.1743 61.1488C39.7894 61.1488 37.8648 63.0735 37.8648 65.4583V73.8681C37.8648 74.4748 37.3836 74.9559 36.777 74.9559C36.1703 74.9559 35.6891 74.4748 35.6891 73.8681V65.6884C35.6891 63.7847 36.5468 61.9856 38.0322 60.7304L38.1786 60.6049L38.5551 60.2911L38.9735 60.061L39.1409 59.9773L39.2664 59.8936H39.3083L39.6848 59.6844L40.0405 59.5589L40.2497 59.4962L40.4379 59.4334L40.8982 59.3079L41.3584 59.2661H41.5676C43.5132 59.0778 45.3959 59.7472 46.7348 61.0861L50.1238 64.4751C50.6259 64.9772 51.2953 65.2491 52.0066 65.2491C52.7179 65.2491 53.3873 64.9772 53.8894 64.4751C54.3915 63.973 54.6634 63.3036 54.6634 62.5923C54.6634 61.881 54.3915 61.2116 53.8894 60.7095L46.693 53.5131C46.3582 53.1784 46.17 52.7181 46.17 52.237C46.17 51.7558 46.3582 51.2956 46.693 50.9609C47.0277 50.6262 47.4879 50.4379 47.9691 50.4379C48.4502 50.4379 48.9105 50.6262 49.2452 50.9609C49.9565 51.6722 49.9565 52.8227 49.2452 53.534L48.7849 53.9733L51.0443 56.2327L51.9438 55.3331L50.5422 53.9315L50.5841 53.8687C51.3372 52.6554 51.1489 51.0655 50.1238 50.0613C49.6636 49.6011 49.036 49.2873 48.3456 49.2036H48.1574L50.5631 46.7769L49.9355 46.1493L47.4461 48.6388L48.7849 45.3962L47.9691 45.0615L46.6302 48.3041V44.7895H45.7516V48.3041L44.4127 45.0615L43.5968 45.3962L44.9357 48.6388L42.4672 46.1702L41.8396 46.7978L44.3081 49.2873L41.0655 47.9484L40.7308 48.7643L45.2913 50.668L45.2286 50.7517C44.5382 51.965 44.7474 53.4922 45.7307 54.4754L52.9062 61.6718L53.3036 62.6551L52.9062 63.6383L51.9229 64.0358L50.9397 63.6383L47.5507 60.2493C46.1072 58.8058 44.2035 58.0109 42.1534 57.9899H42.0488C41.5676 57.9899 41.0655 58.0318 40.5634 58.1364C40.1032 58.2201 39.643 58.3665 39.1827 58.5339H39.1409L39.0781 58.5757L37.8439 59.2242L37.7184 59.3079L36.5678 60.2493H36.5259L36.4632 60.3539C35.0406 61.8183 34.2457 63.7429 34.2457 65.7721V73.9518C34.2457 75.2488 35.3126 76.3157 36.6096 76.3157C37.9066 76.3157 38.9735 75.2488 38.9735 73.9518V65.542C38.9735 63.8684 40.3333 62.5295 42.0069 62.5295C43.6805 62.5295 45.0403 63.8893 45.0403 65.542V68.3871C45.0821 69.0775 44.7683 69.8306 44.1617 70.4372L41.3375 73.2614C40.9609 73.6171 40.7727 74.1191 40.7727 74.6421C40.7727 75.1651 40.9818 75.6463 41.3375 76.0228C41.6931 76.3994 42.1952 76.5877 42.7182 76.5877C43.2412 76.5877 43.7223 76.3785 44.0989 76.0228L45.0612 75.0605V85.625L44.3918 86.2945H43.5341V87.5706H44.3918C44.852 87.5706 45.2913 87.4032 45.647 87.1104L45.7097 87.0476L45.8562 87.0267ZM42.8856 75.2488L42.4253 75.0605V74.1191L45.2286 71.3159V73.1777L43.3667 75.0396L42.9065 75.2279L42.8856 75.2488ZM45.0194 71.7761L42.5508 74.2447V74.9141L42.8856 75.0396L43.2203 74.9141L45.0194 73.115V71.7761Z" fill="#B96740"/>
<path d="M125.791 40.0197C122.486 32.2375 117.779 25.2294 111.775 19.2254C105.771 13.2214 98.7624 8.49353 90.9802 5.20912C82.9052 1.79919 74.328 0.0837611 65.4999 0.0837611C56.6717 0.0837611 48.0946 1.82011 40.0404 5.23004C32.2583 8.53537 25.2501 13.2423 19.2461 19.2463C13.2421 25.2503 8.51426 32.2375 5.22984 40.0406C1.81991 48.0948 0.104482 56.651 0.104482 65.4792C0.104482 74.3073 1.84083 82.8845 5.25076 90.9386C8.5561 98.7208 13.2631 105.729 19.267 111.733C25.271 117.737 32.2792 122.465 40.0614 125.749C48.1364 129.159 56.6926 130.895 65.5208 130.895C74.349 130.895 82.9261 129.159 90.9802 125.749C98.7624 122.465 105.771 117.737 111.775 111.733C117.779 105.729 122.506 98.7208 125.791 90.9386C129.201 82.8635 130.937 74.3073 130.937 65.4792C130.937 56.651 129.201 48.0739 125.791 40.0197ZM65.4999 129.473C56.86 129.473 48.4921 127.778 40.5844 124.452C32.9695 121.231 26.1288 116.607 20.2503 110.75C14.3718 104.871 9.76945 98.0304 6.54779 90.4156C3.22154 82.5288 1.52703 74.14 1.52703 65.5001C1.52703 56.8602 3.22154 48.4713 6.54779 40.5846C9.76945 32.9697 14.3927 26.129 20.2503 20.2505C26.1288 14.372 32.9695 9.76964 40.5844 6.54799C48.4711 3.20082 56.86 1.52723 65.4999 1.52723C74.1398 1.52723 82.5077 3.22174 90.4154 6.54799C98.0302 9.76964 104.871 14.3929 110.749 20.2505C116.628 26.129 121.23 32.9697 124.452 40.5846C127.799 48.4713 129.473 56.8602 129.473 65.5001C129.473 74.14 127.778 82.5079 124.452 90.4156C121.23 98.0304 116.607 104.871 110.749 110.75C104.871 116.628 98.0302 121.231 90.4154 124.452C82.5286 127.799 74.1398 129.473 65.4999 129.473Z" fill="#B96740"/>
<path d="M65.4999 131C56.6508 131 48.0737 129.264 39.9986 125.854C32.1955 122.548 25.1874 117.841 19.1834 111.817C13.1585 105.792 8.45152 98.7835 5.14619 91.0013C1.73625 82.9262 -9.15527e-05 74.3491 -9.15527e-05 65.5C-9.15527e-05 56.6509 1.73625 48.0738 5.14619 39.9987C8.45152 32.1956 13.1585 25.1875 19.1834 19.1835C25.2083 13.1586 32.2165 8.45161 39.9986 5.14628C48.0737 1.73635 56.6508 0 65.4999 0C74.349 0 82.9261 1.73635 91.0012 5.14628C98.8043 8.45161 105.812 13.1795 111.816 19.1835C117.841 25.2084 122.548 32.1956 125.854 39.9987C129.264 48.0738 131 56.6509 131 65.5C131 74.3491 129.264 82.9262 125.854 91.0013C122.548 98.8044 117.841 105.813 111.816 111.817C105.792 117.841 98.7834 122.548 91.0012 125.854C82.9261 129.264 74.349 131 65.4999 131ZM65.4999 0.167359C56.6717 0.167359 48.1364 1.9037 40.0823 5.29272C32.3001 8.57713 25.3129 13.2841 19.3089 19.2881C13.3049 25.2921 8.59796 32.2793 5.31355 40.0406C1.90361 48.1156 0.188187 56.6718 0.188187 65.4791C0.188187 74.2863 1.90361 82.8635 5.31355 90.8967C8.59796 98.6789 13.3049 105.666 19.3089 111.67C25.3129 117.674 32.3001 122.381 40.0823 125.665C48.1364 129.075 56.6927 130.812 65.4999 130.812C74.3072 130.812 82.8634 129.075 90.9175 125.665C98.6997 122.381 105.687 117.674 111.691 111.67C117.695 105.666 122.402 98.6789 125.686 90.8967C129.096 82.8425 130.812 74.2863 130.812 65.4791C130.812 56.6718 129.096 48.1156 125.686 40.0615C122.402 32.2793 117.695 25.2921 111.691 19.309C105.687 13.305 98.6997 8.59805 90.9175 5.31364C82.8843 1.9037 74.3281 0.167359 65.4999 0.167359ZM65.4999 129.557C56.86 129.557 48.4502 127.862 40.5635 124.515C32.9277 121.293 26.0869 116.67 20.1875 110.771C14.3091 104.892 9.68579 98.0303 6.46414 90.4155C3.11696 82.5078 1.42246 74.119 1.42246 65.4791C1.42246 56.8392 3.11696 48.4294 6.46414 40.5426C9.68579 32.9069 14.3091 26.0661 20.1875 20.1667C26.066 14.2882 32.9277 9.66496 40.5635 6.44331C48.4712 3.09614 56.86 1.40163 65.4999 1.40163C74.1398 1.40163 82.5496 3.09614 90.4363 6.44331C98.0721 9.66496 104.913 14.2882 110.812 20.1667C116.691 26.0452 121.314 32.9069 124.536 40.5426C127.883 48.4503 129.577 56.8392 129.577 65.4791C129.577 74.119 127.883 82.5287 124.536 90.4155C121.314 98.0513 116.691 104.892 110.812 110.771C104.934 116.649 98.0721 121.272 90.4363 124.515C82.5286 127.862 74.1398 129.557 65.4999 129.557ZM65.4999 1.58991C56.8809 1.58991 48.513 3.28441 40.6262 6.61067C33.0114 9.83232 26.1915 14.4347 20.3131 20.3132C14.4346 26.1707 9.83223 33.0115 6.61058 40.6263C3.28432 48.4922 1.58982 56.8601 1.58982 65.5C1.58982 74.1399 3.28432 82.4869 6.61058 90.3737C9.83223 97.9885 14.4346 104.808 20.3131 110.687C26.1706 116.544 33.0114 121.168 40.6262 124.389C48.4921 127.716 56.86 129.41 65.4999 129.41C74.1398 129.41 82.4868 127.716 90.3736 124.389C97.9884 121.168 104.808 116.565 110.687 110.687C116.544 104.829 121.168 97.9885 124.389 90.3737C127.715 82.5078 129.41 74.119 129.41 65.5C129.41 56.881 127.715 48.5131 124.389 40.6263C121.168 33.0115 116.565 26.1916 110.687 20.3132C104.808 14.4347 97.9884 9.83232 90.3736 6.61067C82.5077 3.28441 74.1398 1.58991 65.4999 1.58991Z" fill="#B96740"/>
<path d="M35.6055 94.0136C43.5341 101.942 54.0777 106.314 65.2907 106.314C76.5038 106.314 87.0474 101.942 94.976 94.0136C102.905 86.085 107.277 75.5414 107.277 64.3283C107.277 53.1153 102.905 42.5717 94.976 34.6431C87.0474 26.7145 76.5038 22.3422 65.2907 22.3422C54.0777 22.3422 43.5341 26.7145 35.6055 34.6431C27.6769 42.5717 23.3046 53.1153 23.3046 64.3283C23.3046 75.5414 27.6769 86.085 35.6055 94.0136ZM65.2907 23.7229C76.1272 23.7229 86.3361 27.9488 93.9928 35.6263C101.67 43.283 105.896 53.4919 105.896 64.3283C105.896 75.1648 101.67 85.3737 93.9928 93.0304C86.3152 100.708 76.1272 104.913 65.2907 104.913C54.4543 104.913 44.2454 100.687 36.5887 93.0304C28.9321 85.3737 24.6853 75.1648 24.6853 64.3283C24.6853 53.4919 28.9111 43.283 36.5887 35.6263C44.2663 27.9488 54.4543 23.7229 65.2907 23.7229Z" fill="#B96740"/>
<path d="M20.8152 96.6079L23.1373 96.9845L23.4929 94.6624L21.1917 94.3068L20.8152 96.6079Z" fill="#B96740"/>
<path d="M22.3005 85.813C22.3633 85.2481 22.2378 84.6624 21.9658 84.0348C21.7148 83.449 21.401 82.9678 21.0453 82.5704L19.8529 81.6708L20.5014 81.1688L19.4554 78.763L19.3299 78.8048L19.0161 79.9136L11.1502 83.3444L10.1252 82.8214L9.99965 82.8842L11.6942 86.7753L11.8197 86.7125L11.9452 85.1226L19.0579 82.0265L20.1248 82.6959L20.857 83.7628L21.0244 84.8297L20.5851 85.813L19.5391 86.5661L13.6606 89.1392L12.4264 88.1351L12.3008 88.1978L13.9953 92.0889L14.1209 92.0471L14.4556 90.9383L20.3131 88.3861C20.8989 88.135 21.3591 87.7794 21.7148 87.361C22.0495 86.9217 22.2587 86.4196 22.3214 85.8548" fill="#B96740"/>
<path d="M14.1835 78.9724C15.1667 78.7841 16.0035 78.3867 16.7148 77.8009C17.4261 77.2151 17.9491 76.462 18.2629 75.5834C18.5767 74.7048 18.6394 73.7425 18.4302 72.7174C18.2629 71.8178 17.97 71.0229 17.6144 70.3744L17.6562 69.7468L14.1626 70.4162L13.0329 69.6003H12.9074L13.786 74.0981H13.9115L14.5391 72.3199L17.5098 71.7551V71.9015L17.5516 71.9643C17.6771 72.6337 17.5516 73.3659 17.1123 74.1609C16.673 74.9558 16.0663 75.6462 15.2504 76.2738C14.4345 76.9014 13.5977 77.2779 12.7191 77.4662C12.0915 77.5917 11.4848 77.5708 10.92 77.4243C10.3343 77.2779 9.81126 76.985 9.35102 76.5248L9.26734 76.1692C9.12091 75.437 9.14183 74.6838 9.28826 73.9098C9.45562 73.1149 9.7485 72.4245 10.1669 71.8178V71.6923L8.01215 71.4622C7.71928 72.4245 7.67744 73.5333 7.92847 74.7884C8.13767 75.8135 8.53515 76.6712 9.16275 77.3825C9.79034 78.0938 10.5435 78.5749 11.4221 78.8469C12.3007 79.1189 13.2212 79.1607 14.2044 78.9724" fill="#B96740"/>
<path d="M66.1693 87.633H64.3911V87.4656L63.0104 65.2279L51.3999 82.7796H49.3707L49.4962 82.5076L61.5878 58.2406H59.1402V54.2031H71.3992V58.2406H68.9516L81.1897 82.7796H79.1396L79.0768 82.6959L67.5082 65.2279L66.1274 87.633H66.1693ZM64.5585 87.4447H65.981L67.3826 64.6421L79.2651 82.5704H80.8969L68.6588 58.0314H71.211V54.3705H59.3285V58.0314H61.8807L61.818 58.1779L49.6635 82.5704H51.2953L63.1778 64.6421L64.5794 87.4447H64.5585ZM65.1861 76.6082L64.0564 58.0524H66.5249L65.3953 76.6082H65.1861ZM64.2447 58.2406L65.2697 75.0602L66.2948 58.2406H64.2237H64.2447ZM56.0232 73.1146L55.8558 73.01L62.8221 59.0356L63.0313 62.5083L56.0232 73.1146ZM62.6757 59.7469L56.7135 71.713L62.843 62.4455L62.6757 59.7469ZM74.5372 73.1146L67.5082 62.5083L67.7174 59.0356L74.6837 73.01L74.5163 73.1146H74.5372ZM67.7174 62.4664L73.8469 71.7339L67.8847 59.7678L67.7174 62.4664ZM69.9558 56.7553H60.6255V55.6675H69.9558V56.7553ZM60.8138 56.567H69.7675V55.8558H60.8138V56.567Z" fill="#B96740"/>
<path d="M65.2907 51.2956C63.5752 51.2956 62.1945 49.9148 62.1945 48.1994C62.1945 46.484 63.5752 45.1033 65.2907 45.1033C67.0061 45.1033 68.3868 46.484 68.3868 48.1994C68.3868 49.9148 67.0061 51.2956 65.2907 51.2956ZM65.2907 45.2916C63.6798 45.2916 62.3828 46.5886 62.3828 48.1994C62.3828 49.8102 63.6798 51.1073 65.2907 51.1073C66.9015 51.1073 68.1985 49.8102 68.1985 48.1994C68.1985 46.5886 66.9015 45.2916 65.2907 45.2916ZM65.2907 49.8312C64.3911 49.8312 63.6589 49.099 63.6589 48.1994C63.6589 47.2999 64.3911 46.5677 65.2907 46.5677C66.1902 46.5677 66.9224 47.2999 66.9224 48.1994C66.9224 49.099 66.1902 49.8312 65.2907 49.8312ZM65.2907 46.7769C64.4957 46.7769 63.8472 47.4254 63.8472 48.2203C63.8472 49.0153 64.4957 49.6638 65.2907 49.6638C66.0856 49.6638 66.7341 49.0153 66.7341 48.2203C66.7341 47.4254 66.0856 46.7769 65.2907 46.7769Z" fill="#B96740"/>
<path d="M60.1025 53.3876V43.0114H61.5251V42.6139C61.5251 41.4633 62.4665 40.501 63.638 40.501H66.9642C68.1148 40.501 69.0772 41.4424 69.0772 42.6139V43.0114H70.4997V53.3876H60.1025ZM60.2908 53.1994H70.2905V43.1997H68.868V42.6139C68.868 41.5679 68.0102 40.7102 66.9642 40.7102H63.638C62.592 40.7102 61.7343 41.5679 61.7343 42.6139V43.1997H60.3117V53.1994H60.2908ZM69.0144 51.9232H61.5669V44.4758H69.0144V51.9232ZM61.7552 51.735H68.8261V44.6641H61.7552V51.735ZM67.5919 43.1997H62.9895V42.6139L63.6171 41.9863H66.9433L67.5709 42.6139V43.1997H67.5919ZM63.1987 43.0114H67.4245V42.6139L66.9852 42.1746H63.6589L63.2196 42.6139V43.0114H63.1987Z" fill="#B96740"/>
<path d="M26.6727 99.1809C27.0911 99.6202 27.2794 100.122 27.2585 100.666C27.2166 101.21 26.9865 101.67 26.5472 102.047C26.1706 102.361 25.7522 102.549 25.292 102.57C24.6644 102.612 24.1414 102.361 23.6812 101.838C23.2209 101.315 23.0536 100.75 23.1582 100.164C23.2418 99.7039 23.472 99.2855 23.8694 98.9508C24.3088 98.5742 24.7899 98.4069 25.3338 98.4487C25.8777 98.4906 26.338 98.7416 26.6936 99.1809M26.589 99.3274L25.6476 99.0763L24.5389 99.7457C24.0368 100.185 23.7439 100.583 23.6602 100.959L23.8485 101.691L24.2878 101.963L24.9782 101.88L25.8568 101.294L26.6309 100.436L26.7982 99.8085L26.589 99.3274Z" fill="#B96740"/>
<path d="M29.1831 103.658L27.7187 105.122L27.4886 105.436L27.5932 105.666L27.5095 105.75L26.7355 104.976L26.9865 104.725L26.4844 104.683L26.1079 104.453L25.9196 104.076L25.9823 103.679L26.4007 103.177L27.1539 102.423L27.384 102.131L27.2794 101.9L27.3421 101.817L28.1162 102.591L26.8401 103.888L26.589 104.16L26.5681 104.306L26.6309 104.432L26.7982 104.536L27.2166 104.515L28.2208 103.49L28.43 103.198L28.3463 102.967L28.409 102.884L29.1831 103.658Z" fill="#B96740"/>
<path d="M30.501 104.829L30.1035 105.289L30.7939 105.185L31.1705 105.331L31.3169 105.582L31.1914 105.854L30.9194 106.022L30.6893 105.938L30.5638 105.708L30.5219 105.52L30.501 105.478L30.3337 105.415L30.0199 105.499L29.5387 105.896L29.1412 106.356L29.0366 106.482L28.9111 106.649V106.796L29.0576 106.984L28.9948 107.068L27.907 106.105L27.9697 106.022L28.2208 106.105L28.5346 105.833L29.5178 104.725L29.7061 104.495L29.727 104.348L29.6015 104.181L29.6852 104.118L30.501 104.829Z" fill="#B96740"/>
<path d="M34.6432 109.808L33.7227 110.812L30.9613 108.762L31.024 108.679L31.1286 108.762L31.3797 108.867L31.5679 108.825L31.7981 108.553L33.3252 106.524L33.5135 106.21L33.4926 106.022L33.3252 105.833L33.2206 105.75L33.2834 105.666L34.936 106.9L34.8733 106.984L34.7268 106.879L34.4758 106.754L34.3084 106.796L34.0574 107.068L32.593 109.055L32.3838 109.369L32.4257 109.557L32.6976 109.787L32.9486 109.976L33.4298 110.185L33.911 110.122L34.5386 109.745L34.6432 109.808Z" fill="#B96740"/>
<path d="M35.7519 111.67L34.7896 111.545L34.5595 111.21L34.6432 110.812L35.1661 110.499C35.3963 110.457 35.8356 110.499 36.4841 110.582L36.6305 110.352L36.8188 110.017V109.829L36.6515 109.662L36.3377 109.557L36.2121 109.62V109.787L36.1494 110.038L35.9402 110.185L35.6682 110.122L35.4799 109.871L35.5218 109.599L35.8774 109.369H36.4213L36.9862 109.62L37.4046 110.08L37.4464 110.519L37.1745 111.001L36.6096 111.879L36.505 112.088V112.172L36.5469 112.235H36.7351L36.777 112.339L36.3586 112.444L36.0239 112.339L35.7937 112.047L35.8356 111.691M35.9402 111.524L36.4213 110.77L35.7519 110.854L35.5009 111.063L35.459 111.314L35.5845 111.482L35.9402 111.524Z" fill="#B96740"/>
<path d="M39.12 111.084L38.9526 111.398L39.4547 111.293L39.8731 111.419L40.166 111.754L40.1869 112.172L39.915 112.737L39.392 113.637L39.2664 113.992L39.4129 114.201L39.371 114.285L38.1995 113.616L38.2414 113.532H38.4924L38.7016 113.239L39.2874 112.214L39.4756 111.858V111.691L39.371 111.586L38.8062 111.649L38.0949 112.904L37.9485 113.26L38.0949 113.448L38.0322 113.532L36.8607 112.862L36.9234 112.779L37.1745 112.8L37.4046 112.507L38.1577 111.189L38.2832 110.833L38.1368 110.645L38.1786 110.54L39.12 111.084Z" fill="#B96740"/>
<path d="M43.8479 112.214L42.509 114.975L42.3626 115.31V115.477L42.5508 115.624L42.509 115.708L41.4003 115.415L41.5885 115.038L41.1283 115.185L40.7727 115.101L40.2497 114.327L40.4379 113.406L40.8982 112.779L41.4839 112.507L42.0488 112.591L42.3207 112.8L42.4881 113.176L42.8437 112.444L42.9902 112.109L42.9483 111.963L42.7391 111.816L42.781 111.712L43.8479 112.235V112.214ZM42.3417 113.49L42.0488 112.904H41.8605L41.5676 113.072L41.212 113.657L40.94 114.348V114.745L41.1074 114.871L41.6931 114.724L42.3207 113.469L42.3417 113.49Z" fill="#B96740"/>
<path d="M42.509 116.963L42.5718 116.837L43.1575 116.691L43.4713 116.335L43.4922 116.251L43.4504 116.21H43.4086L43.1994 116.189L42.9902 115.938V115.624L43.2621 115.373H43.6387L43.9316 115.708L43.8897 116.272L43.3667 116.837L42.509 116.963Z" fill="#B96740"/>
<path d="M48.9105 114.16C49.4962 114.348 49.9146 114.662 50.1657 115.164C50.3958 115.645 50.4376 116.168 50.2493 116.712C50.082 117.172 49.81 117.528 49.4335 117.8C48.9105 118.134 48.3247 118.197 47.6762 117.988C47.0068 117.758 46.5884 117.36 46.3792 116.795C46.2118 116.335 46.2118 115.875 46.3792 115.394C46.5675 114.85 46.9022 114.452 47.4043 114.222C47.8854 113.992 48.4084 113.971 48.9314 114.18M48.9105 114.369L47.9691 114.62C47.739 114.85 47.5298 115.226 47.3415 115.749C47.1323 116.377 47.0905 116.879 47.195 117.235L47.739 117.758H48.241L48.8059 117.36L49.2661 116.419C49.4335 115.938 49.4962 115.561 49.4962 115.289L49.3289 114.662L48.8896 114.348" fill="#B96740"/>
<path d="M53.3455 116.754L52.8225 118.783L52.7806 119.159L52.9689 119.306L52.948 119.41L51.902 119.138L51.9857 118.783L51.5464 119.013H51.1071L50.7514 118.783L50.605 118.406L50.7096 117.758L50.9606 116.733L51.0025 116.356L50.8142 116.21L50.8351 116.105L51.8811 116.377L51.4209 118.134L51.3581 118.511L51.4209 118.657L51.5255 118.72H51.7347L52.0694 118.49L52.425 117.109L52.4669 116.733L52.2577 116.586L52.2995 116.482L53.3455 116.754Z" fill="#B96740"/>
<path d="M55.0609 117.13L54.9563 117.716L55.5211 117.277L55.9186 117.214L56.1487 117.36L56.1906 117.653L56.0441 117.925L55.7931 117.988L55.563 117.841L55.4584 117.695L55.3956 117.674L55.2283 117.695L54.9982 117.946L54.789 118.532L54.6634 119.118L54.6425 119.285L54.6216 119.494L54.7053 119.62L54.9145 119.703L54.8936 119.808L53.471 119.515L53.4919 119.431L53.743 119.369L53.8894 118.971L54.1823 117.528L54.2241 117.235L54.1614 117.088L53.9731 117.005L54.0149 116.9L55.0609 117.13Z" fill="#B96740"/>
<path d="M63.4079 117.005L63.387 117.109L63.2196 117.151L63.0523 117.277L62.8431 117.716L61.3369 120.77L61.2113 120.749L60.5001 118.176L59.224 120.561H59.1194L58.157 117.297L57.9269 116.691L57.6968 116.565V116.44L59.3704 116.607L59.3495 116.712L59.0775 116.754L58.9938 116.879L59.0984 117.339L59.6633 119.285L60.4164 117.883L60.2909 117.465L60.1444 117.005L59.998 116.816L59.726 116.754V116.649L61.5879 116.816V116.921H61.295L61.2113 116.984L61.1695 117.088L61.2532 117.507L61.7762 119.389L62.5502 117.8L62.7176 117.465L62.7594 117.297L62.6966 117.109L62.4038 117.005V116.9L63.4079 117.005Z" fill="#B96740"/>
<path d="M65.4162 119.41L63.9518 119.369L64.2029 120.205L64.6631 120.456L64.9769 120.373L65.2907 120.038L65.3953 120.101L64.8932 120.707L64.2866 120.875L63.4079 120.394L63.1987 119.473L63.5962 118.427L64.4539 118.051L65.1443 118.406L65.4371 119.389M64.7468 119.18V118.553L64.5585 118.281L64.4121 118.218L64.161 118.343L63.9728 119.034V119.138L64.7468 119.159V119.18Z" fill="#B96740"/>
<path d="M67.299 120.394L66.4413 120.854L66.0647 120.707L65.8974 120.331L66.1484 119.766C66.3158 119.599 66.6923 119.369 67.2781 119.097V118.825L67.2363 118.448L67.1107 118.323L66.9015 118.281L66.5877 118.364L66.525 118.49L66.6087 118.636L66.7133 118.866L66.6087 119.097L66.3367 119.201L66.0438 119.097L65.9183 118.846L66.0647 118.448L66.5041 118.155L67.1107 118.051L67.7174 118.197L68.0103 118.532L68.073 119.076V120.101L68.1149 120.331L68.1567 120.394H68.2195L68.3659 120.31L68.4496 120.373L68.1567 120.687L67.822 120.791L67.4664 120.687L67.299 120.373M67.299 120.164V119.264L66.776 119.703L66.6714 120.017L66.776 120.247L66.9852 120.31L67.3199 120.143" fill="#B96740"/>
<path d="M69.6211 116.795L69.8722 120.101L69.9558 120.456L70.2069 120.519L70.2278 120.624L68.7843 120.728V120.624L69.0354 120.498L69.0563 120.164L68.868 117.402L68.7843 117.046L68.5333 116.984L68.5124 116.879L69.6211 116.795Z" fill="#B96740"/>
<path d="M71.2319 116.879L71.3156 117.841L71.9432 117.779L71.9851 118.051L71.3575 118.113L71.5248 119.766L71.5876 120.059L71.6713 120.143L71.7759 120.184L72.0897 119.871L72.1733 119.912L71.483 120.54L71.0437 120.435L70.7926 120.164L70.7089 119.641L70.5625 118.197L70.2069 118.239V118.134L70.7508 117.549L71.1273 116.879H71.2319Z" fill="#B96740"/>
<path d="M73.0938 116.398L73.3239 117.925L73.6796 117.549L74.0352 117.402L74.4745 117.465L74.7674 117.758L74.9138 118.385L75.0812 119.431L75.2067 119.787L75.4368 119.85L75.4577 119.954L74.1189 120.164L74.098 120.059L74.3072 119.912L74.2862 119.536L74.1189 118.364L74.0143 117.967L73.9097 117.841L73.7632 117.82L73.575 117.925L73.3867 118.239L73.5959 119.661L73.7005 119.996L73.9306 120.08L73.9515 120.184L72.6126 120.394L72.5917 120.289L72.8219 120.143L72.8009 119.766L72.4035 117.109L72.2779 116.733L72.0478 116.67L72.0269 116.565L73.0938 116.398Z" fill="#B96740"/>
<path d="M76.2109 120.833L76.1899 120.707L76.5874 120.247L76.6502 119.766L76.6083 119.703L76.5665 119.682L76.5247 119.724L76.3155 119.808L76.0017 119.724L75.8343 119.452L75.8971 119.097L76.2109 118.908L76.6502 118.992L76.9431 119.473L76.8385 120.226L76.2109 120.833Z" fill="#B96740"/>
<path d="M79.8509 114.871C80.4367 114.683 80.9597 114.703 81.4408 114.975C81.922 115.226 82.2358 115.645 82.3822 116.189C82.5287 116.649 82.5077 117.109 82.3404 117.549C82.1103 118.134 81.6709 118.511 81.0015 118.72C80.3321 118.908 79.7463 118.825 79.2652 118.49C78.8677 118.218 78.5957 117.841 78.4702 117.339C78.3028 116.795 78.3656 116.272 78.6376 115.791C78.9095 115.31 79.307 114.996 79.8718 114.871M79.9555 115.038L79.3279 115.791C79.2652 116.126 79.3279 116.544 79.4744 117.088C79.6626 117.716 79.9137 118.155 80.2275 118.406L80.9597 118.532L81.399 118.26L81.6082 117.59L81.4617 116.544C81.3153 116.063 81.1689 115.708 81.0015 115.477L80.4994 115.059H79.9764" fill="#B96740"/>
<path d="M84.9763 114.452L85.7085 116.419L85.8967 116.754H86.1478L86.1687 116.858L85.1646 117.235L85.039 116.9L84.788 117.339L84.4324 117.59L84.014 117.611L83.6792 117.381L83.3864 116.795L83.0098 115.812L82.8424 115.477L82.5914 115.457L82.5496 115.373L83.5746 114.975L84.2022 116.691L84.3487 117.026L84.4742 117.109H84.6206L84.7671 116.984L84.9135 116.607L84.4324 115.268L84.2441 114.934H83.993L83.9512 114.829L84.9763 114.452Z" fill="#B96740"/>
<path d="M86.5871 113.762L86.8381 114.327L87.0473 113.637L87.3402 113.365L87.6122 113.344L87.8005 113.553L87.8423 113.867L87.6749 114.055L87.403 114.076L87.2356 114.034H87.1729L87.0473 114.16L87.0055 114.473L87.1519 115.08L87.403 115.645L87.4657 115.791L87.5703 115.959L87.7168 116.021L87.9469 115.98L87.9678 116.063L86.6499 116.649L86.6289 116.544L86.7963 116.377L86.6708 115.959L86.085 114.599L85.9595 114.348L85.834 114.264L85.6248 114.306L85.5829 114.201L86.5871 113.762Z" fill="#B96740"/>
<path d="M90.7711 112.632L91.3568 113.678L91.566 113.992L91.7334 114.055L91.9844 113.971L92.1099 113.908L92.1518 113.992L90.3736 114.975L90.3317 114.892L90.4363 114.829L90.6455 114.641L90.6874 114.473L90.5409 114.139L89.3067 111.921L89.0975 111.607L88.9301 111.545L88.6791 111.628L88.5536 111.691L88.5117 111.586L90.2899 110.624L90.3317 110.708L90.2062 110.77L90.0179 110.959L89.9761 111.126L90.1226 111.461L90.6455 112.423L91.838 111.754L91.315 110.791L91.1058 110.499L90.9384 110.436L90.6665 110.519L90.5619 110.582L90.52 110.478L92.2773 109.515L92.34 109.599L92.2145 109.662L92.0053 109.85L91.9844 110.017L92.1309 110.352L93.3651 112.57L93.5743 112.883L93.7417 112.925L93.9927 112.862L94.0973 112.8L94.1601 112.883L92.3819 113.867L92.34 113.762L92.4446 113.72L92.6539 113.532L92.6957 113.344L92.5493 113.03L91.9635 111.984L90.7711 112.632Z" fill="#B96740"/>
<path d="M95.6454 110.206L94.4111 111.001L95.1015 111.545L95.6245 111.482L95.8337 111.231L95.8964 110.791H96.001L95.9383 111.565L95.5199 112.047L94.5157 112.151L93.8254 111.524L93.5534 110.436L94.0555 109.641L94.8295 109.536L95.6245 110.185M94.9341 110.415L94.5576 109.913L94.2856 109.787L94.1182 109.829L93.9927 110.08L94.2228 110.75L94.2856 110.833L94.9341 110.415Z" fill="#B96740"/>
<path d="M96.1475 108.323L96.5031 108.825L96.5659 108.114L96.796 107.779L97.0679 107.695L97.298 107.863L97.4027 108.156L97.2771 108.386L97.0052 108.448H96.8378L96.7751 108.469L96.6914 108.616V108.93L96.9843 109.494L97.3399 109.976L97.4445 110.122L97.57 110.268L97.7164 110.31L97.9257 110.206L97.9884 110.289L96.8169 111.126L96.7541 111.042L96.9006 110.833L96.6914 110.457L95.8337 109.243L95.6454 109.034L95.5199 108.971L95.3316 109.055L95.2688 108.971L96.1475 108.323Z" fill="#B96740"/>
<path d="M97.047 106.043L97.3817 105.959L97.6746 106.126L97.7583 106.44L97.5909 106.733L97.2562 106.817L96.9633 106.649L96.8797 106.315L97.047 106.022M98.1558 106.796L99.4528 108.469L99.7247 108.72L99.9758 108.637L100.039 108.72L98.9089 109.599L98.8461 109.515L98.9926 109.264L98.8252 108.95L97.8629 107.716L97.5909 107.465L97.3399 107.549L97.2771 107.465L98.1558 106.775V106.796Z" fill="#B96740"/>
<path d="M98.7834 105.038L99.411 105.792L99.8921 105.394L100.08 105.603L99.5992 106.022L100.645 107.277L100.854 107.486L100.98 107.528L101.085 107.486L101.168 107.047H101.273L101.064 107.946L100.624 108.114L100.269 108.009L99.913 107.633L98.9716 106.524L98.7206 106.754L98.6578 106.67L98.7834 105.875L98.7206 105.101L98.7834 105.038Z" fill="#B96740"/>
<path d="M102.716 105.917L102.361 106.817L101.984 106.963L101.628 106.796L101.461 106.21C101.461 105.98 101.608 105.561 101.859 104.955L101.67 104.746L101.398 104.495H101.21L101.022 104.578L100.854 104.85V104.976L101.043 105.038L101.273 105.143L101.356 105.394L101.231 105.645L100.938 105.771L100.687 105.666L100.541 105.269L100.687 104.746L101.064 104.264L101.628 103.972L102.068 104.034L102.465 104.411L103.156 105.164L103.323 105.331H103.469L103.511 105.143H103.616V105.561L103.428 105.875L103.093 106.043L102.758 105.917M102.612 105.771L102.005 105.101L101.921 105.771L102.047 106.064L102.277 106.168L102.486 106.084L102.612 105.75" fill="#B96740"/>
<path d="M103.448 102.068L104.076 101.419L104.306 101.649L103.951 102.005L104.264 102.047L104.536 102.214L104.787 102.675L104.725 103.218L104.474 103.658L104.223 103.888L104.118 104.097L104.202 104.306L104.369 104.369L104.599 104.244L104.934 103.888L105.603 103.386L106.231 103.553L106.44 103.972L106.377 104.453L105.875 105.143L105.373 105.561L104.934 105.729L104.662 105.624L104.557 105.394L104.683 105.018L104.055 104.913L103.888 104.536L103.992 103.972L103.344 104.097L102.842 103.846L102.591 103.156L102.967 102.361L103.428 102.047M103.135 102.444L103.051 102.758L103.469 103.323L103.971 103.658L104.264 103.574L104.348 103.26L103.992 102.758L103.407 102.361L103.135 102.444ZM105.122 104.641L104.892 104.955L104.955 105.227L105.269 105.289L105.792 104.934L106.147 104.411L106.105 104.034L106.001 103.972L105.75 104.055L105.143 104.62" fill="#B96740"/>
<path d="M106.67 100.311L105.708 101.398L106.524 101.733L107.005 101.545L107.13 101.252L107.068 100.813H107.172L107.319 101.545L107.047 102.131L106.105 102.507L105.269 102.089L104.704 101.106L104.976 100.206L105.687 99.8922L106.628 100.311M106.022 100.708L105.52 100.332L105.227 100.269L105.08 100.352L105.017 100.624L105.436 101.21L105.52 101.273L106.043 100.687L106.022 100.708Z" fill="#B96740"/>
</svg>
