<svg width="177" height="120" viewBox="0 0 177 120" fill="none" xmlns="http://www.w3.org/2000/svg">
<path d="M177 108.093H171.098V119.854H177V118.888H172.205V114.402H176.528V113.49H172.205V109.059H177V108.093ZM162.998 109.114H165.195C166.975 109.114 167.865 109.953 167.865 111.612C167.865 113.272 166.975 114.074 165.195 114.074H162.998V109.114ZM169.082 119.854L165.958 114.913C166.939 114.803 167.701 114.457 168.21 113.873C168.737 113.29 168.991 112.524 168.991 111.539C168.991 110.482 168.682 109.643 168.065 109.023C167.447 108.403 166.521 108.093 165.268 108.093H161.872V119.854H162.979V114.949H164.777L167.81 119.854H169.082ZM151.32 108.093V115.223C151.32 116.809 151.683 118.012 152.41 118.797C153.136 119.581 154.099 119.982 155.315 119.982C156.532 119.982 157.495 119.581 158.221 118.797C158.948 118.012 159.311 116.809 159.311 115.223V108.093H158.203V115.223C158.203 116.481 157.949 117.411 157.44 117.994C156.932 118.578 156.223 118.888 155.334 118.888C154.444 118.888 153.717 118.596 153.209 117.994C152.682 117.411 152.428 116.481 152.428 115.223V108.093H151.32ZM142.239 108.093V109.041H145.381V119.854H146.489V109.041H149.649V108.093H142.239ZM132.577 108.093V115.223C132.577 116.809 132.941 118.012 133.667 118.797C134.394 119.581 135.356 119.982 136.573 119.982C137.79 119.982 138.752 119.581 139.479 118.797C140.205 118.012 140.568 116.809 140.568 115.223V108.093H139.461V115.223C139.461 116.481 139.206 117.411 138.698 117.994C138.189 118.578 137.481 118.888 136.591 118.888C135.701 118.888 134.975 118.596 134.466 117.994C133.94 117.411 133.685 116.481 133.685 115.223V108.093H132.577ZM124.586 108.093V119.854H125.694V114.439H129.944V113.527H125.694V109.041H130.598V108.093H124.586ZM117.159 108.093L114.307 114.019L111.456 108.093H110.185L113.762 115.277V119.872H114.87V115.277L118.43 108.093H117.159ZM107.043 108.348L102.993 118.414L98.9064 108.348H97.5988V119.872H98.7066V110.263L102.484 119.872H103.465L107.224 110.226V119.872H108.332V108.348H107.043ZM90.9699 116.882C90.9699 116.153 90.8246 115.551 90.5159 115.113C90.2071 114.676 89.8439 114.329 89.408 114.11C88.9722 113.892 88.4092 113.654 87.7009 113.417C87.1016 113.199 86.6112 113.016 86.2661 112.852L85.3762 112.141C85.1401 111.831 85.013 111.43 85.013 110.919C85.013 110.281 85.2128 109.789 85.5942 109.442C85.9756 109.078 86.5022 108.914 87.156 108.914C87.8643 108.914 88.4092 109.114 88.8087 109.497C89.2083 109.88 89.4625 110.336 89.5533 110.828H90.7338C90.6248 110.008 90.2616 109.333 89.6441 108.786C89.0266 108.239 88.2094 107.965 87.156 107.965C86.1027 107.965 85.3217 108.239 84.7406 108.804C84.1594 109.369 83.8688 110.081 83.8688 110.974C83.8688 111.667 84.0141 112.232 84.3047 112.652C84.5953 113.071 84.9585 113.399 85.3762 113.618C85.7939 113.837 86.3569 114.056 87.0471 114.293C87.6827 114.511 88.1731 114.694 88.5363 114.876L89.4444 115.642C89.6986 115.97 89.8076 116.39 89.8076 116.918C89.8076 117.538 89.626 118.031 89.2446 118.432C88.8632 118.833 88.3365 119.034 87.6282 119.034C87.1016 119.034 86.6475 118.924 86.2661 118.687L85.3944 117.83L85.0312 116.791H83.8688C83.9233 117.393 84.1049 117.94 84.45 118.414C84.7769 118.906 85.2309 119.271 85.7758 119.562C86.3388 119.836 86.9563 119.982 87.6827 119.982C88.4092 119.982 89.0266 119.836 89.517 119.544C90.0074 119.252 90.3706 118.869 90.6067 118.395C90.8428 117.921 90.9517 117.411 90.9517 116.882H90.9699ZM76.6588 108.002C75.6054 108.002 74.6792 108.257 73.862 108.768C73.0447 109.278 72.4272 109.989 71.9732 110.901C71.5192 111.813 71.3012 112.852 71.3012 114.001C71.3012 115.15 71.5192 116.189 71.9732 117.101C72.4272 118.012 73.0629 118.724 73.8801 119.234C74.6974 119.745 75.6236 120 76.677 120C77.6577 120 78.5294 119.763 79.3103 119.307C80.0731 118.851 80.6906 118.213 81.1446 117.411C81.5987 116.608 81.8711 115.715 81.9437 114.712V113.673H76.3864V114.566H80.9812C80.9267 115.46 80.6906 116.244 80.3092 116.918C79.9278 117.593 79.4193 118.104 78.8018 118.45C78.1843 118.797 77.5124 118.979 76.7678 118.979C75.9324 118.979 75.1877 118.778 74.5339 118.377C73.8801 117.976 73.3716 117.411 72.9902 116.663C72.627 115.916 72.4272 115.04 72.4272 114.019C72.4272 112.998 72.6088 112.159 72.9721 111.412C73.3353 110.664 73.8438 110.099 74.4794 109.698C75.1151 109.296 75.8415 109.096 76.6406 109.096C77.5669 109.096 78.366 109.333 79.0379 109.825C79.7099 110.318 80.2003 110.956 80.4727 111.74H81.6168C81.2899 110.591 80.6906 109.679 79.8189 109.023C78.9471 108.348 77.8938 108.02 76.6225 108.02L76.6588 108.002ZM69.0129 108.111H67.9051V117.958L61.8392 108.111H60.7313V119.854H61.8392V110.026L67.9051 119.854H69.0129V108.111ZM56.9538 108.111V119.872H58.0616V108.111H56.9538ZM45.5667 108.111L49.6711 119.872H51.0332L55.1558 108.111H53.939L50.3431 118.505L46.7835 108.111H45.5667ZM37.6847 116.08L39.9003 109.734L42.0797 116.08H37.6847ZM43.4055 119.891H44.6041L40.5178 108.385H39.2829L35.1966 119.891H36.377L37.3759 117.028H42.4248L43.4055 119.891ZM33.7437 116.9C33.7437 116.171 33.5984 115.569 33.2896 115.131C32.9809 114.694 32.6177 114.347 32.1818 114.129C31.7459 113.91 31.1829 113.673 30.4746 113.436C29.8753 113.217 29.3849 113.035 29.0399 112.87L28.15 112.159C27.9139 111.849 27.7868 111.448 27.7868 110.938C27.7868 110.299 27.9865 109.807 28.3679 109.461C28.7493 109.096 29.276 108.932 29.9298 108.932C30.6381 108.932 31.1829 109.132 31.5825 109.515C31.982 109.898 32.2363 110.354 32.3271 110.846H33.5076C33.3986 110.026 33.0354 109.351 32.4179 108.804C31.8004 108.257 30.9831 107.984 29.9298 107.984C28.8764 107.984 28.0955 108.257 27.5143 108.822C26.9332 109.388 26.6426 110.099 26.6426 110.992C26.6426 111.685 26.7879 112.25 27.0785 112.67C27.369 113.089 27.7323 113.417 28.15 113.636C28.5677 113.855 29.1307 114.074 29.8208 114.311C30.4565 114.53 30.9468 114.712 31.31 114.894L32.2181 115.66C32.4724 115.988 32.5813 116.408 32.5813 116.937C32.5813 117.557 32.3997 118.049 32.0183 118.45C31.6551 118.851 31.1103 119.052 30.402 119.052C29.8753 119.052 29.4213 118.942 29.0399 118.705L28.1681 117.848L27.8049 116.809H26.6426C26.6971 117.411 26.8787 117.958 27.2238 118.432C27.5507 118.924 28.0047 119.289 28.5495 119.581C29.1125 119.854 29.73 120 30.4565 120C31.1829 120 31.8004 119.854 32.2908 119.562C32.7811 119.271 33.1443 118.888 33.3804 118.414C33.6165 117.94 33.7255 117.429 33.7255 116.9H33.7437ZM19.5597 108.129L16.7084 114.056L13.857 108.129H12.5857L16.1635 115.314V119.909H17.2714V115.314L20.831 108.129H19.5597ZM9.44384 108.385L5.39388 118.45L1.30758 108.385H-3.05176e-05V119.909H1.10781V110.299L4.88536 119.909H5.86607L9.62546 110.263V119.909H10.7333V108.385H9.44384Z" fill="#2161AE"/>
<path d="M110.838 24.9445L109.095 27.8438C109.095 27.8438 103.32 22.7747 97.5988 24.8716C96.5999 22.9023 94.9654 21.3159 92.9677 20.3677C93.4762 19.6019 96.2912 15.8456 102.92 14.6969C102.92 14.6969 101.849 21.2794 105.063 22.9205C109.077 24.981 110.838 24.9445 110.838 24.9445Z" fill="#A4CD3A"/>
<path d="M111.692 18.6355C111.692 20.0942 110.511 21.2794 109.059 21.2794C107.606 21.2794 106.407 20.0942 106.407 18.6355C106.407 17.1767 107.587 15.9915 109.059 15.9915C110.53 15.9915 111.692 17.1767 111.692 18.6355Z" fill="#A4CD3A"/>
<path d="M104.754 36.7968C106.153 41.1001 107.424 42.3401 107.424 42.3401L104.137 43.1606C104.137 43.1606 103.61 35.5204 98.1436 32.9129C98.5432 31.8553 98.7248 30.7248 98.7248 29.5396C98.7248 28.4273 98.5432 27.3697 98.2344 26.385C99.5965 26.1845 103.937 25.8745 109.022 29.5031C109.022 29.5031 103.646 33.387 104.772 36.8333" fill="#A4CD3A"/>
<path d="M112.473 38.4562C111.438 39.4955 109.767 39.4955 108.732 38.4562C107.696 37.4168 107.696 35.7393 108.732 34.6999C109.767 33.6605 111.438 33.6605 112.473 34.6999C113.508 35.7393 113.508 37.4168 112.473 38.4562Z" fill="#A4CD3A"/>
<path d="M102.956 44.2547C102.956 44.2547 96.4001 43.1971 94.7838 46.4246C92.8042 50.3449 92.7679 52.1501 92.7679 52.2413L89.8802 50.4726C89.8802 50.4726 94.9654 44.6011 92.7679 38.8209V38.7661C94.7838 37.8544 96.4365 36.3045 97.4898 34.3717C98.5613 35.1558 101.885 38.0185 102.956 44.2364" fill="#A4CD3A"/>
<path d="M99.088 53.0618C97.6351 53.0618 96.4365 51.8766 96.4365 50.4179C96.4365 48.9591 97.6169 47.7557 99.0698 47.7557C100.523 47.7557 101.721 48.9409 101.721 50.3996C101.721 51.8584 100.541 53.0618 99.088 53.0618Z" fill="#A4CD3A"/>
<path d="M88.282 50.3996C88.282 50.3996 84.3955 45.0205 80.963 46.1328C76.677 47.5551 75.4602 48.8315 75.4602 48.8315L74.6429 45.5311C74.6429 45.5311 82.3615 44.9476 84.8859 39.3314L84.9404 39.222L85.1765 39.0032C86.2661 39.4226 87.4285 39.6414 88.6453 39.6414C89.5715 39.6414 90.4432 39.532 91.2968 39.2767C91.4966 40.1884 92.1686 44.8382 88.282 50.3814" fill="#A4CD3A"/>
<path d="M79.3285 53.9006C78.2933 52.8613 78.2752 51.1837 79.3285 50.1444C80.3637 49.105 82.0346 49.105 83.0697 50.1444C84.1049 51.1837 84.1049 52.8613 83.0697 53.9006C82.0346 54.94 80.3637 54.9582 79.3285 53.9189" fill="#A4CD3A"/>
<path d="M83.5783 38.2921V38.5109C83.5783 38.5109 80.963 43.0694 73.5351 44.3641C73.5351 44.3641 74.5703 37.7997 71.3557 36.1769C67.3239 34.1346 65.5622 34.1711 65.5622 34.1711L67.3057 31.2536C67.3057 31.2536 73.2445 36.4139 79.0198 34.0982L79.6554 34.1346C80.5272 35.8851 81.8893 37.3256 83.5601 38.2921" fill="#A4CD3A"/>
<path d="M64.745 40.4984C64.745 39.0397 65.9073 37.8362 67.3784 37.8362C68.8494 37.8362 70.0299 39.0032 70.0481 40.4802C70.0481 41.9572 68.8858 43.1424 67.4147 43.1424C65.9618 43.1424 64.7632 41.9754 64.7632 40.4984" fill="#A4CD3A"/>
<path d="M78.5476 29.5214C78.5476 30.4695 78.6747 31.3813 78.929 32.2565L78.6021 32.6029C78.6021 32.6029 73.5351 33.9705 67.3784 29.6308C67.3784 29.6308 72.7178 25.7286 71.5918 22.2823C70.1752 17.979 68.8858 16.7573 68.8858 16.7573L72.173 15.9368C72.173 15.9368 72.7541 23.7958 78.4749 26.2574L78.929 26.768C78.6747 27.6432 78.5476 28.5549 78.5476 29.5214Z" fill="#A4CD3A"/>
<path d="M63.8551 20.6595C64.8903 19.6201 66.5611 19.6019 67.5963 20.6412C68.6315 21.6806 68.6497 23.3582 67.6145 24.3975C66.5793 25.4369 64.9266 25.4551 63.8732 24.4157C62.8381 23.3764 62.8199 21.6988 63.8369 20.6595" fill="#A4CD3A"/>
<path d="M83.5964 20.2948L83.5601 20.7871C81.9074 21.7353 80.5453 23.1576 79.6736 24.8898H79.2196C79.2196 24.8898 74.6611 22.2641 73.3534 14.8245C73.3534 14.8245 79.9097 15.8456 81.5079 12.6181C83.5238 8.57013 83.4693 6.8014 83.4693 6.8014L86.3933 8.55189C86.3933 8.55189 81.2718 14.5327 83.5964 20.3313" fill="#A4CD3A"/>
<path d="M77.1855 5.99909C78.6384 5.99909 79.837 7.16608 79.8552 8.62483C79.8552 10.0836 78.6929 11.287 77.24 11.3053C75.7871 11.3053 74.5884 10.1383 74.5703 8.67953C74.5521 7.22079 75.7326 6.01732 77.1855 5.99909Z" fill="#A4CD3A"/>
<path d="M101.667 13.3658C101.667 13.3658 93.8394 13.9675 91.3876 19.7295L91.3331 19.7842C90.4796 19.5289 89.5715 19.4013 88.6271 19.4013C87.4103 19.4013 86.2661 19.6201 85.1946 20.0213L85.0493 19.8936C85.0493 19.8936 83.6691 14.8063 87.9915 8.6066C87.9915 8.6066 91.8961 13.9857 95.3105 12.8187C99.5965 11.3782 100.813 10.0836 100.813 10.0836L101.649 13.3658H101.667Z" fill="#A4CD3A"/>
<path d="M96.9268 5.0509C97.9802 6.09026 97.9802 7.74958 96.9631 8.80717C95.9279 9.84653 94.2753 9.86476 93.2219 8.84364C92.1867 7.82252 92.1686 6.14496 93.1856 5.08737C94.2026 4.02978 95.8735 4.02978 96.9268 5.0509Z" fill="#A4CD3A"/>
<path d="M96.5454 27.8985C96.4365 27.315 96.273 26.8044 96.0551 26.3121L93.7667 26.3486L95.71 25.6192C94.7838 23.9234 93.2582 22.5923 91.4421 21.9176L90.0437 23.504L90.752 21.6806C90.08 21.4983 89.3536 21.3888 88.6271 21.3888C87.3921 21.3888 86.2298 21.6624 85.1946 22.1547L85.3217 24.361L84.5408 22.5194C83.0153 23.3946 81.8166 24.7804 81.1628 26.4398L83.1787 27.8985L80.8904 27.2603C80.6725 27.9714 80.5816 28.719 80.5816 29.5214C80.5816 30.6701 80.8177 31.7459 81.2355 32.7306L83.887 32.9494L81.6532 33.5511C82.5067 35.0463 83.8144 36.2316 85.3762 36.9245L87.0289 35.484L86.0845 37.198C86.8836 37.4715 87.7554 37.6174 88.6453 37.6174C89.4807 37.6174 90.2798 37.4897 91.0426 37.2527L90.6975 34.9187L91.8053 36.9792C92.7679 36.5598 93.6215 35.9581 94.3479 35.2287L94.8746 34.6452C95.3105 34.1164 95.6918 33.5329 95.9824 32.8765L94.1663 31.0895L96.2912 32.0742C96.4365 31.6183 96.5454 31.126 96.6181 30.6336L96.7089 29.4849C96.7089 28.9379 96.6544 28.3908 96.5454 27.8803M88.8087 33.0406C86.702 33.15 84.9404 31.5271 84.8314 29.4119C84.7406 27.315 86.3569 25.528 88.4455 25.4369C90.5522 25.3275 92.3138 26.9503 92.4228 29.0473C92.5318 31.1624 90.9154 32.9494 88.8087 33.0406Z" fill="#A4CD3A"/>
<path d="M61.3852 4.37624C60.4953 5.21501 58.4975 5.79851 57.1354 7.64018C56.6087 6.63729 57.9708 4.23036 59.6053 2.78985C60.804 1.78696 63.1831 0.145875 63.8551 0C64.3818 1.2217 62.493 3.06336 61.3852 4.37624Z" fill="#2161AE"/>
<path d="M58.5883 10.9771C57.0809 12.3993 55.4464 12.9828 53.3397 15.5539C52.4498 12.4358 52.6677 9.70065 53.0854 7.85899C53.8301 5.43382 55.0287 2.73515 57.0809 1.89637C56.6632 3.26394 55.9731 5.16031 55.8096 7.74958C54.9197 11.287 54.3931 11.3964 54.611 11.8523C54.8108 11.8523 55.9731 10.0106 57.3897 8.57013C59.0787 6.89257 61.1672 6.52788 62.5293 5.525C62.3114 6.19967 61.1127 8.36955 58.5883 10.9588" fill="#2161AE"/>
<path d="M51.1967 25.5827C49.1444 21.8812 48.9447 19.2007 48.7631 16.0827C48.872 13.931 49.9254 8.91658 51.5054 8.16897C51.0332 12.7093 52.25 13.1105 51.7778 16.8667L51.2511 21.1883C51.8868 21.0789 51.3056 17.5961 58.4975 12.5999C56.9356 15.3351 57.6621 16.1738 54.8108 19.8207C51.5054 23.0846 51.0332 26.2939 51.1967 25.5645" fill="#2161AE"/>
<path d="M54.0843 29.0655C52.5588 31.2718 52.813 32.3841 52.4498 33.4417C48.8175 31.3265 44.7312 22.957 46.2568 18.7813C47.2012 21.9359 48.5088 22.6288 49.4532 25.2545C51.0877 29.2114 50.8334 30.4331 51.8686 31.3265C51.6507 29.2843 52.3408 26.8409 53.031 25.0539C54.0298 23.5223 54.8108 21.5165 55.5372 20.8236C56.3181 23.7228 55.7551 26.0933 54.0662 29.0655" fill="#2161AE"/>
<path d="M57.3352 36.2316C57.3352 39.4408 56.754 40.8813 56.4998 43.2336C50.2523 41.1913 46.9832 34.007 46.9832 30.4695C48.8902 34.7911 51.6689 34.7364 55.3011 40.8631C55.6099 38.5473 54.6655 40.2796 54.5565 35.9034C54.6655 31.3083 55.6099 31.1442 55.7552 28.3179C56.9175 29.5761 57.3352 34.6452 57.3352 36.2316Z" fill="#2161AE"/>
<path d="M62.5293 45.3487C63.0015 47.7192 63.2013 50.5273 63.5827 52.5878C60.0049 51.2749 59.115 52.2778 54.8471 49.5791C52.9038 48.5215 49.435 44.0906 49.653 40.936C53.8482 45.6405 54.5747 45.1117 56.6269 46.8439C58.5157 48.3756 60.0412 50.6367 61.4215 50.3267C61.5123 49.0503 58.3159 46.3152 58.7336 38.4015C59.569 39.2949 61.8755 42.8871 62.5112 45.3487" fill="#2161AE"/>
<path d="M69.6304 51.2567C70.7382 52.843 70.4658 53.5177 73.3171 56.7999C72.627 57.1099 68.5952 58.1674 65.9073 58.2769C64.1275 58.2769 57.8255 56.5993 55.737 52.2595C59.3511 54.2106 59.4237 53.7365 64.2365 54.7941C67.7053 55.5782 70.1752 56.6905 71.1196 56.5811C70.9198 56.107 68.232 54.9947 66.3977 52.6789C64.5634 50.1991 64.9811 47.4092 63.3466 45.3487C64.4544 45.0388 68.7586 50.1079 69.6667 51.2567" fill="#2161AE"/>
<path d="M114.634 4.37624C115.469 5.21501 117.522 5.79851 118.829 7.64018C119.411 6.63729 117.994 4.23036 116.359 2.78985C115.215 1.78696 112.836 0.145875 112.11 0C111.583 1.2217 113.472 3.06336 114.634 4.37624Z" fill="#2161AE"/>
<path d="M117.413 10.9771C118.884 12.3993 120.518 12.9828 122.607 15.5539C123.515 12.4358 123.297 9.70065 122.879 7.85899C122.189 5.43382 120.936 2.73515 118.884 1.89637C119.356 3.26394 119.992 5.16031 120.137 7.74958C121.027 11.287 121.554 11.3964 121.354 11.8523C121.136 11.8523 119.973 10.0106 118.557 8.57013C116.941 6.89257 114.834 6.52788 113.417 5.525C113.617 6.19967 114.888 8.36955 117.395 10.9588" fill="#2161AE"/>
<path d="M124.768 25.5827C126.875 21.8812 127.02 19.2007 127.184 16.0827C127.075 13.931 126.021 8.91658 124.496 8.16897C124.913 12.7093 123.715 13.1105 124.241 16.8667L124.714 21.1883C124.132 21.0789 124.659 17.5961 117.522 12.5999C119.047 15.3351 118.303 16.1738 121.154 19.8207C124.514 23.0846 124.932 26.2939 124.768 25.5645" fill="#2161AE"/>
<path d="M121.935 29.0655C123.406 31.2718 123.152 32.3841 123.515 33.4417C127.147 31.3265 131.288 22.957 129.708 18.7813C128.818 21.9359 127.456 22.6288 126.548 25.2545C124.877 29.2114 125.131 30.4331 124.132 31.3265C124.35 29.2843 123.606 26.8409 122.916 25.0539C121.971 23.5223 121.136 21.5165 120.391 20.8236C119.665 23.7228 120.173 26.0933 121.917 29.0655" fill="#2161AE"/>
<path d="M118.63 36.2316C118.63 39.4408 119.247 40.8813 119.519 43.2336C125.731 41.1913 129.036 34.007 129.036 30.4695C127.093 34.7911 124.369 34.7364 120.682 40.8631C120.373 38.5473 121.299 40.2796 121.408 35.9034C121.299 31.3083 120.355 31.1442 120.191 28.3179C119.047 29.5761 118.63 34.6452 118.63 36.2316Z" fill="#2161AE"/>
<path d="M113.435 45.3487C112.963 47.7192 112.8 50.5273 112.437 52.5878C115.96 51.2749 116.85 52.2778 121.1 49.5791C123.043 48.5215 126.566 44.0906 126.348 40.936C122.135 45.6405 121.354 45.1117 119.356 46.8439C117.467 48.3756 115.887 50.6367 114.507 50.3267C114.416 49.0503 117.613 46.3152 117.249 38.4015C116.359 39.2949 114.053 42.8871 113.417 45.3487" fill="#2161AE"/>
<path d="M106.334 51.2567C105.281 52.843 105.535 53.5177 102.666 56.7999C103.392 57.1099 107.388 58.1674 110.13 58.2769C111.855 58.2769 118.157 56.5993 120.264 52.2595C116.65 54.2106 116.595 53.7365 111.765 54.7941C108.296 55.5782 105.88 56.6905 104.881 56.5811C105.081 56.107 107.805 54.9947 109.603 52.6789C111.438 50.1991 111.02 47.4092 112.691 45.3487C111.547 45.0388 107.224 50.1079 106.334 51.2567Z" fill="#2161AE"/>
<path d="M79.0198 66.1176L77.9664 65.5888C77.9664 65.5888 84.6498 57.4198 96.0914 58.0398C107.551 58.678 106.752 61.3585 112.891 60.9391C113.581 60.8844 112.364 61.7961 112.364 61.7961C112.364 61.7961 106.371 64.1118 98.979 61.5773C91.6237 59.0427 86.8473 57.511 79.0198 66.1176Z" fill="#2161AE"/>
<path d="M97.1447 66.1176L98.1981 65.5888C98.1981 65.5888 91.5874 57.4198 80.1276 58.0398C68.6133 58.678 69.4124 61.3585 63.2739 60.9391C62.5838 60.8844 63.8006 61.7961 63.8006 61.7961C63.8006 61.7961 69.7757 64.1118 77.1855 61.5773C84.5953 59.0427 89.3717 57.511 97.1266 66.1176" fill="#2161AE"/>
<path d="M162.653 77.6052C163.833 77.6052 164.886 77.897 165.794 78.4622C166.703 79.0275 167.393 79.8481 167.901 80.9239C168.41 81.9997 168.664 83.2396 168.664 84.6619C168.664 86.0842 168.41 87.3423 167.901 88.3999C167.393 89.4758 166.684 90.2963 165.794 90.8616C164.886 91.4268 163.851 91.7186 162.653 91.7186C161.454 91.7186 160.419 91.4268 159.511 90.8616C158.603 90.2963 157.912 89.4758 157.404 88.3999C156.895 87.3241 156.641 86.0842 156.641 84.6619C156.641 83.2396 156.895 81.9815 157.404 80.9239C157.912 79.8481 158.621 79.0275 159.511 78.4622C160.419 77.897 161.454 77.6052 162.653 77.6052ZM162.653 73.6302C160.746 73.6302 159.038 74.1042 157.495 75.0342C155.951 75.9641 154.734 77.277 153.844 78.9546C152.954 80.6321 152.5 82.5285 152.5 84.6619C152.5 86.7953 152.954 88.6917 153.844 90.3693C154.734 92.065 155.951 93.3779 157.495 94.3079C159.038 95.2378 160.764 95.7119 162.653 95.7119C164.541 95.7119 166.267 95.2378 167.81 94.3079C169.354 93.3779 170.571 92.065 171.461 90.3693C172.351 88.6735 172.805 86.7771 172.805 84.6619C172.805 82.5467 172.351 80.6504 171.461 78.9546C170.571 77.277 169.354 75.9641 167.81 75.0342C166.267 74.1042 164.541 73.6302 162.653 73.6302ZM139.987 73.7213C138.026 73.7213 136.319 74.1772 134.848 75.1071C133.377 76.0371 132.232 77.3317 131.415 79.0093C130.598 80.6868 130.198 82.5832 130.198 84.7166C130.198 86.85 130.598 88.7282 131.415 90.4057C132.232 92.0833 133.377 93.3779 134.866 94.3079C136.355 95.2378 138.062 95.6937 140.005 95.6937C142.53 95.6937 144.637 95.0008 146.307 93.615C147.978 92.2292 149.086 90.351 149.613 87.9623H145.363C144.927 89.1293 144.237 90.041 143.311 90.7157C142.385 91.3904 141.259 91.7186 139.969 91.7186C138.898 91.7186 137.935 91.4268 137.063 90.8616C136.192 90.2963 135.538 89.4758 135.047 88.4182C134.575 87.3606 134.321 86.1207 134.321 84.7166C134.321 83.3126 134.557 82.0544 135.047 80.9968C135.52 79.9392 136.192 79.1187 137.063 78.5534C137.935 77.9882 138.898 77.6964 139.969 77.6964C141.277 77.6964 142.385 78.0246 143.311 78.6993C144.237 79.374 144.927 80.2857 145.363 81.4527H149.613C149.068 79.064 147.978 77.1858 146.307 75.8C144.637 74.4142 142.548 73.7213 140.005 73.7213H139.987ZM117.667 73.7213C115.706 73.7213 113.998 74.1772 112.527 75.1071C111.056 76.0371 109.912 77.3317 109.095 79.0093C108.278 80.6868 107.878 82.5832 107.878 84.7166C107.878 86.85 108.278 88.7282 109.095 90.4057C109.912 92.0833 111.056 93.3779 112.546 94.3079C114.035 95.2378 115.742 95.6937 117.685 95.6937C120.21 95.6937 122.316 95.0008 123.987 93.615C125.658 92.2292 126.766 90.351 127.292 87.9623H123.043C122.607 89.1293 121.917 90.041 120.991 90.7157C120.064 91.3904 118.938 91.7186 117.649 91.7186C116.577 91.7186 115.615 91.4268 114.743 90.8616C113.871 90.2963 113.217 89.4758 112.727 88.4182C112.255 87.3606 112.001 86.1207 112.001 84.7166C112.001 83.3126 112.237 82.0544 112.727 80.9968C113.199 79.9392 113.871 79.1187 114.743 78.5534C115.615 77.9882 116.577 77.6964 117.649 77.6964C118.956 77.6964 120.064 78.0246 120.991 78.6993C121.917 79.374 122.607 80.2857 123.043 81.4527H127.292C126.748 79.064 125.658 77.1858 123.987 75.8C122.316 74.4142 120.228 73.7213 117.685 73.7213H117.667ZM93.0403 87.9076L96.0369 78.8087L99.0335 87.9076H93.0403ZM101.522 95.5113H105.808L98.3616 74.1772H93.7304L86.248 95.5113H90.534L91.9688 91.1716H100.105L101.522 95.5113ZM84.2684 89.6216C84.2684 88.2358 83.9778 87.1235 83.3966 86.2665C82.8155 85.4095 82.1254 84.7713 81.3081 84.3337C80.4908 83.9143 79.4375 83.4402 78.1299 82.9661C77.1855 82.6379 76.4409 82.3461 75.896 82.0726C75.3512 81.7991 74.8972 81.4709 74.5521 81.0515C74.1889 80.6321 74.0254 80.1033 74.0254 79.4834C74.0254 78.6811 74.2615 78.0793 74.7155 77.6599C75.1696 77.2405 75.7871 77.04 76.5317 77.04C77.4034 77.04 78.0754 77.2952 78.5657 77.7876C79.0561 78.2799 79.3648 78.9181 79.492 79.7022H83.8688C83.7054 77.8605 82.9789 76.4018 81.6895 75.3077C80.4182 74.2136 78.711 73.6484 76.5498 73.6484C74.3886 73.6484 72.8086 74.1772 71.5555 75.253C70.3024 76.3288 69.6667 77.7876 69.6667 79.6475C69.6667 80.9968 69.9573 82.0909 70.5203 82.9114C71.0833 83.7502 71.7734 84.3884 72.5725 84.826C73.3716 85.2636 74.4068 85.7013 75.6781 86.1571C76.6588 86.5036 77.4216 86.8136 77.9846 87.0688C78.5476 87.3424 79.0016 87.6888 79.3648 88.1264C79.7281 88.5641 79.9097 89.1111 79.9097 89.7858C79.9097 90.5334 79.6917 91.1533 79.2377 91.6274C78.7837 92.1015 78.148 92.3386 77.2945 92.3386C76.3501 92.3386 75.6054 92.0468 75.0424 91.4633C74.4794 90.8798 74.1525 90.1504 74.0436 89.2752H69.7212C69.812 90.5881 70.2115 91.7186 70.8835 92.7032C71.5555 93.6879 72.4635 94.4355 73.6077 94.9461C74.7337 95.4566 76.0232 95.7301 77.4579 95.7301C78.8926 95.7301 80.1458 95.4566 81.1628 94.8914C82.1798 94.3261 82.9426 93.5967 83.4693 92.6668C83.9778 91.7368 84.2502 90.7339 84.2502 89.6216H84.2684ZM60.0775 89.6216C60.0775 88.2358 59.787 87.1235 59.2058 86.2665C58.6246 85.4095 57.9345 84.7713 57.1173 84.3337C56.3 83.9143 55.2466 83.4402 53.939 82.9661C52.9946 82.6379 52.25 82.3461 51.7052 82.0726C51.1603 81.7991 50.7063 81.4709 50.3612 81.0515C49.998 80.6321 49.8346 80.1033 49.8346 79.4834C49.8346 78.6811 50.0707 78.0793 50.5247 77.6599C50.9787 77.2405 51.5962 77.04 52.3408 77.04C53.2126 77.04 53.8845 77.2952 54.3749 77.7876C54.8653 78.2799 55.174 78.9181 55.3011 79.7022H59.678C59.5145 77.8605 58.7881 76.4018 57.4986 75.3077C56.2273 74.2136 54.5202 73.6484 52.359 73.6484C50.1978 73.6484 48.6178 74.1772 47.3646 75.253C46.1115 76.3288 45.4759 77.7876 45.4759 79.6475C45.4759 80.9968 45.7664 82.0909 46.3294 82.9114C46.8924 83.7502 47.5826 84.3884 48.3817 84.826C49.1808 85.2636 50.216 85.7013 51.4873 86.1571C52.468 86.5036 53.2307 86.8136 53.7937 87.0688C54.3567 87.3424 54.8108 87.6888 55.174 88.1264C55.5372 88.5641 55.7188 89.1111 55.7188 89.7858C55.7188 90.5334 55.5009 91.1533 55.0469 91.6274C54.5928 92.1015 53.9572 92.3386 53.1036 92.3386C52.1592 92.3386 51.4146 92.0468 50.8516 91.4633C50.2886 90.8798 49.9617 90.1504 49.8527 89.2752H45.5303C45.6211 90.5881 46.0207 91.7186 46.6927 92.7032C47.3646 93.6879 48.2727 94.4355 49.4169 94.9461C50.5429 95.4566 51.8323 95.7301 53.2671 95.7301C54.7018 95.7301 55.9549 95.4566 56.972 94.8914C57.989 94.3261 58.7518 93.5967 59.2784 92.6668C59.8051 91.7368 60.0594 90.7339 60.0594 89.6216H60.0775ZM41.9526 73.9401H37.9026V88.7282L28.8219 73.9401H24.772V95.5113H28.8219V80.8509L37.9026 95.5113H41.9526V73.9401ZM4.50397 73.9401V86.5947C4.50397 89.5852 5.23042 91.8645 6.68333 93.4144C8.13623 94.9643 10.0795 95.7301 12.5131 95.7301C14.0931 95.7301 15.4916 95.4019 16.7265 94.7273C17.9615 94.0526 18.924 93.0315 19.6323 91.6639C20.3406 90.2963 20.6857 88.6005 20.6857 86.613V73.9584H16.6539V86.613C16.6539 88.3088 16.3088 89.5669 15.6005 90.424C14.8922 91.2627 13.8934 91.7004 12.6039 91.7004C11.3145 91.7004 10.2611 91.281 9.57097 90.424C8.86268 89.5852 8.51762 88.3088 8.51762 86.613V73.9584H4.54029L4.50397 73.9401Z" fill="#2161AE"/>
<path d="M67.5418 82.6379H60.695V85.756H67.5418V82.6379Z" fill="#2161AE"/>
</svg>
